%TF.GenerationSoftware,KiCad,Pcbnew,5.1.5-52549c5~84~ubuntu19.10.1*%
%TF.CreationDate,2019-12-20T00:10:48-05:00*%
%TF.ProjectId,test-mixer,74657374-2d6d-4697-9865-722e6b696361,rev?*%
%TF.SameCoordinates,Original*%
%TF.FileFunction,Copper,L2,Bot*%
%TF.FilePolarity,Positive*%
%FSLAX46Y46*%
G04 Gerber Fmt 4.6, Leading zero omitted, Abs format (unit mm)*
G04 Created by KiCad (PCBNEW 5.1.5-52549c5~84~ubuntu19.10.1) date 2019-12-20 00:10:48*
%MOMM*%
%LPD*%
G04 APERTURE LIST*
%ADD10R,1.700000X1.700000*%
%ADD11O,1.700000X1.700000*%
%ADD12C,0.965200*%
%ADD13R,2.413000X4.830000*%
%ADD14C,0.685800*%
%ADD15C,0.508000*%
%ADD16C,1.270000*%
%ADD17C,0.762000*%
%ADD18C,0.254000*%
%ADD19C,0.330200*%
G04 APERTURE END LIST*
D10*
X50050000Y-118550000D03*
X50100000Y-110750000D03*
D11*
X19950000Y-96880000D03*
X19950000Y-94340000D03*
X19950000Y-91800000D03*
X19950000Y-89260000D03*
X19950000Y-86720000D03*
X19950000Y-84180000D03*
X19950000Y-81640000D03*
D10*
X19950000Y-79100000D03*
D12*
X46381500Y-135231000D03*
X37618500Y-135231000D03*
D13*
X46381500Y-138550000D03*
X37618500Y-138535000D03*
D14*
X45000000Y-132500000D03*
X40000000Y-132500000D03*
X40300000Y-89200000D03*
X50175000Y-92750000D03*
X46700000Y-96200000D03*
X46600000Y-97250000D03*
X46225000Y-94750000D03*
X43050000Y-100300000D03*
X43100000Y-101200000D03*
X36581282Y-94381282D03*
X37831282Y-93131282D03*
X34131282Y-96731282D03*
X32781282Y-97831282D03*
X31150000Y-98600000D03*
X30350000Y-99100000D03*
X43985000Y-88785000D03*
X46385000Y-88750000D03*
X46385000Y-89700000D03*
X43700000Y-83600000D03*
X44700000Y-91635000D03*
X45700000Y-91635000D03*
X39700014Y-126950000D03*
X39550006Y-128000000D03*
X46719168Y-91035832D03*
X37450000Y-90335000D03*
X32625000Y-92700000D03*
X41800000Y-89200000D03*
X41825000Y-90625000D03*
X36275000Y-83200000D03*
X36150000Y-78350000D03*
X46225000Y-93150000D03*
X25000000Y-137500000D03*
X30000000Y-137500000D03*
X35000000Y-137500000D03*
X35000000Y-132500000D03*
X35000000Y-127500000D03*
X35000000Y-122500000D03*
X35000000Y-117500000D03*
X35000000Y-112500000D03*
X35000000Y-107500000D03*
X35000000Y-102500000D03*
X30000000Y-102500000D03*
X30000000Y-107500000D03*
X30000000Y-112500000D03*
X30000000Y-117500000D03*
X30000000Y-122500000D03*
X30000000Y-127500000D03*
X30000000Y-132500000D03*
X25000000Y-132500000D03*
X25000000Y-127500000D03*
X25000000Y-122500000D03*
X25000000Y-117500000D03*
X25000000Y-112500000D03*
X25000000Y-107500000D03*
X25000000Y-102500000D03*
X25000000Y-97500000D03*
X25000000Y-92500000D03*
X20000000Y-102500000D03*
X20000000Y-112500000D03*
X20000000Y-117500000D03*
X20000000Y-122500000D03*
X20000000Y-127500000D03*
X20000000Y-132500000D03*
X50000000Y-132500000D03*
X50000000Y-127500000D03*
X50000000Y-122500000D03*
X50000000Y-107500000D03*
X50000000Y-102500000D03*
X50000000Y-87500000D03*
X45000000Y-82500000D03*
X44000000Y-105000000D03*
X44000000Y-110000000D03*
X44000000Y-115000000D03*
X44000000Y-120000000D03*
X44000000Y-125000000D03*
X40289590Y-90573015D03*
X39000000Y-97000000D03*
X37000000Y-100000000D03*
X43500000Y-97000000D03*
X39500000Y-99000000D03*
X38225000Y-87350000D03*
X40376821Y-92925139D03*
X35200000Y-89550000D03*
X27900000Y-92800000D03*
X44475000Y-93150000D03*
X41672310Y-93484144D03*
X42050000Y-83825000D03*
X38100000Y-91600000D03*
X48325000Y-94600000D03*
X38300000Y-102950000D03*
X43600000Y-103000000D03*
D15*
X28445000Y-96880000D02*
X32625000Y-92700000D01*
X19950000Y-96880000D02*
X28445000Y-96880000D01*
X34900000Y-92700000D02*
X36581282Y-94381282D01*
X32625000Y-92700000D02*
X34900000Y-92700000D01*
X35085000Y-92700000D02*
X37450000Y-90335000D01*
X34900000Y-92700000D02*
X35085000Y-92700000D01*
D16*
X46225000Y-92160000D02*
X45700000Y-91635000D01*
X46225000Y-93150000D02*
X46225000Y-92160000D01*
X49435000Y-92750000D02*
X46385000Y-89700000D01*
X50175000Y-92750000D02*
X49435000Y-92750000D01*
X43700000Y-88500000D02*
X43985000Y-88785000D01*
X43700000Y-83600000D02*
X43700000Y-88500000D01*
X43550000Y-100300000D02*
X46600000Y-97250000D01*
X43050000Y-100300000D02*
X43550000Y-100300000D01*
D15*
X37450000Y-85875000D02*
X36275000Y-84700000D01*
X37450000Y-90335000D02*
X37450000Y-85875000D01*
X36275000Y-84700000D02*
X36275000Y-83200000D01*
X36275000Y-78475000D02*
X36150000Y-78350000D01*
X36275000Y-83200000D02*
X36275000Y-78475000D01*
X37908000Y-83200000D02*
X39008000Y-82100000D01*
X36275000Y-83200000D02*
X37908000Y-83200000D01*
X42200000Y-82100000D02*
X43700000Y-83600000D01*
X39008000Y-82100000D02*
X42200000Y-82100000D01*
X46185000Y-89900000D02*
X46385000Y-89700000D01*
D17*
X40075000Y-89200000D02*
X38225000Y-87350000D01*
X40300000Y-89200000D02*
X40075000Y-89200000D01*
D15*
X36570678Y-96731282D02*
X40033922Y-93268038D01*
X40033922Y-93268038D02*
X40376821Y-92925139D01*
X34131282Y-96731282D02*
X36570678Y-96731282D01*
X31150000Y-89550000D02*
X27900000Y-92800000D01*
X35200000Y-89550000D02*
X32000000Y-89550000D01*
X32000000Y-89550000D02*
X31150000Y-89550000D01*
X32000000Y-83450000D02*
X32000000Y-89550000D01*
X19950000Y-79100000D02*
X27650000Y-79100000D01*
X27650000Y-79100000D02*
X32000000Y-83450000D01*
D18*
X42006454Y-93150000D02*
X41672310Y-93484144D01*
D19*
X42850000Y-93150000D02*
X42550000Y-93150000D01*
D18*
X44475000Y-93150000D02*
X42850000Y-93150000D01*
X42850000Y-93150000D02*
X42006454Y-93150000D01*
D19*
X42550000Y-93150000D02*
X41100000Y-91700000D01*
X41100000Y-84775000D02*
X42050000Y-83825000D01*
X41100000Y-91700000D02*
X41100000Y-84775000D01*
D18*
X38100000Y-91600000D02*
X38757301Y-92257301D01*
X47825928Y-94100928D02*
X48325000Y-94600000D01*
X38757301Y-92257301D02*
X40757301Y-92257301D01*
X40757301Y-92257301D02*
X41050000Y-92550000D01*
X41050000Y-92550000D02*
X41050000Y-94200000D01*
X41050000Y-94200000D02*
X41200000Y-94350000D01*
X41200000Y-94350000D02*
X45250000Y-94350000D01*
X45250000Y-94350000D02*
X45499072Y-94100928D01*
X46254922Y-94100928D02*
X46399072Y-94100928D01*
X46399072Y-94100928D02*
X47825928Y-94100928D01*
X45499072Y-94100928D02*
X46399072Y-94100928D01*
D15*
X38300000Y-102950000D02*
X43550000Y-102950000D01*
X43550000Y-102950000D02*
X43600000Y-103000000D01*
D18*
G36*
X54644401Y-140644400D02*
G01*
X17355600Y-140644400D01*
X17355600Y-117700000D01*
X48919249Y-117700000D01*
X48919249Y-119400000D01*
X48924644Y-119454772D01*
X48940620Y-119507439D01*
X48966564Y-119555977D01*
X49001479Y-119598521D01*
X49044023Y-119633436D01*
X49092561Y-119659380D01*
X49145228Y-119675356D01*
X49200000Y-119680751D01*
X50900000Y-119680751D01*
X50954772Y-119675356D01*
X51007439Y-119659380D01*
X51055977Y-119633436D01*
X51098521Y-119598521D01*
X51133436Y-119555977D01*
X51159380Y-119507439D01*
X51175356Y-119454772D01*
X51180751Y-119400000D01*
X51180751Y-117700000D01*
X51175356Y-117645228D01*
X51159380Y-117592561D01*
X51133436Y-117544023D01*
X51098521Y-117501479D01*
X51055977Y-117466564D01*
X51007439Y-117440620D01*
X50954772Y-117424644D01*
X50900000Y-117419249D01*
X49200000Y-117419249D01*
X49145228Y-117424644D01*
X49092561Y-117440620D01*
X49044023Y-117466564D01*
X49001479Y-117501479D01*
X48966564Y-117544023D01*
X48940620Y-117592561D01*
X48924644Y-117645228D01*
X48919249Y-117700000D01*
X17355600Y-117700000D01*
X17355600Y-109900000D01*
X48969249Y-109900000D01*
X48969249Y-111600000D01*
X48974644Y-111654772D01*
X48990620Y-111707439D01*
X49016564Y-111755977D01*
X49051479Y-111798521D01*
X49094023Y-111833436D01*
X49142561Y-111859380D01*
X49195228Y-111875356D01*
X49250000Y-111880751D01*
X50950000Y-111880751D01*
X51004772Y-111875356D01*
X51057439Y-111859380D01*
X51105977Y-111833436D01*
X51148521Y-111798521D01*
X51183436Y-111755977D01*
X51209380Y-111707439D01*
X51225356Y-111654772D01*
X51230751Y-111600000D01*
X51230751Y-109900000D01*
X51225356Y-109845228D01*
X51209380Y-109792561D01*
X51183436Y-109744023D01*
X51148521Y-109701479D01*
X51105977Y-109666564D01*
X51057439Y-109640620D01*
X51004772Y-109624644D01*
X50950000Y-109619249D01*
X49250000Y-109619249D01*
X49195228Y-109624644D01*
X49142561Y-109640620D01*
X49094023Y-109666564D01*
X49051479Y-109701479D01*
X49016564Y-109744023D01*
X48990620Y-109792561D01*
X48974644Y-109845228D01*
X48969249Y-109900000D01*
X17355600Y-109900000D01*
X17355600Y-102888709D01*
X37677700Y-102888709D01*
X37677700Y-103011291D01*
X37701615Y-103131518D01*
X37748525Y-103244770D01*
X37816628Y-103346693D01*
X37903307Y-103433372D01*
X38005230Y-103501475D01*
X38118482Y-103548385D01*
X38238709Y-103572300D01*
X38361291Y-103572300D01*
X38481518Y-103548385D01*
X38594770Y-103501475D01*
X38621821Y-103483400D01*
X43203349Y-103483400D01*
X43305230Y-103551475D01*
X43418482Y-103598385D01*
X43538709Y-103622300D01*
X43661291Y-103622300D01*
X43781518Y-103598385D01*
X43894770Y-103551475D01*
X43996693Y-103483372D01*
X44083372Y-103396693D01*
X44151475Y-103294770D01*
X44198385Y-103181518D01*
X44222300Y-103061291D01*
X44222300Y-102938709D01*
X44198385Y-102818482D01*
X44151475Y-102705230D01*
X44083372Y-102603307D01*
X43996693Y-102516628D01*
X43894770Y-102448525D01*
X43781518Y-102401615D01*
X43661291Y-102377700D01*
X43538709Y-102377700D01*
X43418482Y-102401615D01*
X43382305Y-102416600D01*
X38621821Y-102416600D01*
X38594770Y-102398525D01*
X38481518Y-102351615D01*
X38361291Y-102327700D01*
X38238709Y-102327700D01*
X38118482Y-102351615D01*
X38005230Y-102398525D01*
X37903307Y-102466628D01*
X37816628Y-102553307D01*
X37748525Y-102655230D01*
X37701615Y-102768482D01*
X37677700Y-102888709D01*
X17355600Y-102888709D01*
X17355600Y-94228764D01*
X18820600Y-94228764D01*
X18820600Y-94451236D01*
X18864002Y-94669434D01*
X18949138Y-94874972D01*
X19072737Y-95059951D01*
X19230049Y-95217263D01*
X19415028Y-95340862D01*
X19620566Y-95425998D01*
X19838764Y-95469400D01*
X20061236Y-95469400D01*
X20279434Y-95425998D01*
X20484972Y-95340862D01*
X20669951Y-95217263D01*
X20827263Y-95059951D01*
X20950862Y-94874972D01*
X21035998Y-94669434D01*
X21079400Y-94451236D01*
X21079400Y-94228764D01*
X21035998Y-94010566D01*
X20950862Y-93805028D01*
X20827263Y-93620049D01*
X20669951Y-93462737D01*
X20484972Y-93339138D01*
X20279434Y-93254002D01*
X20061236Y-93210600D01*
X19838764Y-93210600D01*
X19620566Y-93254002D01*
X19415028Y-93339138D01*
X19230049Y-93462737D01*
X19072737Y-93620049D01*
X18949138Y-93805028D01*
X18864002Y-94010566D01*
X18820600Y-94228764D01*
X17355600Y-94228764D01*
X17355600Y-91688764D01*
X18820600Y-91688764D01*
X18820600Y-91911236D01*
X18864002Y-92129434D01*
X18949138Y-92334972D01*
X19072737Y-92519951D01*
X19230049Y-92677263D01*
X19415028Y-92800862D01*
X19620566Y-92885998D01*
X19838764Y-92929400D01*
X20061236Y-92929400D01*
X20279434Y-92885998D01*
X20484972Y-92800862D01*
X20669951Y-92677263D01*
X20827263Y-92519951D01*
X20950862Y-92334972D01*
X21035998Y-92129434D01*
X21079400Y-91911236D01*
X21079400Y-91688764D01*
X21035998Y-91470566D01*
X20950862Y-91265028D01*
X20827263Y-91080049D01*
X20669951Y-90922737D01*
X20484972Y-90799138D01*
X20279434Y-90714002D01*
X20061236Y-90670600D01*
X19838764Y-90670600D01*
X19620566Y-90714002D01*
X19415028Y-90799138D01*
X19230049Y-90922737D01*
X19072737Y-91080049D01*
X18949138Y-91265028D01*
X18864002Y-91470566D01*
X18820600Y-91688764D01*
X17355600Y-91688764D01*
X17355600Y-89148764D01*
X18820600Y-89148764D01*
X18820600Y-89371236D01*
X18864002Y-89589434D01*
X18949138Y-89794972D01*
X19072737Y-89979951D01*
X19230049Y-90137263D01*
X19415028Y-90260862D01*
X19620566Y-90345998D01*
X19838764Y-90389400D01*
X20061236Y-90389400D01*
X20279434Y-90345998D01*
X20484972Y-90260862D01*
X20669951Y-90137263D01*
X20827263Y-89979951D01*
X20950862Y-89794972D01*
X21035998Y-89589434D01*
X21079400Y-89371236D01*
X21079400Y-89148764D01*
X21035998Y-88930566D01*
X20950862Y-88725028D01*
X20827263Y-88540049D01*
X20669951Y-88382737D01*
X20484972Y-88259138D01*
X20279434Y-88174002D01*
X20061236Y-88130600D01*
X19838764Y-88130600D01*
X19620566Y-88174002D01*
X19415028Y-88259138D01*
X19230049Y-88382737D01*
X19072737Y-88540049D01*
X18949138Y-88725028D01*
X18864002Y-88930566D01*
X18820600Y-89148764D01*
X17355600Y-89148764D01*
X17355600Y-86608764D01*
X18820600Y-86608764D01*
X18820600Y-86831236D01*
X18864002Y-87049434D01*
X18949138Y-87254972D01*
X19072737Y-87439951D01*
X19230049Y-87597263D01*
X19415028Y-87720862D01*
X19620566Y-87805998D01*
X19838764Y-87849400D01*
X20061236Y-87849400D01*
X20279434Y-87805998D01*
X20484972Y-87720862D01*
X20669951Y-87597263D01*
X20827263Y-87439951D01*
X20950862Y-87254972D01*
X21035998Y-87049434D01*
X21079400Y-86831236D01*
X21079400Y-86608764D01*
X21035998Y-86390566D01*
X20950862Y-86185028D01*
X20827263Y-86000049D01*
X20669951Y-85842737D01*
X20484972Y-85719138D01*
X20279434Y-85634002D01*
X20061236Y-85590600D01*
X19838764Y-85590600D01*
X19620566Y-85634002D01*
X19415028Y-85719138D01*
X19230049Y-85842737D01*
X19072737Y-86000049D01*
X18949138Y-86185028D01*
X18864002Y-86390566D01*
X18820600Y-86608764D01*
X17355600Y-86608764D01*
X17355600Y-84068764D01*
X18820600Y-84068764D01*
X18820600Y-84291236D01*
X18864002Y-84509434D01*
X18949138Y-84714972D01*
X19072737Y-84899951D01*
X19230049Y-85057263D01*
X19415028Y-85180862D01*
X19620566Y-85265998D01*
X19838764Y-85309400D01*
X20061236Y-85309400D01*
X20279434Y-85265998D01*
X20484972Y-85180862D01*
X20669951Y-85057263D01*
X20827263Y-84899951D01*
X20950862Y-84714972D01*
X21035998Y-84509434D01*
X21079400Y-84291236D01*
X21079400Y-84068764D01*
X21035998Y-83850566D01*
X20950862Y-83645028D01*
X20827263Y-83460049D01*
X20669951Y-83302737D01*
X20484972Y-83179138D01*
X20279434Y-83094002D01*
X20061236Y-83050600D01*
X19838764Y-83050600D01*
X19620566Y-83094002D01*
X19415028Y-83179138D01*
X19230049Y-83302737D01*
X19072737Y-83460049D01*
X18949138Y-83645028D01*
X18864002Y-83850566D01*
X18820600Y-84068764D01*
X17355600Y-84068764D01*
X17355600Y-81528764D01*
X18820600Y-81528764D01*
X18820600Y-81751236D01*
X18864002Y-81969434D01*
X18949138Y-82174972D01*
X19072737Y-82359951D01*
X19230049Y-82517263D01*
X19415028Y-82640862D01*
X19620566Y-82725998D01*
X19838764Y-82769400D01*
X20061236Y-82769400D01*
X20279434Y-82725998D01*
X20484972Y-82640862D01*
X20669951Y-82517263D01*
X20827263Y-82359951D01*
X20950862Y-82174972D01*
X21035998Y-81969434D01*
X21079400Y-81751236D01*
X21079400Y-81528764D01*
X21035998Y-81310566D01*
X20950862Y-81105028D01*
X20827263Y-80920049D01*
X20669951Y-80762737D01*
X20484972Y-80639138D01*
X20279434Y-80554002D01*
X20061236Y-80510600D01*
X19838764Y-80510600D01*
X19620566Y-80554002D01*
X19415028Y-80639138D01*
X19230049Y-80762737D01*
X19072737Y-80920049D01*
X18949138Y-81105028D01*
X18864002Y-81310566D01*
X18820600Y-81528764D01*
X17355600Y-81528764D01*
X17355600Y-78250000D01*
X18819249Y-78250000D01*
X18819249Y-79950000D01*
X18824644Y-80004772D01*
X18840620Y-80057439D01*
X18866564Y-80105977D01*
X18901479Y-80148521D01*
X18944023Y-80183436D01*
X18992561Y-80209380D01*
X19045228Y-80225356D01*
X19100000Y-80230751D01*
X20800000Y-80230751D01*
X20854772Y-80225356D01*
X20907439Y-80209380D01*
X20955977Y-80183436D01*
X20998521Y-80148521D01*
X21033436Y-80105977D01*
X21059380Y-80057439D01*
X21075356Y-80004772D01*
X21080751Y-79950000D01*
X21080751Y-79633400D01*
X27429059Y-79633400D01*
X31466600Y-83670942D01*
X31466601Y-89016600D01*
X31176186Y-89016600D01*
X31149999Y-89014021D01*
X31123812Y-89016600D01*
X31123805Y-89016600D01*
X31045435Y-89024319D01*
X30944889Y-89054819D01*
X30852225Y-89104349D01*
X30798106Y-89148764D01*
X30771005Y-89171005D01*
X30754309Y-89191349D01*
X27750391Y-92195268D01*
X27718482Y-92201615D01*
X27605230Y-92248525D01*
X27503307Y-92316628D01*
X27416628Y-92403307D01*
X27348525Y-92505230D01*
X27301615Y-92618482D01*
X27277700Y-92738709D01*
X27277700Y-92861291D01*
X27301615Y-92981518D01*
X27348525Y-93094770D01*
X27416628Y-93196693D01*
X27503307Y-93283372D01*
X27605230Y-93351475D01*
X27718482Y-93398385D01*
X27838709Y-93422300D01*
X27961291Y-93422300D01*
X28081518Y-93398385D01*
X28194770Y-93351475D01*
X28296693Y-93283372D01*
X28383372Y-93196693D01*
X28451475Y-93094770D01*
X28498385Y-92981518D01*
X28504732Y-92949609D01*
X29915632Y-91538709D01*
X37477700Y-91538709D01*
X37477700Y-91661291D01*
X37501615Y-91781518D01*
X37548525Y-91894770D01*
X37616628Y-91996693D01*
X37703307Y-92083372D01*
X37805230Y-92151475D01*
X37918482Y-92198385D01*
X38038709Y-92222300D01*
X38147563Y-92222300D01*
X38455823Y-92530560D01*
X38468543Y-92546059D01*
X38484041Y-92558778D01*
X38484046Y-92558783D01*
X38505047Y-92576018D01*
X38530425Y-92596845D01*
X38591833Y-92629668D01*
X38601026Y-92634582D01*
X38677632Y-92657820D01*
X38684905Y-92658536D01*
X38737341Y-92663701D01*
X38737348Y-92663701D01*
X38757301Y-92665666D01*
X38777254Y-92663701D01*
X40588965Y-92663701D01*
X40643600Y-92718337D01*
X40643601Y-94180038D01*
X40641635Y-94200000D01*
X40649481Y-94279668D01*
X40672719Y-94356274D01*
X40672720Y-94356275D01*
X40710457Y-94426876D01*
X40721615Y-94440472D01*
X40748518Y-94473254D01*
X40748524Y-94473260D01*
X40761243Y-94488758D01*
X40776741Y-94501477D01*
X40898518Y-94623254D01*
X40911242Y-94638758D01*
X40973124Y-94689544D01*
X41043725Y-94727281D01*
X41120331Y-94750519D01*
X41128335Y-94751307D01*
X41180040Y-94756400D01*
X41180046Y-94756400D01*
X41199999Y-94758365D01*
X41219952Y-94756400D01*
X45230047Y-94756400D01*
X45250000Y-94758365D01*
X45269953Y-94756400D01*
X45269960Y-94756400D01*
X45329668Y-94750519D01*
X45406275Y-94727281D01*
X45476876Y-94689544D01*
X45538758Y-94638758D01*
X45551482Y-94623254D01*
X45667408Y-94507328D01*
X47657592Y-94507328D01*
X47702700Y-94552436D01*
X47702700Y-94661291D01*
X47726615Y-94781518D01*
X47773525Y-94894770D01*
X47841628Y-94996693D01*
X47928307Y-95083372D01*
X48030230Y-95151475D01*
X48143482Y-95198385D01*
X48263709Y-95222300D01*
X48386291Y-95222300D01*
X48506518Y-95198385D01*
X48619770Y-95151475D01*
X48721693Y-95083372D01*
X48808372Y-94996693D01*
X48876475Y-94894770D01*
X48923385Y-94781518D01*
X48947300Y-94661291D01*
X48947300Y-94538709D01*
X48923385Y-94418482D01*
X48876475Y-94305230D01*
X48808372Y-94203307D01*
X48721693Y-94116628D01*
X48619770Y-94048525D01*
X48506518Y-94001615D01*
X48386291Y-93977700D01*
X48277436Y-93977700D01*
X48127410Y-93827674D01*
X48114686Y-93812170D01*
X48052804Y-93761384D01*
X47982203Y-93723647D01*
X47905596Y-93700409D01*
X47845888Y-93694528D01*
X47845881Y-93694528D01*
X47825928Y-93692563D01*
X47805975Y-93694528D01*
X45519024Y-93694528D01*
X45499071Y-93692563D01*
X45479118Y-93694528D01*
X45479112Y-93694528D01*
X45427407Y-93699621D01*
X45419403Y-93700409D01*
X45342797Y-93723647D01*
X45272196Y-93761384D01*
X45210314Y-93812170D01*
X45197590Y-93827674D01*
X45081664Y-93943600D01*
X42092919Y-93943600D01*
X42155682Y-93880837D01*
X42223785Y-93778914D01*
X42270695Y-93665662D01*
X42292429Y-93556400D01*
X42367379Y-93556400D01*
X42379074Y-93562651D01*
X42462863Y-93588068D01*
X42528170Y-93594500D01*
X42528180Y-93594500D01*
X42550000Y-93596649D01*
X42571820Y-93594500D01*
X42871830Y-93594500D01*
X42937137Y-93588068D01*
X43020926Y-93562651D01*
X43032621Y-93556400D01*
X44001335Y-93556400D01*
X44078307Y-93633372D01*
X44180230Y-93701475D01*
X44293482Y-93748385D01*
X44413709Y-93772300D01*
X44536291Y-93772300D01*
X44656518Y-93748385D01*
X44769770Y-93701475D01*
X44871693Y-93633372D01*
X44958372Y-93546693D01*
X45026475Y-93444770D01*
X45073385Y-93331518D01*
X45097300Y-93211291D01*
X45097300Y-93088709D01*
X45073385Y-92968482D01*
X45026475Y-92855230D01*
X44958372Y-92753307D01*
X44871693Y-92666628D01*
X44769770Y-92598525D01*
X44656518Y-92551615D01*
X44536291Y-92527700D01*
X44413709Y-92527700D01*
X44293482Y-92551615D01*
X44180230Y-92598525D01*
X44078307Y-92666628D01*
X44001335Y-92743600D01*
X43032621Y-92743600D01*
X43020926Y-92737349D01*
X42937137Y-92711932D01*
X42871830Y-92705500D01*
X42734118Y-92705500D01*
X41544500Y-91515883D01*
X41544500Y-84959117D01*
X42056318Y-84447300D01*
X42111291Y-84447300D01*
X42231518Y-84423385D01*
X42344770Y-84376475D01*
X42446693Y-84308372D01*
X42533372Y-84221693D01*
X42601475Y-84119770D01*
X42648385Y-84006518D01*
X42672300Y-83886291D01*
X42672300Y-83763709D01*
X42648385Y-83643482D01*
X42601475Y-83530230D01*
X42533372Y-83428307D01*
X42446693Y-83341628D01*
X42344770Y-83273525D01*
X42231518Y-83226615D01*
X42111291Y-83202700D01*
X41988709Y-83202700D01*
X41868482Y-83226615D01*
X41755230Y-83273525D01*
X41653307Y-83341628D01*
X41566628Y-83428307D01*
X41498525Y-83530230D01*
X41451615Y-83643482D01*
X41427700Y-83763709D01*
X41427700Y-83818682D01*
X40801125Y-84445258D01*
X40784172Y-84459171D01*
X40770259Y-84476124D01*
X40770255Y-84476128D01*
X40728624Y-84526855D01*
X40687349Y-84604075D01*
X40661933Y-84687863D01*
X40653351Y-84775000D01*
X40655501Y-84796830D01*
X40655500Y-91678180D01*
X40653351Y-91700000D01*
X40655500Y-91721820D01*
X40655500Y-91721829D01*
X40661932Y-91787136D01*
X40673987Y-91826875D01*
X40681275Y-91850901D01*
X38925638Y-91850901D01*
X38722300Y-91647563D01*
X38722300Y-91538709D01*
X38698385Y-91418482D01*
X38651475Y-91305230D01*
X38583372Y-91203307D01*
X38496693Y-91116628D01*
X38394770Y-91048525D01*
X38281518Y-91001615D01*
X38161291Y-90977700D01*
X38038709Y-90977700D01*
X37918482Y-91001615D01*
X37805230Y-91048525D01*
X37703307Y-91116628D01*
X37616628Y-91203307D01*
X37548525Y-91305230D01*
X37501615Y-91418482D01*
X37477700Y-91538709D01*
X29915632Y-91538709D01*
X31370942Y-90083400D01*
X31973806Y-90083400D01*
X32000000Y-90085980D01*
X32026195Y-90083400D01*
X34878179Y-90083400D01*
X34905230Y-90101475D01*
X35018482Y-90148385D01*
X35138709Y-90172300D01*
X35261291Y-90172300D01*
X35381518Y-90148385D01*
X35494770Y-90101475D01*
X35596693Y-90033372D01*
X35683372Y-89946693D01*
X35751475Y-89844770D01*
X35798385Y-89731518D01*
X35822300Y-89611291D01*
X35822300Y-89488709D01*
X35798385Y-89368482D01*
X35751475Y-89255230D01*
X35683372Y-89153307D01*
X35596693Y-89066628D01*
X35494770Y-88998525D01*
X35381518Y-88951615D01*
X35261291Y-88927700D01*
X35138709Y-88927700D01*
X35018482Y-88951615D01*
X34905230Y-88998525D01*
X34878179Y-89016600D01*
X32533400Y-89016600D01*
X32533400Y-83476187D01*
X32535979Y-83450000D01*
X32533400Y-83423813D01*
X32533400Y-83423805D01*
X32525681Y-83345435D01*
X32495181Y-83244889D01*
X32445651Y-83152225D01*
X32410687Y-83109621D01*
X32395693Y-83091351D01*
X32395691Y-83091349D01*
X32378995Y-83071005D01*
X32358651Y-83054309D01*
X28045696Y-78741355D01*
X28028995Y-78721005D01*
X27947775Y-78654349D01*
X27855111Y-78604819D01*
X27754565Y-78574319D01*
X27676195Y-78566600D01*
X27676187Y-78566600D01*
X27650000Y-78564021D01*
X27623813Y-78566600D01*
X21080751Y-78566600D01*
X21080751Y-78250000D01*
X21075356Y-78195228D01*
X21059380Y-78142561D01*
X21033436Y-78094023D01*
X20998521Y-78051479D01*
X20955977Y-78016564D01*
X20907439Y-77990620D01*
X20854772Y-77974644D01*
X20800000Y-77969249D01*
X19100000Y-77969249D01*
X19045228Y-77974644D01*
X18992561Y-77990620D01*
X18944023Y-78016564D01*
X18901479Y-78051479D01*
X18866564Y-78094023D01*
X18840620Y-78142561D01*
X18824644Y-78195228D01*
X18819249Y-78250000D01*
X17355600Y-78250000D01*
X17355600Y-76355600D01*
X54644400Y-76355600D01*
X54644401Y-140644400D01*
G37*
X54644401Y-140644400D02*
X17355600Y-140644400D01*
X17355600Y-117700000D01*
X48919249Y-117700000D01*
X48919249Y-119400000D01*
X48924644Y-119454772D01*
X48940620Y-119507439D01*
X48966564Y-119555977D01*
X49001479Y-119598521D01*
X49044023Y-119633436D01*
X49092561Y-119659380D01*
X49145228Y-119675356D01*
X49200000Y-119680751D01*
X50900000Y-119680751D01*
X50954772Y-119675356D01*
X51007439Y-119659380D01*
X51055977Y-119633436D01*
X51098521Y-119598521D01*
X51133436Y-119555977D01*
X51159380Y-119507439D01*
X51175356Y-119454772D01*
X51180751Y-119400000D01*
X51180751Y-117700000D01*
X51175356Y-117645228D01*
X51159380Y-117592561D01*
X51133436Y-117544023D01*
X51098521Y-117501479D01*
X51055977Y-117466564D01*
X51007439Y-117440620D01*
X50954772Y-117424644D01*
X50900000Y-117419249D01*
X49200000Y-117419249D01*
X49145228Y-117424644D01*
X49092561Y-117440620D01*
X49044023Y-117466564D01*
X49001479Y-117501479D01*
X48966564Y-117544023D01*
X48940620Y-117592561D01*
X48924644Y-117645228D01*
X48919249Y-117700000D01*
X17355600Y-117700000D01*
X17355600Y-109900000D01*
X48969249Y-109900000D01*
X48969249Y-111600000D01*
X48974644Y-111654772D01*
X48990620Y-111707439D01*
X49016564Y-111755977D01*
X49051479Y-111798521D01*
X49094023Y-111833436D01*
X49142561Y-111859380D01*
X49195228Y-111875356D01*
X49250000Y-111880751D01*
X50950000Y-111880751D01*
X51004772Y-111875356D01*
X51057439Y-111859380D01*
X51105977Y-111833436D01*
X51148521Y-111798521D01*
X51183436Y-111755977D01*
X51209380Y-111707439D01*
X51225356Y-111654772D01*
X51230751Y-111600000D01*
X51230751Y-109900000D01*
X51225356Y-109845228D01*
X51209380Y-109792561D01*
X51183436Y-109744023D01*
X51148521Y-109701479D01*
X51105977Y-109666564D01*
X51057439Y-109640620D01*
X51004772Y-109624644D01*
X50950000Y-109619249D01*
X49250000Y-109619249D01*
X49195228Y-109624644D01*
X49142561Y-109640620D01*
X49094023Y-109666564D01*
X49051479Y-109701479D01*
X49016564Y-109744023D01*
X48990620Y-109792561D01*
X48974644Y-109845228D01*
X48969249Y-109900000D01*
X17355600Y-109900000D01*
X17355600Y-102888709D01*
X37677700Y-102888709D01*
X37677700Y-103011291D01*
X37701615Y-103131518D01*
X37748525Y-103244770D01*
X37816628Y-103346693D01*
X37903307Y-103433372D01*
X38005230Y-103501475D01*
X38118482Y-103548385D01*
X38238709Y-103572300D01*
X38361291Y-103572300D01*
X38481518Y-103548385D01*
X38594770Y-103501475D01*
X38621821Y-103483400D01*
X43203349Y-103483400D01*
X43305230Y-103551475D01*
X43418482Y-103598385D01*
X43538709Y-103622300D01*
X43661291Y-103622300D01*
X43781518Y-103598385D01*
X43894770Y-103551475D01*
X43996693Y-103483372D01*
X44083372Y-103396693D01*
X44151475Y-103294770D01*
X44198385Y-103181518D01*
X44222300Y-103061291D01*
X44222300Y-102938709D01*
X44198385Y-102818482D01*
X44151475Y-102705230D01*
X44083372Y-102603307D01*
X43996693Y-102516628D01*
X43894770Y-102448525D01*
X43781518Y-102401615D01*
X43661291Y-102377700D01*
X43538709Y-102377700D01*
X43418482Y-102401615D01*
X43382305Y-102416600D01*
X38621821Y-102416600D01*
X38594770Y-102398525D01*
X38481518Y-102351615D01*
X38361291Y-102327700D01*
X38238709Y-102327700D01*
X38118482Y-102351615D01*
X38005230Y-102398525D01*
X37903307Y-102466628D01*
X37816628Y-102553307D01*
X37748525Y-102655230D01*
X37701615Y-102768482D01*
X37677700Y-102888709D01*
X17355600Y-102888709D01*
X17355600Y-94228764D01*
X18820600Y-94228764D01*
X18820600Y-94451236D01*
X18864002Y-94669434D01*
X18949138Y-94874972D01*
X19072737Y-95059951D01*
X19230049Y-95217263D01*
X19415028Y-95340862D01*
X19620566Y-95425998D01*
X19838764Y-95469400D01*
X20061236Y-95469400D01*
X20279434Y-95425998D01*
X20484972Y-95340862D01*
X20669951Y-95217263D01*
X20827263Y-95059951D01*
X20950862Y-94874972D01*
X21035998Y-94669434D01*
X21079400Y-94451236D01*
X21079400Y-94228764D01*
X21035998Y-94010566D01*
X20950862Y-93805028D01*
X20827263Y-93620049D01*
X20669951Y-93462737D01*
X20484972Y-93339138D01*
X20279434Y-93254002D01*
X20061236Y-93210600D01*
X19838764Y-93210600D01*
X19620566Y-93254002D01*
X19415028Y-93339138D01*
X19230049Y-93462737D01*
X19072737Y-93620049D01*
X18949138Y-93805028D01*
X18864002Y-94010566D01*
X18820600Y-94228764D01*
X17355600Y-94228764D01*
X17355600Y-91688764D01*
X18820600Y-91688764D01*
X18820600Y-91911236D01*
X18864002Y-92129434D01*
X18949138Y-92334972D01*
X19072737Y-92519951D01*
X19230049Y-92677263D01*
X19415028Y-92800862D01*
X19620566Y-92885998D01*
X19838764Y-92929400D01*
X20061236Y-92929400D01*
X20279434Y-92885998D01*
X20484972Y-92800862D01*
X20669951Y-92677263D01*
X20827263Y-92519951D01*
X20950862Y-92334972D01*
X21035998Y-92129434D01*
X21079400Y-91911236D01*
X21079400Y-91688764D01*
X21035998Y-91470566D01*
X20950862Y-91265028D01*
X20827263Y-91080049D01*
X20669951Y-90922737D01*
X20484972Y-90799138D01*
X20279434Y-90714002D01*
X20061236Y-90670600D01*
X19838764Y-90670600D01*
X19620566Y-90714002D01*
X19415028Y-90799138D01*
X19230049Y-90922737D01*
X19072737Y-91080049D01*
X18949138Y-91265028D01*
X18864002Y-91470566D01*
X18820600Y-91688764D01*
X17355600Y-91688764D01*
X17355600Y-89148764D01*
X18820600Y-89148764D01*
X18820600Y-89371236D01*
X18864002Y-89589434D01*
X18949138Y-89794972D01*
X19072737Y-89979951D01*
X19230049Y-90137263D01*
X19415028Y-90260862D01*
X19620566Y-90345998D01*
X19838764Y-90389400D01*
X20061236Y-90389400D01*
X20279434Y-90345998D01*
X20484972Y-90260862D01*
X20669951Y-90137263D01*
X20827263Y-89979951D01*
X20950862Y-89794972D01*
X21035998Y-89589434D01*
X21079400Y-89371236D01*
X21079400Y-89148764D01*
X21035998Y-88930566D01*
X20950862Y-88725028D01*
X20827263Y-88540049D01*
X20669951Y-88382737D01*
X20484972Y-88259138D01*
X20279434Y-88174002D01*
X20061236Y-88130600D01*
X19838764Y-88130600D01*
X19620566Y-88174002D01*
X19415028Y-88259138D01*
X19230049Y-88382737D01*
X19072737Y-88540049D01*
X18949138Y-88725028D01*
X18864002Y-88930566D01*
X18820600Y-89148764D01*
X17355600Y-89148764D01*
X17355600Y-86608764D01*
X18820600Y-86608764D01*
X18820600Y-86831236D01*
X18864002Y-87049434D01*
X18949138Y-87254972D01*
X19072737Y-87439951D01*
X19230049Y-87597263D01*
X19415028Y-87720862D01*
X19620566Y-87805998D01*
X19838764Y-87849400D01*
X20061236Y-87849400D01*
X20279434Y-87805998D01*
X20484972Y-87720862D01*
X20669951Y-87597263D01*
X20827263Y-87439951D01*
X20950862Y-87254972D01*
X21035998Y-87049434D01*
X21079400Y-86831236D01*
X21079400Y-86608764D01*
X21035998Y-86390566D01*
X20950862Y-86185028D01*
X20827263Y-86000049D01*
X20669951Y-85842737D01*
X20484972Y-85719138D01*
X20279434Y-85634002D01*
X20061236Y-85590600D01*
X19838764Y-85590600D01*
X19620566Y-85634002D01*
X19415028Y-85719138D01*
X19230049Y-85842737D01*
X19072737Y-86000049D01*
X18949138Y-86185028D01*
X18864002Y-86390566D01*
X18820600Y-86608764D01*
X17355600Y-86608764D01*
X17355600Y-84068764D01*
X18820600Y-84068764D01*
X18820600Y-84291236D01*
X18864002Y-84509434D01*
X18949138Y-84714972D01*
X19072737Y-84899951D01*
X19230049Y-85057263D01*
X19415028Y-85180862D01*
X19620566Y-85265998D01*
X19838764Y-85309400D01*
X20061236Y-85309400D01*
X20279434Y-85265998D01*
X20484972Y-85180862D01*
X20669951Y-85057263D01*
X20827263Y-84899951D01*
X20950862Y-84714972D01*
X21035998Y-84509434D01*
X21079400Y-84291236D01*
X21079400Y-84068764D01*
X21035998Y-83850566D01*
X20950862Y-83645028D01*
X20827263Y-83460049D01*
X20669951Y-83302737D01*
X20484972Y-83179138D01*
X20279434Y-83094002D01*
X20061236Y-83050600D01*
X19838764Y-83050600D01*
X19620566Y-83094002D01*
X19415028Y-83179138D01*
X19230049Y-83302737D01*
X19072737Y-83460049D01*
X18949138Y-83645028D01*
X18864002Y-83850566D01*
X18820600Y-84068764D01*
X17355600Y-84068764D01*
X17355600Y-81528764D01*
X18820600Y-81528764D01*
X18820600Y-81751236D01*
X18864002Y-81969434D01*
X18949138Y-82174972D01*
X19072737Y-82359951D01*
X19230049Y-82517263D01*
X19415028Y-82640862D01*
X19620566Y-82725998D01*
X19838764Y-82769400D01*
X20061236Y-82769400D01*
X20279434Y-82725998D01*
X20484972Y-82640862D01*
X20669951Y-82517263D01*
X20827263Y-82359951D01*
X20950862Y-82174972D01*
X21035998Y-81969434D01*
X21079400Y-81751236D01*
X21079400Y-81528764D01*
X21035998Y-81310566D01*
X20950862Y-81105028D01*
X20827263Y-80920049D01*
X20669951Y-80762737D01*
X20484972Y-80639138D01*
X20279434Y-80554002D01*
X20061236Y-80510600D01*
X19838764Y-80510600D01*
X19620566Y-80554002D01*
X19415028Y-80639138D01*
X19230049Y-80762737D01*
X19072737Y-80920049D01*
X18949138Y-81105028D01*
X18864002Y-81310566D01*
X18820600Y-81528764D01*
X17355600Y-81528764D01*
X17355600Y-78250000D01*
X18819249Y-78250000D01*
X18819249Y-79950000D01*
X18824644Y-80004772D01*
X18840620Y-80057439D01*
X18866564Y-80105977D01*
X18901479Y-80148521D01*
X18944023Y-80183436D01*
X18992561Y-80209380D01*
X19045228Y-80225356D01*
X19100000Y-80230751D01*
X20800000Y-80230751D01*
X20854772Y-80225356D01*
X20907439Y-80209380D01*
X20955977Y-80183436D01*
X20998521Y-80148521D01*
X21033436Y-80105977D01*
X21059380Y-80057439D01*
X21075356Y-80004772D01*
X21080751Y-79950000D01*
X21080751Y-79633400D01*
X27429059Y-79633400D01*
X31466600Y-83670942D01*
X31466601Y-89016600D01*
X31176186Y-89016600D01*
X31149999Y-89014021D01*
X31123812Y-89016600D01*
X31123805Y-89016600D01*
X31045435Y-89024319D01*
X30944889Y-89054819D01*
X30852225Y-89104349D01*
X30798106Y-89148764D01*
X30771005Y-89171005D01*
X30754309Y-89191349D01*
X27750391Y-92195268D01*
X27718482Y-92201615D01*
X27605230Y-92248525D01*
X27503307Y-92316628D01*
X27416628Y-92403307D01*
X27348525Y-92505230D01*
X27301615Y-92618482D01*
X27277700Y-92738709D01*
X27277700Y-92861291D01*
X27301615Y-92981518D01*
X27348525Y-93094770D01*
X27416628Y-93196693D01*
X27503307Y-93283372D01*
X27605230Y-93351475D01*
X27718482Y-93398385D01*
X27838709Y-93422300D01*
X27961291Y-93422300D01*
X28081518Y-93398385D01*
X28194770Y-93351475D01*
X28296693Y-93283372D01*
X28383372Y-93196693D01*
X28451475Y-93094770D01*
X28498385Y-92981518D01*
X28504732Y-92949609D01*
X29915632Y-91538709D01*
X37477700Y-91538709D01*
X37477700Y-91661291D01*
X37501615Y-91781518D01*
X37548525Y-91894770D01*
X37616628Y-91996693D01*
X37703307Y-92083372D01*
X37805230Y-92151475D01*
X37918482Y-92198385D01*
X38038709Y-92222300D01*
X38147563Y-92222300D01*
X38455823Y-92530560D01*
X38468543Y-92546059D01*
X38484041Y-92558778D01*
X38484046Y-92558783D01*
X38505047Y-92576018D01*
X38530425Y-92596845D01*
X38591833Y-92629668D01*
X38601026Y-92634582D01*
X38677632Y-92657820D01*
X38684905Y-92658536D01*
X38737341Y-92663701D01*
X38737348Y-92663701D01*
X38757301Y-92665666D01*
X38777254Y-92663701D01*
X40588965Y-92663701D01*
X40643600Y-92718337D01*
X40643601Y-94180038D01*
X40641635Y-94200000D01*
X40649481Y-94279668D01*
X40672719Y-94356274D01*
X40672720Y-94356275D01*
X40710457Y-94426876D01*
X40721615Y-94440472D01*
X40748518Y-94473254D01*
X40748524Y-94473260D01*
X40761243Y-94488758D01*
X40776741Y-94501477D01*
X40898518Y-94623254D01*
X40911242Y-94638758D01*
X40973124Y-94689544D01*
X41043725Y-94727281D01*
X41120331Y-94750519D01*
X41128335Y-94751307D01*
X41180040Y-94756400D01*
X41180046Y-94756400D01*
X41199999Y-94758365D01*
X41219952Y-94756400D01*
X45230047Y-94756400D01*
X45250000Y-94758365D01*
X45269953Y-94756400D01*
X45269960Y-94756400D01*
X45329668Y-94750519D01*
X45406275Y-94727281D01*
X45476876Y-94689544D01*
X45538758Y-94638758D01*
X45551482Y-94623254D01*
X45667408Y-94507328D01*
X47657592Y-94507328D01*
X47702700Y-94552436D01*
X47702700Y-94661291D01*
X47726615Y-94781518D01*
X47773525Y-94894770D01*
X47841628Y-94996693D01*
X47928307Y-95083372D01*
X48030230Y-95151475D01*
X48143482Y-95198385D01*
X48263709Y-95222300D01*
X48386291Y-95222300D01*
X48506518Y-95198385D01*
X48619770Y-95151475D01*
X48721693Y-95083372D01*
X48808372Y-94996693D01*
X48876475Y-94894770D01*
X48923385Y-94781518D01*
X48947300Y-94661291D01*
X48947300Y-94538709D01*
X48923385Y-94418482D01*
X48876475Y-94305230D01*
X48808372Y-94203307D01*
X48721693Y-94116628D01*
X48619770Y-94048525D01*
X48506518Y-94001615D01*
X48386291Y-93977700D01*
X48277436Y-93977700D01*
X48127410Y-93827674D01*
X48114686Y-93812170D01*
X48052804Y-93761384D01*
X47982203Y-93723647D01*
X47905596Y-93700409D01*
X47845888Y-93694528D01*
X47845881Y-93694528D01*
X47825928Y-93692563D01*
X47805975Y-93694528D01*
X45519024Y-93694528D01*
X45499071Y-93692563D01*
X45479118Y-93694528D01*
X45479112Y-93694528D01*
X45427407Y-93699621D01*
X45419403Y-93700409D01*
X45342797Y-93723647D01*
X45272196Y-93761384D01*
X45210314Y-93812170D01*
X45197590Y-93827674D01*
X45081664Y-93943600D01*
X42092919Y-93943600D01*
X42155682Y-93880837D01*
X42223785Y-93778914D01*
X42270695Y-93665662D01*
X42292429Y-93556400D01*
X42367379Y-93556400D01*
X42379074Y-93562651D01*
X42462863Y-93588068D01*
X42528170Y-93594500D01*
X42528180Y-93594500D01*
X42550000Y-93596649D01*
X42571820Y-93594500D01*
X42871830Y-93594500D01*
X42937137Y-93588068D01*
X43020926Y-93562651D01*
X43032621Y-93556400D01*
X44001335Y-93556400D01*
X44078307Y-93633372D01*
X44180230Y-93701475D01*
X44293482Y-93748385D01*
X44413709Y-93772300D01*
X44536291Y-93772300D01*
X44656518Y-93748385D01*
X44769770Y-93701475D01*
X44871693Y-93633372D01*
X44958372Y-93546693D01*
X45026475Y-93444770D01*
X45073385Y-93331518D01*
X45097300Y-93211291D01*
X45097300Y-93088709D01*
X45073385Y-92968482D01*
X45026475Y-92855230D01*
X44958372Y-92753307D01*
X44871693Y-92666628D01*
X44769770Y-92598525D01*
X44656518Y-92551615D01*
X44536291Y-92527700D01*
X44413709Y-92527700D01*
X44293482Y-92551615D01*
X44180230Y-92598525D01*
X44078307Y-92666628D01*
X44001335Y-92743600D01*
X43032621Y-92743600D01*
X43020926Y-92737349D01*
X42937137Y-92711932D01*
X42871830Y-92705500D01*
X42734118Y-92705500D01*
X41544500Y-91515883D01*
X41544500Y-84959117D01*
X42056318Y-84447300D01*
X42111291Y-84447300D01*
X42231518Y-84423385D01*
X42344770Y-84376475D01*
X42446693Y-84308372D01*
X42533372Y-84221693D01*
X42601475Y-84119770D01*
X42648385Y-84006518D01*
X42672300Y-83886291D01*
X42672300Y-83763709D01*
X42648385Y-83643482D01*
X42601475Y-83530230D01*
X42533372Y-83428307D01*
X42446693Y-83341628D01*
X42344770Y-83273525D01*
X42231518Y-83226615D01*
X42111291Y-83202700D01*
X41988709Y-83202700D01*
X41868482Y-83226615D01*
X41755230Y-83273525D01*
X41653307Y-83341628D01*
X41566628Y-83428307D01*
X41498525Y-83530230D01*
X41451615Y-83643482D01*
X41427700Y-83763709D01*
X41427700Y-83818682D01*
X40801125Y-84445258D01*
X40784172Y-84459171D01*
X40770259Y-84476124D01*
X40770255Y-84476128D01*
X40728624Y-84526855D01*
X40687349Y-84604075D01*
X40661933Y-84687863D01*
X40653351Y-84775000D01*
X40655501Y-84796830D01*
X40655500Y-91678180D01*
X40653351Y-91700000D01*
X40655500Y-91721820D01*
X40655500Y-91721829D01*
X40661932Y-91787136D01*
X40673987Y-91826875D01*
X40681275Y-91850901D01*
X38925638Y-91850901D01*
X38722300Y-91647563D01*
X38722300Y-91538709D01*
X38698385Y-91418482D01*
X38651475Y-91305230D01*
X38583372Y-91203307D01*
X38496693Y-91116628D01*
X38394770Y-91048525D01*
X38281518Y-91001615D01*
X38161291Y-90977700D01*
X38038709Y-90977700D01*
X37918482Y-91001615D01*
X37805230Y-91048525D01*
X37703307Y-91116628D01*
X37616628Y-91203307D01*
X37548525Y-91305230D01*
X37501615Y-91418482D01*
X37477700Y-91538709D01*
X29915632Y-91538709D01*
X31370942Y-90083400D01*
X31973806Y-90083400D01*
X32000000Y-90085980D01*
X32026195Y-90083400D01*
X34878179Y-90083400D01*
X34905230Y-90101475D01*
X35018482Y-90148385D01*
X35138709Y-90172300D01*
X35261291Y-90172300D01*
X35381518Y-90148385D01*
X35494770Y-90101475D01*
X35596693Y-90033372D01*
X35683372Y-89946693D01*
X35751475Y-89844770D01*
X35798385Y-89731518D01*
X35822300Y-89611291D01*
X35822300Y-89488709D01*
X35798385Y-89368482D01*
X35751475Y-89255230D01*
X35683372Y-89153307D01*
X35596693Y-89066628D01*
X35494770Y-88998525D01*
X35381518Y-88951615D01*
X35261291Y-88927700D01*
X35138709Y-88927700D01*
X35018482Y-88951615D01*
X34905230Y-88998525D01*
X34878179Y-89016600D01*
X32533400Y-89016600D01*
X32533400Y-83476187D01*
X32535979Y-83450000D01*
X32533400Y-83423813D01*
X32533400Y-83423805D01*
X32525681Y-83345435D01*
X32495181Y-83244889D01*
X32445651Y-83152225D01*
X32410687Y-83109621D01*
X32395693Y-83091351D01*
X32395691Y-83091349D01*
X32378995Y-83071005D01*
X32358651Y-83054309D01*
X28045696Y-78741355D01*
X28028995Y-78721005D01*
X27947775Y-78654349D01*
X27855111Y-78604819D01*
X27754565Y-78574319D01*
X27676195Y-78566600D01*
X27676187Y-78566600D01*
X27650000Y-78564021D01*
X27623813Y-78566600D01*
X21080751Y-78566600D01*
X21080751Y-78250000D01*
X21075356Y-78195228D01*
X21059380Y-78142561D01*
X21033436Y-78094023D01*
X20998521Y-78051479D01*
X20955977Y-78016564D01*
X20907439Y-77990620D01*
X20854772Y-77974644D01*
X20800000Y-77969249D01*
X19100000Y-77969249D01*
X19045228Y-77974644D01*
X18992561Y-77990620D01*
X18944023Y-78016564D01*
X18901479Y-78051479D01*
X18866564Y-78094023D01*
X18840620Y-78142561D01*
X18824644Y-78195228D01*
X18819249Y-78250000D01*
X17355600Y-78250000D01*
X17355600Y-76355600D01*
X54644400Y-76355600D01*
X54644401Y-140644400D01*
M02*
