M48
; DRILL file {KiCad 5.1.5-52549c5~84~ubuntu19.10.1} date Fri 20 Dec 2019 12:40:49 AM EST
; FORMAT={2:4/ absolute / inch / keep zeros}
; #@! TF.CreationDate,2019-12-20T00:40:49-05:00
; #@! TF.GenerationSoftware,Kicad,Pcbnew,5.1.5-52549c5~84~ubuntu19.10.1
; #@! TF.FileFunction,Plated,1,2,PTH
FMAT,2
INCH
T1C0.0130
T2C0.0180
T3C0.0394
%
G90
G05
T1
X007874Y-040354
X007874Y-044291
X007874Y-046260
X007874Y-048228
X007874Y-050197
X007874Y-052165
X009843Y-036417
X009843Y-038386
X009843Y-040354
X009843Y-042323
X009843Y-044291
X009843Y-046260
X009843Y-048228
X009843Y-050197
X009843Y-052165
X009843Y-054134
X010984Y-036535
X011811Y-040354
X011811Y-042323
X011811Y-044291
X011811Y-046260
X011811Y-048228
X011811Y-050197
X011811Y-052165
X011811Y-054134
X011949Y-039016
X012264Y-038819
X012844Y-036496
X012906Y-038516
X013438Y-038083
X013780Y-040354
X013780Y-042323
X013780Y-044291
X013780Y-046260
X013780Y-048228
X013780Y-050197
X013780Y-052165
X013780Y-054134
X013858Y-035256
X014232Y-030846
X014281Y-032756
X014402Y-037158
X014567Y-039370
X014744Y-035565
X014894Y-036666
X015000Y-036063
X015049Y-034390
X015079Y-040531
X015354Y-038189
X015551Y-038976
X015571Y-050394
X015630Y-049980
X015748Y-052165
X015862Y-035659
X015866Y-035118
X015896Y-036585
X016406Y-036805
X016457Y-035118
X016467Y-035679
X016555Y-033002
X016949Y-039488
X016969Y-039843
X017126Y-038189
X017165Y-040551
X017205Y-032913
X017317Y-034955
X017323Y-041339
X017323Y-043307
X017323Y-045276
X017323Y-047244
X017323Y-049213
X017510Y-036673
X017598Y-036077
X017717Y-032480
X017717Y-052165
X017992Y-036077
X018199Y-036673
X018199Y-037303
X018262Y-034941
X018262Y-035315
X018346Y-038287
X018386Y-037874
X018393Y-035841
X019026Y-037244
X019685Y-034449
X019685Y-040354
X019685Y-042323
X019685Y-048228
X019685Y-050197
X019685Y-052165
X019754Y-036516
T2
X014810Y-053241
X018260Y-053241
T3
X019724Y-043602
X019705Y-046673
X007854Y-031142
X007854Y-032142
X007854Y-033142
X007854Y-034142
X007854Y-035142
X007854Y-036142
X007854Y-037142
X007854Y-038142
T0
M30
