%TF.GenerationSoftware,KiCad,Pcbnew,5.1.5-52549c5~84~ubuntu19.10.1*%
%TF.CreationDate,2019-12-20T00:10:48-05:00*%
%TF.ProjectId,test-mixer,74657374-2d6d-4697-9865-722e6b696361,rev?*%
%TF.SameCoordinates,Original*%
%TF.FileFunction,Soldermask,Top*%
%TF.FilePolarity,Negative*%
%FSLAX46Y46*%
G04 Gerber Fmt 4.6, Leading zero omitted, Abs format (unit mm)*
G04 Created by KiCad (PCBNEW 5.1.5-52549c5~84~ubuntu19.10.1) date 2019-12-20 00:10:48*
%MOMM*%
%LPD*%
G04 APERTURE LIST*
%ADD10C,0.100000*%
G04 APERTURE END LIST*
D10*
G36*
X47638800Y-141000800D02*
G01*
X45124200Y-141000800D01*
X45124200Y-136069200D01*
X47638800Y-136069200D01*
X47638800Y-141000800D01*
G37*
G36*
X42439957Y-130529934D02*
G01*
X42449536Y-130532840D01*
X42458359Y-130537556D01*
X42466095Y-130543905D01*
X42472444Y-130551641D01*
X42477003Y-130560171D01*
X42477004Y-130560174D01*
X42477160Y-130560466D01*
X42480308Y-130571353D01*
X42480413Y-130571965D01*
X42481029Y-130574095D01*
X43346216Y-135607906D01*
X43348857Y-135617508D01*
X43353320Y-135626410D01*
X43358900Y-135633584D01*
X43358900Y-135677372D01*
X43359634Y-135685977D01*
X43360129Y-135688857D01*
X43361029Y-135701333D01*
X43359292Y-135715236D01*
X43358900Y-135721534D01*
X43358900Y-135853301D01*
X43359876Y-135863211D01*
X43362767Y-135872741D01*
X43367461Y-135881523D01*
X43373779Y-135889221D01*
X43381477Y-135895539D01*
X43390259Y-135900233D01*
X43399789Y-135903124D01*
X43409699Y-135904100D01*
X43430743Y-135904100D01*
X43373779Y-135961064D01*
X43367461Y-135968762D01*
X43362767Y-135977544D01*
X43359876Y-135987074D01*
X43358900Y-135996984D01*
X43358900Y-136005700D01*
X43350184Y-136005700D01*
X43340274Y-136006676D01*
X43330744Y-136009567D01*
X43321962Y-136014261D01*
X43314264Y-136020579D01*
X43208679Y-136126164D01*
X43202361Y-136133862D01*
X43197667Y-136142644D01*
X43194776Y-136152174D01*
X43193800Y-136162084D01*
X43193800Y-141000800D01*
X40806200Y-141000800D01*
X40806200Y-136162084D01*
X40805224Y-136152174D01*
X40802333Y-136142644D01*
X40797639Y-136133862D01*
X40791321Y-136126164D01*
X40685736Y-136020579D01*
X40678038Y-136014261D01*
X40669256Y-136009567D01*
X40659726Y-136006676D01*
X40649816Y-136005700D01*
X40641100Y-136005700D01*
X40641100Y-135996984D01*
X40640124Y-135987074D01*
X40637233Y-135977544D01*
X40632539Y-135968762D01*
X40626221Y-135961064D01*
X40569257Y-135904100D01*
X40590301Y-135904100D01*
X40600211Y-135903124D01*
X40609741Y-135900233D01*
X40618523Y-135895539D01*
X40626221Y-135889221D01*
X40632539Y-135881523D01*
X40637233Y-135872741D01*
X40640124Y-135863211D01*
X40641100Y-135853301D01*
X40641100Y-135721335D01*
X40640155Y-135714964D01*
X40640425Y-135714937D01*
X40638921Y-135699666D01*
X40639815Y-135689184D01*
X40640366Y-135685977D01*
X40641100Y-135677372D01*
X40641100Y-135633441D01*
X40645957Y-135627523D01*
X40650651Y-135618741D01*
X40653784Y-135607906D01*
X41519027Y-130573765D01*
X41522343Y-130561708D01*
X41524568Y-130557271D01*
X41526830Y-130552759D01*
X41532974Y-130544861D01*
X41532976Y-130544858D01*
X41540540Y-130538313D01*
X41540541Y-130538312D01*
X41549240Y-130533366D01*
X41558736Y-130530212D01*
X41570000Y-130528954D01*
X41570625Y-130528954D01*
X41572828Y-130528708D01*
X42427507Y-130528708D01*
X42439957Y-130529934D01*
G37*
G36*
X38875800Y-141000800D02*
G01*
X36361200Y-141000800D01*
X36361200Y-136069200D01*
X38875800Y-136069200D01*
X38875800Y-141000800D01*
G37*
G36*
X21481521Y-135412639D02*
G01*
X21781947Y-135537080D01*
X22052324Y-135717740D01*
X22282260Y-135947676D01*
X22462920Y-136218053D01*
X22587361Y-136518479D01*
X22650800Y-136837410D01*
X22650800Y-137162590D01*
X22587361Y-137481521D01*
X22462920Y-137781947D01*
X22282260Y-138052324D01*
X22052324Y-138282260D01*
X21781947Y-138462920D01*
X21481521Y-138587361D01*
X21162590Y-138650800D01*
X20837410Y-138650800D01*
X20518479Y-138587361D01*
X20218053Y-138462920D01*
X19947676Y-138282260D01*
X19717740Y-138052324D01*
X19537080Y-137781947D01*
X19412639Y-137481521D01*
X19349200Y-137162590D01*
X19349200Y-136837410D01*
X19412639Y-136518479D01*
X19537080Y-136218053D01*
X19717740Y-135947676D01*
X19947676Y-135717740D01*
X20218053Y-135537080D01*
X20518479Y-135412639D01*
X20837410Y-135349200D01*
X21162590Y-135349200D01*
X21481521Y-135412639D01*
G37*
G36*
X51481521Y-135412639D02*
G01*
X51781947Y-135537080D01*
X52052324Y-135717740D01*
X52282260Y-135947676D01*
X52462920Y-136218053D01*
X52587361Y-136518479D01*
X52650800Y-136837410D01*
X52650800Y-137162590D01*
X52587361Y-137481521D01*
X52462920Y-137781947D01*
X52282260Y-138052324D01*
X52052324Y-138282260D01*
X51781947Y-138462920D01*
X51481521Y-138587361D01*
X51162590Y-138650800D01*
X50837410Y-138650800D01*
X50518479Y-138587361D01*
X50218053Y-138462920D01*
X49947676Y-138282260D01*
X49717740Y-138052324D01*
X49537080Y-137781947D01*
X49412639Y-137481521D01*
X49349200Y-137162590D01*
X49349200Y-136837410D01*
X49412639Y-136518479D01*
X49537080Y-136218053D01*
X49717740Y-135947676D01*
X49947676Y-135717740D01*
X50218053Y-135537080D01*
X50518479Y-135412639D01*
X50837410Y-135349200D01*
X51162590Y-135349200D01*
X51481521Y-135412639D01*
G37*
G36*
X46537088Y-134718098D02*
G01*
X46634157Y-134758305D01*
X46634160Y-134758307D01*
X46721523Y-134816681D01*
X46795819Y-134890977D01*
X46854193Y-134978340D01*
X46854195Y-134978343D01*
X46894402Y-135075412D01*
X46914900Y-135178464D01*
X46914900Y-135283536D01*
X46894402Y-135386588D01*
X46854195Y-135483657D01*
X46854193Y-135483660D01*
X46795819Y-135571023D01*
X46721523Y-135645319D01*
X46655874Y-135689184D01*
X46634157Y-135703695D01*
X46537088Y-135743902D01*
X46434036Y-135764400D01*
X46328964Y-135764400D01*
X46225912Y-135743902D01*
X46128843Y-135703695D01*
X46107126Y-135689184D01*
X46041477Y-135645319D01*
X45967181Y-135571023D01*
X45908807Y-135483660D01*
X45908805Y-135483657D01*
X45868598Y-135386588D01*
X45848100Y-135283536D01*
X45848100Y-135178464D01*
X45868598Y-135075412D01*
X45908805Y-134978343D01*
X45908807Y-134978340D01*
X45967181Y-134890977D01*
X46041477Y-134816681D01*
X46128840Y-134758307D01*
X46128843Y-134758305D01*
X46225912Y-134718098D01*
X46328964Y-134697600D01*
X46434036Y-134697600D01*
X46537088Y-134718098D01*
G37*
G36*
X37774088Y-134718098D02*
G01*
X37871157Y-134758305D01*
X37871160Y-134758307D01*
X37958523Y-134816681D01*
X38032819Y-134890977D01*
X38091193Y-134978340D01*
X38091195Y-134978343D01*
X38131402Y-135075412D01*
X38151900Y-135178464D01*
X38151900Y-135283536D01*
X38131402Y-135386588D01*
X38091195Y-135483657D01*
X38091193Y-135483660D01*
X38032819Y-135571023D01*
X37958523Y-135645319D01*
X37892874Y-135689184D01*
X37871157Y-135703695D01*
X37774088Y-135743902D01*
X37671036Y-135764400D01*
X37565964Y-135764400D01*
X37462912Y-135743902D01*
X37365843Y-135703695D01*
X37344126Y-135689184D01*
X37278477Y-135645319D01*
X37204181Y-135571023D01*
X37145807Y-135483660D01*
X37145805Y-135483657D01*
X37105598Y-135386588D01*
X37085100Y-135283536D01*
X37085100Y-135178464D01*
X37105598Y-135075412D01*
X37145805Y-134978343D01*
X37145807Y-134978340D01*
X37204181Y-134890977D01*
X37278477Y-134816681D01*
X37365840Y-134758307D01*
X37365843Y-134758305D01*
X37462912Y-134718098D01*
X37565964Y-134697600D01*
X37671036Y-134697600D01*
X37774088Y-134718098D01*
G37*
G36*
X41200800Y-128200800D02*
G01*
X40599200Y-128200800D01*
X40599200Y-127799200D01*
X41200800Y-127799200D01*
X41200800Y-128200800D01*
G37*
G36*
X42200800Y-128200800D02*
G01*
X41599200Y-128200800D01*
X41599200Y-127799200D01*
X42200800Y-127799200D01*
X42200800Y-128200800D01*
G37*
G36*
X45762027Y-127082275D02*
G01*
X45789650Y-127090654D01*
X45815113Y-127104264D01*
X45837425Y-127122575D01*
X45855736Y-127144887D01*
X45869346Y-127170350D01*
X45877725Y-127197973D01*
X45880800Y-127229191D01*
X45880800Y-127670809D01*
X45877725Y-127702027D01*
X45869346Y-127729650D01*
X45855736Y-127755113D01*
X45837425Y-127777425D01*
X45815113Y-127795736D01*
X45789650Y-127809346D01*
X45762027Y-127817725D01*
X45730809Y-127820800D01*
X45339191Y-127820800D01*
X45307973Y-127817725D01*
X45280350Y-127809346D01*
X45254887Y-127795736D01*
X45232575Y-127777425D01*
X45214264Y-127755113D01*
X45200654Y-127729650D01*
X45192275Y-127702027D01*
X45189200Y-127670809D01*
X45189200Y-127229191D01*
X45192275Y-127197973D01*
X45200654Y-127170350D01*
X45214264Y-127144887D01*
X45232575Y-127122575D01*
X45254887Y-127104264D01*
X45280350Y-127090654D01*
X45307973Y-127082275D01*
X45339191Y-127079200D01*
X45730809Y-127079200D01*
X45762027Y-127082275D01*
G37*
G36*
X44792027Y-127082275D02*
G01*
X44819650Y-127090654D01*
X44845113Y-127104264D01*
X44867425Y-127122575D01*
X44885736Y-127144887D01*
X44899346Y-127170350D01*
X44907725Y-127197973D01*
X44910800Y-127229191D01*
X44910800Y-127670809D01*
X44907725Y-127702027D01*
X44899346Y-127729650D01*
X44885736Y-127755113D01*
X44867425Y-127777425D01*
X44845113Y-127795736D01*
X44819650Y-127809346D01*
X44792027Y-127817725D01*
X44760809Y-127820800D01*
X44369191Y-127820800D01*
X44337973Y-127817725D01*
X44310350Y-127809346D01*
X44284887Y-127795736D01*
X44262575Y-127777425D01*
X44244264Y-127755113D01*
X44230654Y-127729650D01*
X44222275Y-127702027D01*
X44219200Y-127670809D01*
X44219200Y-127229191D01*
X44222275Y-127197973D01*
X44230654Y-127170350D01*
X44244264Y-127144887D01*
X44262575Y-127122575D01*
X44284887Y-127104264D01*
X44310350Y-127090654D01*
X44337973Y-127082275D01*
X44369191Y-127079200D01*
X44760809Y-127079200D01*
X44792027Y-127082275D01*
G37*
G36*
X42200800Y-127650800D02*
G01*
X41599200Y-127650800D01*
X41599200Y-127249200D01*
X42200800Y-127249200D01*
X42200800Y-127650800D01*
G37*
G36*
X41200800Y-127650800D02*
G01*
X40599200Y-127650800D01*
X40599200Y-127249200D01*
X41200800Y-127249200D01*
X41200800Y-127650800D01*
G37*
G36*
X42200800Y-127100800D02*
G01*
X41599200Y-127100800D01*
X41599200Y-126699200D01*
X42200800Y-126699200D01*
X42200800Y-127100800D01*
G37*
G36*
X41200800Y-127100800D02*
G01*
X40599200Y-127100800D01*
X40599200Y-126699200D01*
X41200800Y-126699200D01*
X41200800Y-127100800D01*
G37*
G36*
X42620800Y-125600800D02*
G01*
X41469200Y-125600800D01*
X41469200Y-123499200D01*
X42620800Y-123499200D01*
X42620800Y-125600800D01*
G37*
G36*
X39630800Y-125600800D02*
G01*
X38479200Y-125600800D01*
X38479200Y-123499200D01*
X39630800Y-123499200D01*
X39630800Y-125600800D01*
G37*
G36*
X45960663Y-123820367D02*
G01*
X46060902Y-123861887D01*
X46151116Y-123922166D01*
X46227834Y-123998884D01*
X46288113Y-124089098D01*
X46329633Y-124189337D01*
X46350800Y-124295751D01*
X46350800Y-124404249D01*
X46329633Y-124510663D01*
X46288113Y-124610902D01*
X46227834Y-124701116D01*
X46151116Y-124777834D01*
X46060902Y-124838113D01*
X45960663Y-124879633D01*
X45854249Y-124900800D01*
X45745751Y-124900800D01*
X45639337Y-124879633D01*
X45539098Y-124838113D01*
X45448884Y-124777834D01*
X45372166Y-124701116D01*
X45311887Y-124610902D01*
X45270367Y-124510663D01*
X45249200Y-124404249D01*
X45249200Y-124295751D01*
X45270367Y-124189337D01*
X45311887Y-124089098D01*
X45372166Y-123998884D01*
X45448884Y-123922166D01*
X45539098Y-123861887D01*
X45639337Y-123820367D01*
X45745751Y-123799200D01*
X45854249Y-123799200D01*
X45960663Y-123820367D01*
G37*
G36*
X41100800Y-123600800D02*
G01*
X39999200Y-123600800D01*
X39999200Y-122449200D01*
X41100800Y-122449200D01*
X41100800Y-123600800D01*
G37*
G36*
X41962027Y-121282275D02*
G01*
X41989650Y-121290654D01*
X42015113Y-121304264D01*
X42037425Y-121322575D01*
X42055736Y-121344887D01*
X42069346Y-121370350D01*
X42077725Y-121397973D01*
X42080800Y-121429191D01*
X42080800Y-121870809D01*
X42077725Y-121902027D01*
X42069346Y-121929650D01*
X42055736Y-121955113D01*
X42037425Y-121977425D01*
X42015113Y-121995736D01*
X41989650Y-122009346D01*
X41962027Y-122017725D01*
X41930809Y-122020800D01*
X41539191Y-122020800D01*
X41507973Y-122017725D01*
X41480350Y-122009346D01*
X41454887Y-121995736D01*
X41432575Y-121977425D01*
X41414264Y-121955113D01*
X41400654Y-121929650D01*
X41392275Y-121902027D01*
X41389200Y-121870809D01*
X41389200Y-121429191D01*
X41392275Y-121397973D01*
X41400654Y-121370350D01*
X41414264Y-121344887D01*
X41432575Y-121322575D01*
X41454887Y-121304264D01*
X41480350Y-121290654D01*
X41507973Y-121282275D01*
X41539191Y-121279200D01*
X41930809Y-121279200D01*
X41962027Y-121282275D01*
G37*
G36*
X40992027Y-121282275D02*
G01*
X41019650Y-121290654D01*
X41045113Y-121304264D01*
X41067425Y-121322575D01*
X41085736Y-121344887D01*
X41099346Y-121370350D01*
X41107725Y-121397973D01*
X41110800Y-121429191D01*
X41110800Y-121870809D01*
X41107725Y-121902027D01*
X41099346Y-121929650D01*
X41085736Y-121955113D01*
X41067425Y-121977425D01*
X41045113Y-121995736D01*
X41019650Y-122009346D01*
X40992027Y-122017725D01*
X40960809Y-122020800D01*
X40569191Y-122020800D01*
X40537973Y-122017725D01*
X40510350Y-122009346D01*
X40484887Y-121995736D01*
X40462575Y-121977425D01*
X40444264Y-121955113D01*
X40430654Y-121929650D01*
X40422275Y-121902027D01*
X40419200Y-121870809D01*
X40419200Y-121429191D01*
X40422275Y-121397973D01*
X40430654Y-121370350D01*
X40444264Y-121344887D01*
X40462575Y-121322575D01*
X40484887Y-121304264D01*
X40510350Y-121290654D01*
X40537973Y-121282275D01*
X40569191Y-121279200D01*
X40960809Y-121279200D01*
X40992027Y-121282275D01*
G37*
G36*
X41952027Y-120317275D02*
G01*
X41979650Y-120325654D01*
X42005113Y-120339264D01*
X42027425Y-120357575D01*
X42045736Y-120379887D01*
X42059346Y-120405350D01*
X42067725Y-120432973D01*
X42070800Y-120464191D01*
X42070800Y-120855809D01*
X42067725Y-120887027D01*
X42059346Y-120914650D01*
X42045736Y-120940113D01*
X42027425Y-120962425D01*
X42005113Y-120980736D01*
X41979650Y-120994346D01*
X41952027Y-121002725D01*
X41920809Y-121005800D01*
X41479191Y-121005800D01*
X41447973Y-121002725D01*
X41420350Y-120994346D01*
X41394887Y-120980736D01*
X41372575Y-120962425D01*
X41354264Y-120940113D01*
X41340654Y-120914650D01*
X41332275Y-120887027D01*
X41329200Y-120855809D01*
X41329200Y-120464191D01*
X41332275Y-120432973D01*
X41340654Y-120405350D01*
X41354264Y-120379887D01*
X41372575Y-120357575D01*
X41394887Y-120339264D01*
X41420350Y-120325654D01*
X41447973Y-120317275D01*
X41479191Y-120314200D01*
X41920809Y-120314200D01*
X41952027Y-120317275D01*
G37*
G36*
X41002027Y-120317275D02*
G01*
X41029650Y-120325654D01*
X41055113Y-120339264D01*
X41077425Y-120357575D01*
X41095736Y-120379887D01*
X41109346Y-120405350D01*
X41117725Y-120432973D01*
X41120800Y-120464191D01*
X41120800Y-120855809D01*
X41117725Y-120887027D01*
X41109346Y-120914650D01*
X41095736Y-120940113D01*
X41077425Y-120962425D01*
X41055113Y-120980736D01*
X41029650Y-120994346D01*
X41002027Y-121002725D01*
X40970809Y-121005800D01*
X40529191Y-121005800D01*
X40497973Y-121002725D01*
X40470350Y-120994346D01*
X40444887Y-120980736D01*
X40422575Y-120962425D01*
X40404264Y-120940113D01*
X40390654Y-120914650D01*
X40382275Y-120887027D01*
X40379200Y-120855809D01*
X40379200Y-120464191D01*
X40382275Y-120432973D01*
X40390654Y-120405350D01*
X40404264Y-120379887D01*
X40422575Y-120357575D01*
X40444887Y-120339264D01*
X40470350Y-120325654D01*
X40497973Y-120317275D01*
X40529191Y-120314200D01*
X40970809Y-120314200D01*
X41002027Y-120317275D01*
G37*
G36*
X41952027Y-119347275D02*
G01*
X41979650Y-119355654D01*
X42005113Y-119369264D01*
X42027425Y-119387575D01*
X42045736Y-119409887D01*
X42059346Y-119435350D01*
X42067725Y-119462973D01*
X42070800Y-119494191D01*
X42070800Y-119885809D01*
X42067725Y-119917027D01*
X42059346Y-119944650D01*
X42045736Y-119970113D01*
X42027425Y-119992425D01*
X42005113Y-120010736D01*
X41979650Y-120024346D01*
X41952027Y-120032725D01*
X41920809Y-120035800D01*
X41479191Y-120035800D01*
X41447973Y-120032725D01*
X41420350Y-120024346D01*
X41394887Y-120010736D01*
X41372575Y-119992425D01*
X41354264Y-119970113D01*
X41340654Y-119944650D01*
X41332275Y-119917027D01*
X41329200Y-119885809D01*
X41329200Y-119494191D01*
X41332275Y-119462973D01*
X41340654Y-119435350D01*
X41354264Y-119409887D01*
X41372575Y-119387575D01*
X41394887Y-119369264D01*
X41420350Y-119355654D01*
X41447973Y-119347275D01*
X41479191Y-119344200D01*
X41920809Y-119344200D01*
X41952027Y-119347275D01*
G37*
G36*
X41002027Y-119347275D02*
G01*
X41029650Y-119355654D01*
X41055113Y-119369264D01*
X41077425Y-119387575D01*
X41095736Y-119409887D01*
X41109346Y-119435350D01*
X41117725Y-119462973D01*
X41120800Y-119494191D01*
X41120800Y-119885809D01*
X41117725Y-119917027D01*
X41109346Y-119944650D01*
X41095736Y-119970113D01*
X41077425Y-119992425D01*
X41055113Y-120010736D01*
X41029650Y-120024346D01*
X41002027Y-120032725D01*
X40970809Y-120035800D01*
X40529191Y-120035800D01*
X40497973Y-120032725D01*
X40470350Y-120024346D01*
X40444887Y-120010736D01*
X40422575Y-119992425D01*
X40404264Y-119970113D01*
X40390654Y-119944650D01*
X40382275Y-119917027D01*
X40379200Y-119885809D01*
X40379200Y-119494191D01*
X40382275Y-119462973D01*
X40390654Y-119435350D01*
X40404264Y-119409887D01*
X40422575Y-119387575D01*
X40444887Y-119369264D01*
X40470350Y-119355654D01*
X40497973Y-119347275D01*
X40529191Y-119344200D01*
X40970809Y-119344200D01*
X41002027Y-119347275D01*
G37*
G36*
X50950800Y-119450800D02*
G01*
X49149200Y-119450800D01*
X49149200Y-117649200D01*
X50950800Y-117649200D01*
X50950800Y-119450800D01*
G37*
G36*
X41937027Y-118282275D02*
G01*
X41964650Y-118290654D01*
X41990113Y-118304264D01*
X42012425Y-118322575D01*
X42030736Y-118344887D01*
X42044346Y-118370350D01*
X42052725Y-118397973D01*
X42055800Y-118429191D01*
X42055800Y-118870809D01*
X42052725Y-118902027D01*
X42044346Y-118929650D01*
X42030736Y-118955113D01*
X42012425Y-118977425D01*
X41990113Y-118995736D01*
X41964650Y-119009346D01*
X41937027Y-119017725D01*
X41905809Y-119020800D01*
X41514191Y-119020800D01*
X41482973Y-119017725D01*
X41455350Y-119009346D01*
X41429887Y-118995736D01*
X41407575Y-118977425D01*
X41389264Y-118955113D01*
X41375654Y-118929650D01*
X41367275Y-118902027D01*
X41364200Y-118870809D01*
X41364200Y-118429191D01*
X41367275Y-118397973D01*
X41375654Y-118370350D01*
X41389264Y-118344887D01*
X41407575Y-118322575D01*
X41429887Y-118304264D01*
X41455350Y-118290654D01*
X41482973Y-118282275D01*
X41514191Y-118279200D01*
X41905809Y-118279200D01*
X41937027Y-118282275D01*
G37*
G36*
X40967027Y-118282275D02*
G01*
X40994650Y-118290654D01*
X41020113Y-118304264D01*
X41042425Y-118322575D01*
X41060736Y-118344887D01*
X41074346Y-118370350D01*
X41082725Y-118397973D01*
X41085800Y-118429191D01*
X41085800Y-118870809D01*
X41082725Y-118902027D01*
X41074346Y-118929650D01*
X41060736Y-118955113D01*
X41042425Y-118977425D01*
X41020113Y-118995736D01*
X40994650Y-119009346D01*
X40967027Y-119017725D01*
X40935809Y-119020800D01*
X40544191Y-119020800D01*
X40512973Y-119017725D01*
X40485350Y-119009346D01*
X40459887Y-118995736D01*
X40437575Y-118977425D01*
X40419264Y-118955113D01*
X40405654Y-118929650D01*
X40397275Y-118902027D01*
X40394200Y-118870809D01*
X40394200Y-118429191D01*
X40397275Y-118397973D01*
X40405654Y-118370350D01*
X40419264Y-118344887D01*
X40437575Y-118322575D01*
X40459887Y-118304264D01*
X40485350Y-118290654D01*
X40512973Y-118282275D01*
X40544191Y-118279200D01*
X40935809Y-118279200D01*
X40967027Y-118282275D01*
G37*
G36*
X41002027Y-117292275D02*
G01*
X41029650Y-117300654D01*
X41055113Y-117314264D01*
X41077425Y-117332575D01*
X41095736Y-117354887D01*
X41109346Y-117380350D01*
X41117725Y-117407973D01*
X41120800Y-117439191D01*
X41120800Y-117830809D01*
X41117725Y-117862027D01*
X41109346Y-117889650D01*
X41095736Y-117915113D01*
X41077425Y-117937425D01*
X41055113Y-117955736D01*
X41029650Y-117969346D01*
X41002027Y-117977725D01*
X40970809Y-117980800D01*
X40529191Y-117980800D01*
X40497973Y-117977725D01*
X40470350Y-117969346D01*
X40444887Y-117955736D01*
X40422575Y-117937425D01*
X40404264Y-117915113D01*
X40390654Y-117889650D01*
X40382275Y-117862027D01*
X40379200Y-117830809D01*
X40379200Y-117439191D01*
X40382275Y-117407973D01*
X40390654Y-117380350D01*
X40404264Y-117354887D01*
X40422575Y-117332575D01*
X40444887Y-117314264D01*
X40470350Y-117300654D01*
X40497973Y-117292275D01*
X40529191Y-117289200D01*
X40970809Y-117289200D01*
X41002027Y-117292275D01*
G37*
G36*
X41977027Y-117292275D02*
G01*
X42004650Y-117300654D01*
X42030113Y-117314264D01*
X42052425Y-117332575D01*
X42070736Y-117354887D01*
X42084346Y-117380350D01*
X42092725Y-117407973D01*
X42095800Y-117439191D01*
X42095800Y-117830809D01*
X42092725Y-117862027D01*
X42084346Y-117889650D01*
X42070736Y-117915113D01*
X42052425Y-117937425D01*
X42030113Y-117955736D01*
X42004650Y-117969346D01*
X41977027Y-117977725D01*
X41945809Y-117980800D01*
X41504191Y-117980800D01*
X41472973Y-117977725D01*
X41445350Y-117969346D01*
X41419887Y-117955736D01*
X41397575Y-117937425D01*
X41379264Y-117915113D01*
X41365654Y-117889650D01*
X41357275Y-117862027D01*
X41354200Y-117830809D01*
X41354200Y-117439191D01*
X41357275Y-117407973D01*
X41365654Y-117380350D01*
X41379264Y-117354887D01*
X41397575Y-117332575D01*
X41419887Y-117314264D01*
X41445350Y-117300654D01*
X41472973Y-117292275D01*
X41504191Y-117289200D01*
X41945809Y-117289200D01*
X41977027Y-117292275D01*
G37*
G36*
X46102027Y-117242275D02*
G01*
X46129650Y-117250654D01*
X46155113Y-117264264D01*
X46177425Y-117282575D01*
X46195736Y-117304887D01*
X46209346Y-117330350D01*
X46217725Y-117357973D01*
X46220800Y-117389191D01*
X46220800Y-117780809D01*
X46217725Y-117812027D01*
X46209346Y-117839650D01*
X46195736Y-117865113D01*
X46177425Y-117887425D01*
X46155113Y-117905736D01*
X46129650Y-117919346D01*
X46102027Y-117927725D01*
X46070809Y-117930800D01*
X45629191Y-117930800D01*
X45597973Y-117927725D01*
X45570350Y-117919346D01*
X45544887Y-117905736D01*
X45522575Y-117887425D01*
X45504264Y-117865113D01*
X45490654Y-117839650D01*
X45482275Y-117812027D01*
X45479200Y-117780809D01*
X45479200Y-117389191D01*
X45482275Y-117357973D01*
X45490654Y-117330350D01*
X45504264Y-117304887D01*
X45522575Y-117282575D01*
X45544887Y-117264264D01*
X45570350Y-117250654D01*
X45597973Y-117242275D01*
X45629191Y-117239200D01*
X46070809Y-117239200D01*
X46102027Y-117242275D01*
G37*
G36*
X41002027Y-116322275D02*
G01*
X41029650Y-116330654D01*
X41055113Y-116344264D01*
X41077425Y-116362575D01*
X41095736Y-116384887D01*
X41109346Y-116410350D01*
X41117725Y-116437973D01*
X41120800Y-116469191D01*
X41120800Y-116860809D01*
X41117725Y-116892027D01*
X41109346Y-116919650D01*
X41095736Y-116945113D01*
X41077425Y-116967425D01*
X41055113Y-116985736D01*
X41029650Y-116999346D01*
X41002027Y-117007725D01*
X40970809Y-117010800D01*
X40529191Y-117010800D01*
X40497973Y-117007725D01*
X40470350Y-116999346D01*
X40444887Y-116985736D01*
X40422575Y-116967425D01*
X40404264Y-116945113D01*
X40390654Y-116919650D01*
X40382275Y-116892027D01*
X40379200Y-116860809D01*
X40379200Y-116469191D01*
X40382275Y-116437973D01*
X40390654Y-116410350D01*
X40404264Y-116384887D01*
X40422575Y-116362575D01*
X40444887Y-116344264D01*
X40470350Y-116330654D01*
X40497973Y-116322275D01*
X40529191Y-116319200D01*
X40970809Y-116319200D01*
X41002027Y-116322275D01*
G37*
G36*
X41977027Y-116322275D02*
G01*
X42004650Y-116330654D01*
X42030113Y-116344264D01*
X42052425Y-116362575D01*
X42070736Y-116384887D01*
X42084346Y-116410350D01*
X42092725Y-116437973D01*
X42095800Y-116469191D01*
X42095800Y-116860809D01*
X42092725Y-116892027D01*
X42084346Y-116919650D01*
X42070736Y-116945113D01*
X42052425Y-116967425D01*
X42030113Y-116985736D01*
X42004650Y-116999346D01*
X41977027Y-117007725D01*
X41945809Y-117010800D01*
X41504191Y-117010800D01*
X41472973Y-117007725D01*
X41445350Y-116999346D01*
X41419887Y-116985736D01*
X41397575Y-116967425D01*
X41379264Y-116945113D01*
X41365654Y-116919650D01*
X41357275Y-116892027D01*
X41354200Y-116860809D01*
X41354200Y-116469191D01*
X41357275Y-116437973D01*
X41365654Y-116410350D01*
X41379264Y-116384887D01*
X41397575Y-116362575D01*
X41419887Y-116344264D01*
X41445350Y-116330654D01*
X41472973Y-116322275D01*
X41504191Y-116319200D01*
X41945809Y-116319200D01*
X41977027Y-116322275D01*
G37*
G36*
X46102027Y-116272275D02*
G01*
X46129650Y-116280654D01*
X46155113Y-116294264D01*
X46177425Y-116312575D01*
X46195736Y-116334887D01*
X46209346Y-116360350D01*
X46217725Y-116387973D01*
X46220800Y-116419191D01*
X46220800Y-116810809D01*
X46217725Y-116842027D01*
X46209346Y-116869650D01*
X46195736Y-116895113D01*
X46177425Y-116917425D01*
X46155113Y-116935736D01*
X46129650Y-116949346D01*
X46102027Y-116957725D01*
X46070809Y-116960800D01*
X45629191Y-116960800D01*
X45597973Y-116957725D01*
X45570350Y-116949346D01*
X45544887Y-116935736D01*
X45522575Y-116917425D01*
X45504264Y-116895113D01*
X45490654Y-116869650D01*
X45482275Y-116842027D01*
X45479200Y-116810809D01*
X45479200Y-116419191D01*
X45482275Y-116387973D01*
X45490654Y-116360350D01*
X45504264Y-116334887D01*
X45522575Y-116312575D01*
X45544887Y-116294264D01*
X45570350Y-116280654D01*
X45597973Y-116272275D01*
X45629191Y-116269200D01*
X46070809Y-116269200D01*
X46102027Y-116272275D01*
G37*
G36*
X40650000Y-115900000D02*
G01*
X39850000Y-115900000D01*
X39850000Y-115100000D01*
X40650000Y-115100000D01*
X40650000Y-115900000D01*
G37*
G36*
X42550000Y-115900000D02*
G01*
X41750000Y-115900000D01*
X41750000Y-115100000D01*
X42550000Y-115100000D01*
X42550000Y-115900000D01*
G37*
G36*
X45902027Y-114292275D02*
G01*
X45929650Y-114300654D01*
X45955113Y-114314264D01*
X45977425Y-114332575D01*
X45995736Y-114354887D01*
X46009346Y-114380350D01*
X46017725Y-114407973D01*
X46020800Y-114439191D01*
X46020800Y-114830809D01*
X46017725Y-114862027D01*
X46009346Y-114889650D01*
X45995736Y-114915113D01*
X45977425Y-114937425D01*
X45955113Y-114955736D01*
X45929650Y-114969346D01*
X45902027Y-114977725D01*
X45870809Y-114980800D01*
X45429191Y-114980800D01*
X45397973Y-114977725D01*
X45370350Y-114969346D01*
X45344887Y-114955736D01*
X45322575Y-114937425D01*
X45304264Y-114915113D01*
X45290654Y-114889650D01*
X45282275Y-114862027D01*
X45279200Y-114830809D01*
X45279200Y-114439191D01*
X45282275Y-114407973D01*
X45290654Y-114380350D01*
X45304264Y-114354887D01*
X45322575Y-114332575D01*
X45344887Y-114314264D01*
X45370350Y-114300654D01*
X45397973Y-114292275D01*
X45429191Y-114289200D01*
X45870809Y-114289200D01*
X45902027Y-114292275D01*
G37*
G36*
X45902027Y-113322275D02*
G01*
X45929650Y-113330654D01*
X45955113Y-113344264D01*
X45977425Y-113362575D01*
X45995736Y-113384887D01*
X46009346Y-113410350D01*
X46017725Y-113437973D01*
X46020800Y-113469191D01*
X46020800Y-113860809D01*
X46017725Y-113892027D01*
X46009346Y-113919650D01*
X45995736Y-113945113D01*
X45977425Y-113967425D01*
X45955113Y-113985736D01*
X45929650Y-113999346D01*
X45902027Y-114007725D01*
X45870809Y-114010800D01*
X45429191Y-114010800D01*
X45397973Y-114007725D01*
X45370350Y-113999346D01*
X45344887Y-113985736D01*
X45322575Y-113967425D01*
X45304264Y-113945113D01*
X45290654Y-113919650D01*
X45282275Y-113892027D01*
X45279200Y-113860809D01*
X45279200Y-113469191D01*
X45282275Y-113437973D01*
X45290654Y-113410350D01*
X45304264Y-113384887D01*
X45322575Y-113362575D01*
X45344887Y-113344264D01*
X45370350Y-113330654D01*
X45397973Y-113322275D01*
X45429191Y-113319200D01*
X45870809Y-113319200D01*
X45902027Y-113322275D01*
G37*
G36*
X40650000Y-113900000D02*
G01*
X39850000Y-113900000D01*
X39850000Y-113100000D01*
X40650000Y-113100000D01*
X40650000Y-113900000D01*
G37*
G36*
X42450000Y-113900000D02*
G01*
X41450000Y-113900000D01*
X41450000Y-113100000D01*
X42450000Y-113100000D01*
X42450000Y-113900000D01*
G37*
G36*
X40952027Y-111892275D02*
G01*
X40979650Y-111900654D01*
X41005113Y-111914264D01*
X41027425Y-111932575D01*
X41045736Y-111954887D01*
X41059346Y-111980350D01*
X41067725Y-112007973D01*
X41070800Y-112039191D01*
X41070800Y-112430809D01*
X41067725Y-112462027D01*
X41059346Y-112489650D01*
X41045736Y-112515113D01*
X41027425Y-112537425D01*
X41005113Y-112555736D01*
X40979650Y-112569346D01*
X40952027Y-112577725D01*
X40920809Y-112580800D01*
X40479191Y-112580800D01*
X40447973Y-112577725D01*
X40420350Y-112569346D01*
X40394887Y-112555736D01*
X40372575Y-112537425D01*
X40354264Y-112515113D01*
X40340654Y-112489650D01*
X40332275Y-112462027D01*
X40329200Y-112430809D01*
X40329200Y-112039191D01*
X40332275Y-112007973D01*
X40340654Y-111980350D01*
X40354264Y-111954887D01*
X40372575Y-111932575D01*
X40394887Y-111914264D01*
X40420350Y-111900654D01*
X40447973Y-111892275D01*
X40479191Y-111889200D01*
X40920809Y-111889200D01*
X40952027Y-111892275D01*
G37*
G36*
X41927027Y-111892275D02*
G01*
X41954650Y-111900654D01*
X41980113Y-111914264D01*
X42002425Y-111932575D01*
X42020736Y-111954887D01*
X42034346Y-111980350D01*
X42042725Y-112007973D01*
X42045800Y-112039191D01*
X42045800Y-112430809D01*
X42042725Y-112462027D01*
X42034346Y-112489650D01*
X42020736Y-112515113D01*
X42002425Y-112537425D01*
X41980113Y-112555736D01*
X41954650Y-112569346D01*
X41927027Y-112577725D01*
X41895809Y-112580800D01*
X41454191Y-112580800D01*
X41422973Y-112577725D01*
X41395350Y-112569346D01*
X41369887Y-112555736D01*
X41347575Y-112537425D01*
X41329264Y-112515113D01*
X41315654Y-112489650D01*
X41307275Y-112462027D01*
X41304200Y-112430809D01*
X41304200Y-112039191D01*
X41307275Y-112007973D01*
X41315654Y-111980350D01*
X41329264Y-111954887D01*
X41347575Y-111932575D01*
X41369887Y-111914264D01*
X41395350Y-111900654D01*
X41422973Y-111892275D01*
X41454191Y-111889200D01*
X41895809Y-111889200D01*
X41927027Y-111892275D01*
G37*
G36*
X46052027Y-111492275D02*
G01*
X46079650Y-111500654D01*
X46105113Y-111514264D01*
X46127425Y-111532575D01*
X46145736Y-111554887D01*
X46159346Y-111580350D01*
X46167725Y-111607973D01*
X46170800Y-111639191D01*
X46170800Y-112030809D01*
X46167725Y-112062027D01*
X46159346Y-112089650D01*
X46145736Y-112115113D01*
X46127425Y-112137425D01*
X46105113Y-112155736D01*
X46079650Y-112169346D01*
X46052027Y-112177725D01*
X46020809Y-112180800D01*
X45579191Y-112180800D01*
X45547973Y-112177725D01*
X45520350Y-112169346D01*
X45494887Y-112155736D01*
X45472575Y-112137425D01*
X45454264Y-112115113D01*
X45440654Y-112089650D01*
X45432275Y-112062027D01*
X45429200Y-112030809D01*
X45429200Y-111639191D01*
X45432275Y-111607973D01*
X45440654Y-111580350D01*
X45454264Y-111554887D01*
X45472575Y-111532575D01*
X45494887Y-111514264D01*
X45520350Y-111500654D01*
X45547973Y-111492275D01*
X45579191Y-111489200D01*
X46020809Y-111489200D01*
X46052027Y-111492275D01*
G37*
G36*
X51000800Y-111650800D02*
G01*
X49199200Y-111650800D01*
X49199200Y-109849200D01*
X51000800Y-109849200D01*
X51000800Y-111650800D01*
G37*
G36*
X40952027Y-110922275D02*
G01*
X40979650Y-110930654D01*
X41005113Y-110944264D01*
X41027425Y-110962575D01*
X41045736Y-110984887D01*
X41059346Y-111010350D01*
X41067725Y-111037973D01*
X41070800Y-111069191D01*
X41070800Y-111460809D01*
X41067725Y-111492027D01*
X41059346Y-111519650D01*
X41045736Y-111545113D01*
X41027425Y-111567425D01*
X41005113Y-111585736D01*
X40979650Y-111599346D01*
X40952027Y-111607725D01*
X40920809Y-111610800D01*
X40479191Y-111610800D01*
X40447973Y-111607725D01*
X40420350Y-111599346D01*
X40394887Y-111585736D01*
X40372575Y-111567425D01*
X40354264Y-111545113D01*
X40340654Y-111519650D01*
X40332275Y-111492027D01*
X40329200Y-111460809D01*
X40329200Y-111069191D01*
X40332275Y-111037973D01*
X40340654Y-111010350D01*
X40354264Y-110984887D01*
X40372575Y-110962575D01*
X40394887Y-110944264D01*
X40420350Y-110930654D01*
X40447973Y-110922275D01*
X40479191Y-110919200D01*
X40920809Y-110919200D01*
X40952027Y-110922275D01*
G37*
G36*
X41927027Y-110922275D02*
G01*
X41954650Y-110930654D01*
X41980113Y-110944264D01*
X42002425Y-110962575D01*
X42020736Y-110984887D01*
X42034346Y-111010350D01*
X42042725Y-111037973D01*
X42045800Y-111069191D01*
X42045800Y-111460809D01*
X42042725Y-111492027D01*
X42034346Y-111519650D01*
X42020736Y-111545113D01*
X42002425Y-111567425D01*
X41980113Y-111585736D01*
X41954650Y-111599346D01*
X41927027Y-111607725D01*
X41895809Y-111610800D01*
X41454191Y-111610800D01*
X41422973Y-111607725D01*
X41395350Y-111599346D01*
X41369887Y-111585736D01*
X41347575Y-111567425D01*
X41329264Y-111545113D01*
X41315654Y-111519650D01*
X41307275Y-111492027D01*
X41304200Y-111460809D01*
X41304200Y-111069191D01*
X41307275Y-111037973D01*
X41315654Y-111010350D01*
X41329264Y-110984887D01*
X41347575Y-110962575D01*
X41369887Y-110944264D01*
X41395350Y-110930654D01*
X41422973Y-110922275D01*
X41454191Y-110919200D01*
X41895809Y-110919200D01*
X41927027Y-110922275D01*
G37*
G36*
X46052027Y-110522275D02*
G01*
X46079650Y-110530654D01*
X46105113Y-110544264D01*
X46127425Y-110562575D01*
X46145736Y-110584887D01*
X46159346Y-110610350D01*
X46167725Y-110637973D01*
X46170800Y-110669191D01*
X46170800Y-111060809D01*
X46167725Y-111092027D01*
X46159346Y-111119650D01*
X46145736Y-111145113D01*
X46127425Y-111167425D01*
X46105113Y-111185736D01*
X46079650Y-111199346D01*
X46052027Y-111207725D01*
X46020809Y-111210800D01*
X45579191Y-111210800D01*
X45547973Y-111207725D01*
X45520350Y-111199346D01*
X45494887Y-111185736D01*
X45472575Y-111167425D01*
X45454264Y-111145113D01*
X45440654Y-111119650D01*
X45432275Y-111092027D01*
X45429200Y-111060809D01*
X45429200Y-110669191D01*
X45432275Y-110637973D01*
X45440654Y-110610350D01*
X45454264Y-110584887D01*
X45472575Y-110562575D01*
X45494887Y-110544264D01*
X45520350Y-110530654D01*
X45547973Y-110522275D01*
X45579191Y-110519200D01*
X46020809Y-110519200D01*
X46052027Y-110522275D01*
G37*
G36*
X40942027Y-109782275D02*
G01*
X40969650Y-109790654D01*
X40995113Y-109804264D01*
X41017425Y-109822575D01*
X41035736Y-109844887D01*
X41049346Y-109870350D01*
X41057725Y-109897973D01*
X41060800Y-109929191D01*
X41060800Y-110370809D01*
X41057725Y-110402027D01*
X41049346Y-110429650D01*
X41035736Y-110455113D01*
X41017425Y-110477425D01*
X40995113Y-110495736D01*
X40969650Y-110509346D01*
X40942027Y-110517725D01*
X40910809Y-110520800D01*
X40519191Y-110520800D01*
X40487973Y-110517725D01*
X40460350Y-110509346D01*
X40434887Y-110495736D01*
X40412575Y-110477425D01*
X40394264Y-110455113D01*
X40380654Y-110429650D01*
X40372275Y-110402027D01*
X40369200Y-110370809D01*
X40369200Y-109929191D01*
X40372275Y-109897973D01*
X40380654Y-109870350D01*
X40394264Y-109844887D01*
X40412575Y-109822575D01*
X40434887Y-109804264D01*
X40460350Y-109790654D01*
X40487973Y-109782275D01*
X40519191Y-109779200D01*
X40910809Y-109779200D01*
X40942027Y-109782275D01*
G37*
G36*
X41912027Y-109782275D02*
G01*
X41939650Y-109790654D01*
X41965113Y-109804264D01*
X41987425Y-109822575D01*
X42005736Y-109844887D01*
X42019346Y-109870350D01*
X42027725Y-109897973D01*
X42030800Y-109929191D01*
X42030800Y-110370809D01*
X42027725Y-110402027D01*
X42019346Y-110429650D01*
X42005736Y-110455113D01*
X41987425Y-110477425D01*
X41965113Y-110495736D01*
X41939650Y-110509346D01*
X41912027Y-110517725D01*
X41880809Y-110520800D01*
X41489191Y-110520800D01*
X41457973Y-110517725D01*
X41430350Y-110509346D01*
X41404887Y-110495736D01*
X41382575Y-110477425D01*
X41364264Y-110455113D01*
X41350654Y-110429650D01*
X41342275Y-110402027D01*
X41339200Y-110370809D01*
X41339200Y-109929191D01*
X41342275Y-109897973D01*
X41350654Y-109870350D01*
X41364264Y-109844887D01*
X41382575Y-109822575D01*
X41404887Y-109804264D01*
X41430350Y-109790654D01*
X41457973Y-109782275D01*
X41489191Y-109779200D01*
X41880809Y-109779200D01*
X41912027Y-109782275D01*
G37*
G36*
X40977027Y-108817275D02*
G01*
X41004650Y-108825654D01*
X41030113Y-108839264D01*
X41052425Y-108857575D01*
X41070736Y-108879887D01*
X41084346Y-108905350D01*
X41092725Y-108932973D01*
X41095800Y-108964191D01*
X41095800Y-109355809D01*
X41092725Y-109387027D01*
X41084346Y-109414650D01*
X41070736Y-109440113D01*
X41052425Y-109462425D01*
X41030113Y-109480736D01*
X41004650Y-109494346D01*
X40977027Y-109502725D01*
X40945809Y-109505800D01*
X40504191Y-109505800D01*
X40472973Y-109502725D01*
X40445350Y-109494346D01*
X40419887Y-109480736D01*
X40397575Y-109462425D01*
X40379264Y-109440113D01*
X40365654Y-109414650D01*
X40357275Y-109387027D01*
X40354200Y-109355809D01*
X40354200Y-108964191D01*
X40357275Y-108932973D01*
X40365654Y-108905350D01*
X40379264Y-108879887D01*
X40397575Y-108857575D01*
X40419887Y-108839264D01*
X40445350Y-108825654D01*
X40472973Y-108817275D01*
X40504191Y-108814200D01*
X40945809Y-108814200D01*
X40977027Y-108817275D01*
G37*
G36*
X41927027Y-108817275D02*
G01*
X41954650Y-108825654D01*
X41980113Y-108839264D01*
X42002425Y-108857575D01*
X42020736Y-108879887D01*
X42034346Y-108905350D01*
X42042725Y-108932973D01*
X42045800Y-108964191D01*
X42045800Y-109355809D01*
X42042725Y-109387027D01*
X42034346Y-109414650D01*
X42020736Y-109440113D01*
X42002425Y-109462425D01*
X41980113Y-109480736D01*
X41954650Y-109494346D01*
X41927027Y-109502725D01*
X41895809Y-109505800D01*
X41454191Y-109505800D01*
X41422973Y-109502725D01*
X41395350Y-109494346D01*
X41369887Y-109480736D01*
X41347575Y-109462425D01*
X41329264Y-109440113D01*
X41315654Y-109414650D01*
X41307275Y-109387027D01*
X41304200Y-109355809D01*
X41304200Y-108964191D01*
X41307275Y-108932973D01*
X41315654Y-108905350D01*
X41329264Y-108879887D01*
X41347575Y-108857575D01*
X41369887Y-108839264D01*
X41395350Y-108825654D01*
X41422973Y-108817275D01*
X41454191Y-108814200D01*
X41895809Y-108814200D01*
X41927027Y-108817275D01*
G37*
G36*
X40977027Y-107847275D02*
G01*
X41004650Y-107855654D01*
X41030113Y-107869264D01*
X41052425Y-107887575D01*
X41070736Y-107909887D01*
X41084346Y-107935350D01*
X41092725Y-107962973D01*
X41095800Y-107994191D01*
X41095800Y-108385809D01*
X41092725Y-108417027D01*
X41084346Y-108444650D01*
X41070736Y-108470113D01*
X41052425Y-108492425D01*
X41030113Y-108510736D01*
X41004650Y-108524346D01*
X40977027Y-108532725D01*
X40945809Y-108535800D01*
X40504191Y-108535800D01*
X40472973Y-108532725D01*
X40445350Y-108524346D01*
X40419887Y-108510736D01*
X40397575Y-108492425D01*
X40379264Y-108470113D01*
X40365654Y-108444650D01*
X40357275Y-108417027D01*
X40354200Y-108385809D01*
X40354200Y-107994191D01*
X40357275Y-107962973D01*
X40365654Y-107935350D01*
X40379264Y-107909887D01*
X40397575Y-107887575D01*
X40419887Y-107869264D01*
X40445350Y-107855654D01*
X40472973Y-107847275D01*
X40504191Y-107844200D01*
X40945809Y-107844200D01*
X40977027Y-107847275D01*
G37*
G36*
X41927027Y-107847275D02*
G01*
X41954650Y-107855654D01*
X41980113Y-107869264D01*
X42002425Y-107887575D01*
X42020736Y-107909887D01*
X42034346Y-107935350D01*
X42042725Y-107962973D01*
X42045800Y-107994191D01*
X42045800Y-108385809D01*
X42042725Y-108417027D01*
X42034346Y-108444650D01*
X42020736Y-108470113D01*
X42002425Y-108492425D01*
X41980113Y-108510736D01*
X41954650Y-108524346D01*
X41927027Y-108532725D01*
X41895809Y-108535800D01*
X41454191Y-108535800D01*
X41422973Y-108532725D01*
X41395350Y-108524346D01*
X41369887Y-108510736D01*
X41347575Y-108492425D01*
X41329264Y-108470113D01*
X41315654Y-108444650D01*
X41307275Y-108417027D01*
X41304200Y-108385809D01*
X41304200Y-107994191D01*
X41307275Y-107962973D01*
X41315654Y-107935350D01*
X41329264Y-107909887D01*
X41347575Y-107887575D01*
X41369887Y-107869264D01*
X41395350Y-107855654D01*
X41422973Y-107847275D01*
X41454191Y-107844200D01*
X41895809Y-107844200D01*
X41927027Y-107847275D01*
G37*
G36*
X41050800Y-107500800D02*
G01*
X39949200Y-107500800D01*
X39949200Y-106349200D01*
X41050800Y-106349200D01*
X41050800Y-107500800D01*
G37*
G36*
X21831521Y-104212639D02*
G01*
X22131947Y-104337080D01*
X22402324Y-104517740D01*
X22632260Y-104747676D01*
X22812920Y-105018053D01*
X22937361Y-105318479D01*
X23000800Y-105637410D01*
X23000800Y-105962590D01*
X22937361Y-106281521D01*
X22812920Y-106581947D01*
X22632260Y-106852324D01*
X22402324Y-107082260D01*
X22131947Y-107262920D01*
X21831521Y-107387361D01*
X21512590Y-107450800D01*
X21187410Y-107450800D01*
X20868479Y-107387361D01*
X20568053Y-107262920D01*
X20297676Y-107082260D01*
X20067740Y-106852324D01*
X19887080Y-106581947D01*
X19762639Y-106281521D01*
X19699200Y-105962590D01*
X19699200Y-105637410D01*
X19762639Y-105318479D01*
X19887080Y-105018053D01*
X20067740Y-104747676D01*
X20297676Y-104517740D01*
X20568053Y-104337080D01*
X20868479Y-104212639D01*
X21187410Y-104149200D01*
X21512590Y-104149200D01*
X21831521Y-104212639D01*
G37*
G36*
X46060663Y-106170367D02*
G01*
X46160902Y-106211887D01*
X46251116Y-106272166D01*
X46327834Y-106348884D01*
X46388113Y-106439098D01*
X46429633Y-106539337D01*
X46450800Y-106645751D01*
X46450800Y-106754249D01*
X46429633Y-106860663D01*
X46388113Y-106960902D01*
X46327834Y-107051116D01*
X46251116Y-107127834D01*
X46160902Y-107188113D01*
X46060663Y-107229633D01*
X45954249Y-107250800D01*
X45845751Y-107250800D01*
X45739337Y-107229633D01*
X45639098Y-107188113D01*
X45548884Y-107127834D01*
X45472166Y-107051116D01*
X45411887Y-106960902D01*
X45370367Y-106860663D01*
X45349200Y-106754249D01*
X45349200Y-106645751D01*
X45370367Y-106539337D01*
X45411887Y-106439098D01*
X45472166Y-106348884D01*
X45548884Y-106272166D01*
X45639098Y-106211887D01*
X45739337Y-106170367D01*
X45845751Y-106149200D01*
X45954249Y-106149200D01*
X46060663Y-106170367D01*
G37*
G36*
X42570800Y-106450800D02*
G01*
X41419200Y-106450800D01*
X41419200Y-104349200D01*
X42570800Y-104349200D01*
X42570800Y-106450800D01*
G37*
G36*
X39580800Y-106450800D02*
G01*
X38429200Y-106450800D01*
X38429200Y-104349200D01*
X39580800Y-104349200D01*
X39580800Y-106450800D01*
G37*
G36*
X39652027Y-102892275D02*
G01*
X39679650Y-102900654D01*
X39705113Y-102914264D01*
X39727425Y-102932575D01*
X39745736Y-102954887D01*
X39759346Y-102980350D01*
X39767725Y-103007973D01*
X39770800Y-103039191D01*
X39770800Y-103430809D01*
X39767725Y-103462027D01*
X39759346Y-103489650D01*
X39745736Y-103515113D01*
X39727425Y-103537425D01*
X39705113Y-103555736D01*
X39679650Y-103569346D01*
X39652027Y-103577725D01*
X39620809Y-103580800D01*
X39179191Y-103580800D01*
X39147973Y-103577725D01*
X39120350Y-103569346D01*
X39094887Y-103555736D01*
X39072575Y-103537425D01*
X39054264Y-103515113D01*
X39040654Y-103489650D01*
X39032275Y-103462027D01*
X39029200Y-103430809D01*
X39029200Y-103039191D01*
X39032275Y-103007973D01*
X39040654Y-102980350D01*
X39054264Y-102954887D01*
X39072575Y-102932575D01*
X39094887Y-102914264D01*
X39120350Y-102900654D01*
X39147973Y-102892275D01*
X39179191Y-102889200D01*
X39620809Y-102889200D01*
X39652027Y-102892275D01*
G37*
G36*
X43002027Y-102842275D02*
G01*
X43029650Y-102850654D01*
X43055113Y-102864264D01*
X43077425Y-102882575D01*
X43095736Y-102904887D01*
X43109346Y-102930350D01*
X43117725Y-102957973D01*
X43120800Y-102989191D01*
X43120800Y-103380809D01*
X43117725Y-103412027D01*
X43109346Y-103439650D01*
X43095736Y-103465113D01*
X43077425Y-103487425D01*
X43055113Y-103505736D01*
X43029650Y-103519346D01*
X43002027Y-103527725D01*
X42970809Y-103530800D01*
X42529191Y-103530800D01*
X42497973Y-103527725D01*
X42470350Y-103519346D01*
X42444887Y-103505736D01*
X42422575Y-103487425D01*
X42404264Y-103465113D01*
X42390654Y-103439650D01*
X42382275Y-103412027D01*
X42379200Y-103380809D01*
X42379200Y-102989191D01*
X42382275Y-102957973D01*
X42390654Y-102930350D01*
X42404264Y-102904887D01*
X42422575Y-102882575D01*
X42444887Y-102864264D01*
X42470350Y-102850654D01*
X42497973Y-102842275D01*
X42529191Y-102839200D01*
X42970809Y-102839200D01*
X43002027Y-102842275D01*
G37*
G36*
X40802027Y-102842275D02*
G01*
X40829650Y-102850654D01*
X40855113Y-102864264D01*
X40877425Y-102882575D01*
X40895736Y-102904887D01*
X40909346Y-102930350D01*
X40917725Y-102957973D01*
X40920800Y-102989191D01*
X40920800Y-103380809D01*
X40917725Y-103412027D01*
X40909346Y-103439650D01*
X40895736Y-103465113D01*
X40877425Y-103487425D01*
X40855113Y-103505736D01*
X40829650Y-103519346D01*
X40802027Y-103527725D01*
X40770809Y-103530800D01*
X40329191Y-103530800D01*
X40297973Y-103527725D01*
X40270350Y-103519346D01*
X40244887Y-103505736D01*
X40222575Y-103487425D01*
X40204264Y-103465113D01*
X40190654Y-103439650D01*
X40182275Y-103412027D01*
X40179200Y-103380809D01*
X40179200Y-102989191D01*
X40182275Y-102957973D01*
X40190654Y-102930350D01*
X40204264Y-102904887D01*
X40222575Y-102882575D01*
X40244887Y-102864264D01*
X40270350Y-102850654D01*
X40297973Y-102842275D01*
X40329191Y-102839200D01*
X40770809Y-102839200D01*
X40802027Y-102842275D01*
G37*
G36*
X41902027Y-102817275D02*
G01*
X41929650Y-102825654D01*
X41955113Y-102839264D01*
X41977425Y-102857575D01*
X41995736Y-102879887D01*
X42009346Y-102905350D01*
X42017725Y-102932973D01*
X42020800Y-102964191D01*
X42020800Y-103355809D01*
X42017725Y-103387027D01*
X42009346Y-103414650D01*
X41995736Y-103440113D01*
X41977425Y-103462425D01*
X41955113Y-103480736D01*
X41929650Y-103494346D01*
X41902027Y-103502725D01*
X41870809Y-103505800D01*
X41429191Y-103505800D01*
X41397973Y-103502725D01*
X41370350Y-103494346D01*
X41344887Y-103480736D01*
X41322575Y-103462425D01*
X41304264Y-103440113D01*
X41290654Y-103414650D01*
X41282275Y-103387027D01*
X41279200Y-103355809D01*
X41279200Y-102964191D01*
X41282275Y-102932973D01*
X41290654Y-102905350D01*
X41304264Y-102879887D01*
X41322575Y-102857575D01*
X41344887Y-102839264D01*
X41370350Y-102825654D01*
X41397973Y-102817275D01*
X41429191Y-102814200D01*
X41870809Y-102814200D01*
X41902027Y-102817275D01*
G37*
G36*
X39652027Y-101922275D02*
G01*
X39679650Y-101930654D01*
X39705113Y-101944264D01*
X39727425Y-101962575D01*
X39745736Y-101984887D01*
X39759346Y-102010350D01*
X39767725Y-102037973D01*
X39770800Y-102069191D01*
X39770800Y-102460809D01*
X39767725Y-102492027D01*
X39759346Y-102519650D01*
X39745736Y-102545113D01*
X39727425Y-102567425D01*
X39705113Y-102585736D01*
X39679650Y-102599346D01*
X39652027Y-102607725D01*
X39620809Y-102610800D01*
X39179191Y-102610800D01*
X39147973Y-102607725D01*
X39120350Y-102599346D01*
X39094887Y-102585736D01*
X39072575Y-102567425D01*
X39054264Y-102545113D01*
X39040654Y-102519650D01*
X39032275Y-102492027D01*
X39029200Y-102460809D01*
X39029200Y-102069191D01*
X39032275Y-102037973D01*
X39040654Y-102010350D01*
X39054264Y-101984887D01*
X39072575Y-101962575D01*
X39094887Y-101944264D01*
X39120350Y-101930654D01*
X39147973Y-101922275D01*
X39179191Y-101919200D01*
X39620809Y-101919200D01*
X39652027Y-101922275D01*
G37*
G36*
X40802027Y-101872275D02*
G01*
X40829650Y-101880654D01*
X40855113Y-101894264D01*
X40877425Y-101912575D01*
X40895736Y-101934887D01*
X40909346Y-101960350D01*
X40917725Y-101987973D01*
X40920800Y-102019191D01*
X40920800Y-102410809D01*
X40917725Y-102442027D01*
X40909346Y-102469650D01*
X40895736Y-102495113D01*
X40877425Y-102517425D01*
X40855113Y-102535736D01*
X40829650Y-102549346D01*
X40802027Y-102557725D01*
X40770809Y-102560800D01*
X40329191Y-102560800D01*
X40297973Y-102557725D01*
X40270350Y-102549346D01*
X40244887Y-102535736D01*
X40222575Y-102517425D01*
X40204264Y-102495113D01*
X40190654Y-102469650D01*
X40182275Y-102442027D01*
X40179200Y-102410809D01*
X40179200Y-102019191D01*
X40182275Y-101987973D01*
X40190654Y-101960350D01*
X40204264Y-101934887D01*
X40222575Y-101912575D01*
X40244887Y-101894264D01*
X40270350Y-101880654D01*
X40297973Y-101872275D01*
X40329191Y-101869200D01*
X40770809Y-101869200D01*
X40802027Y-101872275D01*
G37*
G36*
X43002027Y-101872275D02*
G01*
X43029650Y-101880654D01*
X43055113Y-101894264D01*
X43077425Y-101912575D01*
X43095736Y-101934887D01*
X43109346Y-101960350D01*
X43117725Y-101987973D01*
X43120800Y-102019191D01*
X43120800Y-102410809D01*
X43117725Y-102442027D01*
X43109346Y-102469650D01*
X43095736Y-102495113D01*
X43077425Y-102517425D01*
X43055113Y-102535736D01*
X43029650Y-102549346D01*
X43002027Y-102557725D01*
X42970809Y-102560800D01*
X42529191Y-102560800D01*
X42497973Y-102557725D01*
X42470350Y-102549346D01*
X42444887Y-102535736D01*
X42422575Y-102517425D01*
X42404264Y-102495113D01*
X42390654Y-102469650D01*
X42382275Y-102442027D01*
X42379200Y-102410809D01*
X42379200Y-102019191D01*
X42382275Y-101987973D01*
X42390654Y-101960350D01*
X42404264Y-101934887D01*
X42422575Y-101912575D01*
X42444887Y-101894264D01*
X42470350Y-101880654D01*
X42497973Y-101872275D01*
X42529191Y-101869200D01*
X42970809Y-101869200D01*
X43002027Y-101872275D01*
G37*
G36*
X41902027Y-101847275D02*
G01*
X41929650Y-101855654D01*
X41955113Y-101869264D01*
X41977425Y-101887575D01*
X41995736Y-101909887D01*
X42009346Y-101935350D01*
X42017725Y-101962973D01*
X42020800Y-101994191D01*
X42020800Y-102385809D01*
X42017725Y-102417027D01*
X42009346Y-102444650D01*
X41995736Y-102470113D01*
X41977425Y-102492425D01*
X41955113Y-102510736D01*
X41929650Y-102524346D01*
X41902027Y-102532725D01*
X41870809Y-102535800D01*
X41429191Y-102535800D01*
X41397973Y-102532725D01*
X41370350Y-102524346D01*
X41344887Y-102510736D01*
X41322575Y-102492425D01*
X41304264Y-102470113D01*
X41290654Y-102444650D01*
X41282275Y-102417027D01*
X41279200Y-102385809D01*
X41279200Y-101994191D01*
X41282275Y-101962973D01*
X41290654Y-101935350D01*
X41304264Y-101909887D01*
X41322575Y-101887575D01*
X41344887Y-101869264D01*
X41370350Y-101855654D01*
X41397973Y-101847275D01*
X41429191Y-101844200D01*
X41870809Y-101844200D01*
X41902027Y-101847275D01*
G37*
G36*
X42350800Y-101450800D02*
G01*
X41749200Y-101450800D01*
X41749200Y-101049200D01*
X42350800Y-101049200D01*
X42350800Y-101450800D01*
G37*
G36*
X41350800Y-101450800D02*
G01*
X40749200Y-101450800D01*
X40749200Y-101049200D01*
X41350800Y-101049200D01*
X41350800Y-101450800D01*
G37*
G36*
X28834584Y-99954004D02*
G01*
X28879091Y-99967505D01*
X28920112Y-99989431D01*
X28956064Y-100018936D01*
X28985569Y-100054888D01*
X29007495Y-100095909D01*
X29020996Y-100140416D01*
X29025800Y-100189193D01*
X29025800Y-100860807D01*
X29020996Y-100909584D01*
X29007495Y-100954091D01*
X28985569Y-100995112D01*
X28956064Y-101031064D01*
X28920112Y-101060569D01*
X28879091Y-101082495D01*
X28834584Y-101095996D01*
X28785807Y-101100800D01*
X28214193Y-101100800D01*
X28165416Y-101095996D01*
X28120909Y-101082495D01*
X28079888Y-101060569D01*
X28043936Y-101031064D01*
X28014431Y-100995112D01*
X27992505Y-100954091D01*
X27979004Y-100909584D01*
X27974200Y-100860807D01*
X27974200Y-100189193D01*
X27979004Y-100140416D01*
X27992505Y-100095909D01*
X28014431Y-100054888D01*
X28043936Y-100018936D01*
X28079888Y-99989431D01*
X28120909Y-99967505D01*
X28165416Y-99954004D01*
X28214193Y-99949200D01*
X28785807Y-99949200D01*
X28834584Y-99954004D01*
G37*
G36*
X31639352Y-100115406D02*
G01*
X31666975Y-100123785D01*
X31692438Y-100137395D01*
X31716689Y-100157297D01*
X31993597Y-100434205D01*
X32013499Y-100458456D01*
X32027109Y-100483919D01*
X32035488Y-100511542D01*
X32038318Y-100540269D01*
X32035488Y-100568996D01*
X32027109Y-100596619D01*
X32013499Y-100622082D01*
X31993597Y-100646333D01*
X31681333Y-100958597D01*
X31657082Y-100978499D01*
X31631619Y-100992109D01*
X31603996Y-101000488D01*
X31575269Y-101003318D01*
X31546542Y-101000488D01*
X31518919Y-100992109D01*
X31493456Y-100978499D01*
X31469205Y-100958597D01*
X31192297Y-100681689D01*
X31172395Y-100657438D01*
X31158785Y-100631975D01*
X31150406Y-100604352D01*
X31147576Y-100575625D01*
X31150406Y-100546898D01*
X31158785Y-100519275D01*
X31172395Y-100493812D01*
X31192297Y-100469561D01*
X31504561Y-100157297D01*
X31528812Y-100137395D01*
X31554275Y-100123785D01*
X31581898Y-100115406D01*
X31610625Y-100112576D01*
X31639352Y-100115406D01*
G37*
G36*
X41350800Y-100900800D02*
G01*
X40749200Y-100900800D01*
X40749200Y-100499200D01*
X41350800Y-100499200D01*
X41350800Y-100900800D01*
G37*
G36*
X42350800Y-100900800D02*
G01*
X41749200Y-100900800D01*
X41749200Y-100499200D01*
X42350800Y-100499200D01*
X42350800Y-100900800D01*
G37*
G36*
X41350800Y-100350800D02*
G01*
X40749200Y-100350800D01*
X40749200Y-99949200D01*
X41350800Y-99949200D01*
X41350800Y-100350800D01*
G37*
G36*
X42350800Y-100350800D02*
G01*
X41749200Y-100350800D01*
X41749200Y-99949200D01*
X42350800Y-99949200D01*
X42350800Y-100350800D01*
G37*
G36*
X30953458Y-99429512D02*
G01*
X30981081Y-99437891D01*
X31006544Y-99451501D01*
X31030795Y-99471403D01*
X31307703Y-99748311D01*
X31327605Y-99772562D01*
X31341215Y-99798025D01*
X31349594Y-99825648D01*
X31352424Y-99854375D01*
X31349594Y-99883102D01*
X31341215Y-99910725D01*
X31327605Y-99936188D01*
X31307703Y-99960439D01*
X30995439Y-100272703D01*
X30971188Y-100292605D01*
X30945725Y-100306215D01*
X30918102Y-100314594D01*
X30889375Y-100317424D01*
X30860648Y-100314594D01*
X30833025Y-100306215D01*
X30807562Y-100292605D01*
X30783311Y-100272703D01*
X30506403Y-99995795D01*
X30486501Y-99971544D01*
X30472891Y-99946081D01*
X30464512Y-99918458D01*
X30461682Y-99889731D01*
X30464512Y-99861004D01*
X30472891Y-99833381D01*
X30486501Y-99807918D01*
X30506403Y-99783667D01*
X30818667Y-99471403D01*
X30842918Y-99451501D01*
X30868381Y-99437891D01*
X30896004Y-99429512D01*
X30924731Y-99426682D01*
X30953458Y-99429512D01*
G37*
G36*
X32539352Y-99265406D02*
G01*
X32566975Y-99273785D01*
X32592438Y-99287395D01*
X32616689Y-99307297D01*
X32893597Y-99584205D01*
X32913499Y-99608456D01*
X32927109Y-99633919D01*
X32935488Y-99661542D01*
X32938318Y-99690269D01*
X32935488Y-99718996D01*
X32927109Y-99746619D01*
X32913499Y-99772082D01*
X32893597Y-99796333D01*
X32581333Y-100108597D01*
X32557082Y-100128499D01*
X32531619Y-100142109D01*
X32503996Y-100150488D01*
X32475269Y-100153318D01*
X32446542Y-100150488D01*
X32418919Y-100142109D01*
X32393456Y-100128499D01*
X32369205Y-100108597D01*
X32092297Y-99831689D01*
X32072395Y-99807438D01*
X32058785Y-99781975D01*
X32050406Y-99754352D01*
X32047576Y-99725625D01*
X32050406Y-99696898D01*
X32058785Y-99669275D01*
X32072395Y-99643812D01*
X32092297Y-99619561D01*
X32404561Y-99307297D01*
X32428812Y-99287395D01*
X32454275Y-99273785D01*
X32481898Y-99265406D01*
X32510625Y-99262576D01*
X32539352Y-99265406D01*
G37*
G36*
X34029647Y-98392949D02*
G01*
X34074154Y-98406450D01*
X34115175Y-98428376D01*
X34153070Y-98459476D01*
X34627960Y-98934366D01*
X34659060Y-98972261D01*
X34680986Y-99013282D01*
X34694487Y-99057789D01*
X34699045Y-99104073D01*
X34694487Y-99150357D01*
X34680986Y-99194864D01*
X34659060Y-99235885D01*
X34627960Y-99273780D01*
X34223780Y-99677960D01*
X34185885Y-99709060D01*
X34144864Y-99730986D01*
X34100357Y-99744487D01*
X34054073Y-99749045D01*
X34007789Y-99744487D01*
X33963282Y-99730986D01*
X33922261Y-99709060D01*
X33884366Y-99677960D01*
X33409476Y-99203070D01*
X33378376Y-99165175D01*
X33356450Y-99124154D01*
X33342949Y-99079647D01*
X33338391Y-99033363D01*
X33342949Y-98987079D01*
X33356450Y-98942572D01*
X33378376Y-98901551D01*
X33409476Y-98863656D01*
X33813656Y-98459476D01*
X33851551Y-98428376D01*
X33892572Y-98406450D01*
X33937079Y-98392949D01*
X33983363Y-98388391D01*
X34029647Y-98392949D01*
G37*
G36*
X31853458Y-98579512D02*
G01*
X31881081Y-98587891D01*
X31906544Y-98601501D01*
X31930795Y-98621403D01*
X32207703Y-98898311D01*
X32227605Y-98922562D01*
X32241215Y-98948025D01*
X32249594Y-98975648D01*
X32252424Y-99004375D01*
X32249594Y-99033102D01*
X32241215Y-99060725D01*
X32227605Y-99086188D01*
X32207703Y-99110439D01*
X31895439Y-99422703D01*
X31871188Y-99442605D01*
X31845725Y-99456215D01*
X31818102Y-99464594D01*
X31789375Y-99467424D01*
X31760648Y-99464594D01*
X31733025Y-99456215D01*
X31707562Y-99442605D01*
X31683311Y-99422703D01*
X31406403Y-99145795D01*
X31386501Y-99121544D01*
X31372891Y-99096081D01*
X31364512Y-99068458D01*
X31361682Y-99039731D01*
X31364512Y-99011004D01*
X31372891Y-98983381D01*
X31386501Y-98957918D01*
X31406403Y-98933667D01*
X31718667Y-98621403D01*
X31742918Y-98601501D01*
X31768381Y-98587891D01*
X31796004Y-98579512D01*
X31824731Y-98576682D01*
X31853458Y-98579512D01*
G37*
G36*
X41402027Y-98767275D02*
G01*
X41429650Y-98775654D01*
X41455113Y-98789264D01*
X41477425Y-98807575D01*
X41495736Y-98829887D01*
X41509346Y-98855350D01*
X41517725Y-98882973D01*
X41520800Y-98914191D01*
X41520800Y-99305809D01*
X41517725Y-99337027D01*
X41509346Y-99364650D01*
X41495736Y-99390113D01*
X41477425Y-99412425D01*
X41455113Y-99430736D01*
X41429650Y-99444346D01*
X41402027Y-99452725D01*
X41370809Y-99455800D01*
X40929191Y-99455800D01*
X40897973Y-99452725D01*
X40870350Y-99444346D01*
X40844887Y-99430736D01*
X40822575Y-99412425D01*
X40804264Y-99390113D01*
X40790654Y-99364650D01*
X40782275Y-99337027D01*
X40779200Y-99305809D01*
X40779200Y-98914191D01*
X40782275Y-98882973D01*
X40790654Y-98855350D01*
X40804264Y-98829887D01*
X40822575Y-98807575D01*
X40844887Y-98789264D01*
X40870350Y-98775654D01*
X40897973Y-98767275D01*
X40929191Y-98764200D01*
X41370809Y-98764200D01*
X41402027Y-98767275D01*
G37*
G36*
X42352027Y-98767275D02*
G01*
X42379650Y-98775654D01*
X42405113Y-98789264D01*
X42427425Y-98807575D01*
X42445736Y-98829887D01*
X42459346Y-98855350D01*
X42467725Y-98882973D01*
X42470800Y-98914191D01*
X42470800Y-99305809D01*
X42467725Y-99337027D01*
X42459346Y-99364650D01*
X42445736Y-99390113D01*
X42427425Y-99412425D01*
X42405113Y-99430736D01*
X42379650Y-99444346D01*
X42352027Y-99452725D01*
X42320809Y-99455800D01*
X41879191Y-99455800D01*
X41847973Y-99452725D01*
X41820350Y-99444346D01*
X41794887Y-99430736D01*
X41772575Y-99412425D01*
X41754264Y-99390113D01*
X41740654Y-99364650D01*
X41732275Y-99337027D01*
X41729200Y-99305809D01*
X41729200Y-98914191D01*
X41732275Y-98882973D01*
X41740654Y-98855350D01*
X41754264Y-98829887D01*
X41772575Y-98807575D01*
X41794887Y-98789264D01*
X41820350Y-98775654D01*
X41847973Y-98767275D01*
X41879191Y-98764200D01*
X42320809Y-98764200D01*
X42352027Y-98767275D01*
G37*
G36*
X28834584Y-98204004D02*
G01*
X28879091Y-98217505D01*
X28920112Y-98239431D01*
X28956064Y-98268936D01*
X28985569Y-98304888D01*
X29007495Y-98345909D01*
X29020996Y-98390416D01*
X29025800Y-98439193D01*
X29025800Y-99110807D01*
X29020996Y-99159584D01*
X29007495Y-99204091D01*
X28985569Y-99245112D01*
X28956064Y-99281064D01*
X28920112Y-99310569D01*
X28879091Y-99332495D01*
X28834584Y-99345996D01*
X28785807Y-99350800D01*
X28214193Y-99350800D01*
X28165416Y-99345996D01*
X28120909Y-99332495D01*
X28079888Y-99310569D01*
X28043936Y-99281064D01*
X28014431Y-99245112D01*
X27992505Y-99204091D01*
X27979004Y-99159584D01*
X27974200Y-99110807D01*
X27974200Y-98439193D01*
X27979004Y-98390416D01*
X27992505Y-98345909D01*
X28014431Y-98304888D01*
X28043936Y-98268936D01*
X28079888Y-98239431D01*
X28120909Y-98217505D01*
X28165416Y-98204004D01*
X28214193Y-98199200D01*
X28785807Y-98199200D01*
X28834584Y-98204004D01*
G37*
G36*
X44709584Y-98129004D02*
G01*
X44754091Y-98142505D01*
X44795112Y-98164431D01*
X44831064Y-98193936D01*
X44860569Y-98229888D01*
X44882495Y-98270909D01*
X44895996Y-98315416D01*
X44900800Y-98364193D01*
X44900800Y-98935807D01*
X44895996Y-98984584D01*
X44882495Y-99029091D01*
X44860569Y-99070112D01*
X44831064Y-99106064D01*
X44795112Y-99135569D01*
X44754091Y-99157495D01*
X44709584Y-99170996D01*
X44660807Y-99175800D01*
X43989193Y-99175800D01*
X43940416Y-99170996D01*
X43895909Y-99157495D01*
X43854888Y-99135569D01*
X43818936Y-99106064D01*
X43789431Y-99070112D01*
X43767505Y-99029091D01*
X43754004Y-98984584D01*
X43749200Y-98935807D01*
X43749200Y-98364193D01*
X43754004Y-98315416D01*
X43767505Y-98270909D01*
X43789431Y-98229888D01*
X43818936Y-98193936D01*
X43854888Y-98164431D01*
X43895909Y-98142505D01*
X43940416Y-98129004D01*
X43989193Y-98124200D01*
X44660807Y-98124200D01*
X44709584Y-98129004D01*
G37*
G36*
X46459584Y-98129004D02*
G01*
X46504091Y-98142505D01*
X46545112Y-98164431D01*
X46581064Y-98193936D01*
X46610569Y-98229888D01*
X46632495Y-98270909D01*
X46645996Y-98315416D01*
X46650800Y-98364193D01*
X46650800Y-98935807D01*
X46645996Y-98984584D01*
X46632495Y-99029091D01*
X46610569Y-99070112D01*
X46581064Y-99106064D01*
X46545112Y-99135569D01*
X46504091Y-99157495D01*
X46459584Y-99170996D01*
X46410807Y-99175800D01*
X45739193Y-99175800D01*
X45690416Y-99170996D01*
X45645909Y-99157495D01*
X45604888Y-99135569D01*
X45568936Y-99106064D01*
X45539431Y-99070112D01*
X45517505Y-99029091D01*
X45504004Y-98984584D01*
X45499200Y-98935807D01*
X45499200Y-98364193D01*
X45504004Y-98315416D01*
X45517505Y-98270909D01*
X45539431Y-98229888D01*
X45568936Y-98193936D01*
X45604888Y-98164431D01*
X45645909Y-98142505D01*
X45690416Y-98129004D01*
X45739193Y-98124200D01*
X46410807Y-98124200D01*
X46459584Y-98129004D01*
G37*
G36*
X35379647Y-97292949D02*
G01*
X35424154Y-97306450D01*
X35465175Y-97328376D01*
X35503070Y-97359476D01*
X35977960Y-97834366D01*
X36009060Y-97872261D01*
X36030986Y-97913282D01*
X36044487Y-97957789D01*
X36049045Y-98004073D01*
X36044487Y-98050357D01*
X36030986Y-98094864D01*
X36009060Y-98135885D01*
X35977960Y-98173780D01*
X35573780Y-98577960D01*
X35535885Y-98609060D01*
X35494864Y-98630986D01*
X35450357Y-98644487D01*
X35404073Y-98649045D01*
X35357789Y-98644487D01*
X35313282Y-98630986D01*
X35272261Y-98609060D01*
X35234366Y-98577960D01*
X34759476Y-98103070D01*
X34728376Y-98065175D01*
X34706450Y-98024154D01*
X34692949Y-97979647D01*
X34688391Y-97933363D01*
X34692949Y-97887079D01*
X34706450Y-97842572D01*
X34728376Y-97801551D01*
X34759476Y-97763656D01*
X35163656Y-97359476D01*
X35201551Y-97328376D01*
X35242572Y-97306450D01*
X35287079Y-97292949D01*
X35333363Y-97288391D01*
X35379647Y-97292949D01*
G37*
G36*
X32792211Y-97155513D02*
G01*
X32836718Y-97169014D01*
X32877739Y-97190940D01*
X32915634Y-97222040D01*
X33390524Y-97696930D01*
X33421624Y-97734825D01*
X33443550Y-97775846D01*
X33457051Y-97820353D01*
X33461609Y-97866637D01*
X33457051Y-97912921D01*
X33443550Y-97957428D01*
X33421624Y-97998449D01*
X33390524Y-98036344D01*
X32986344Y-98440524D01*
X32948449Y-98471624D01*
X32907428Y-98493550D01*
X32862921Y-98507051D01*
X32816637Y-98511609D01*
X32770353Y-98507051D01*
X32725846Y-98493550D01*
X32684825Y-98471624D01*
X32646930Y-98440524D01*
X32172040Y-97965634D01*
X32140940Y-97927739D01*
X32119014Y-97886718D01*
X32105513Y-97842211D01*
X32100955Y-97795927D01*
X32105513Y-97749643D01*
X32119014Y-97705136D01*
X32140940Y-97664115D01*
X32172040Y-97626220D01*
X32576220Y-97222040D01*
X32614115Y-97190940D01*
X32655136Y-97169014D01*
X32699643Y-97155513D01*
X32745927Y-97150955D01*
X32792211Y-97155513D01*
G37*
G36*
X42352027Y-97797275D02*
G01*
X42379650Y-97805654D01*
X42405113Y-97819264D01*
X42427425Y-97837575D01*
X42445736Y-97859887D01*
X42459346Y-97885350D01*
X42467725Y-97912973D01*
X42470800Y-97944191D01*
X42470800Y-98335809D01*
X42467725Y-98367027D01*
X42459346Y-98394650D01*
X42445736Y-98420113D01*
X42427425Y-98442425D01*
X42405113Y-98460736D01*
X42379650Y-98474346D01*
X42352027Y-98482725D01*
X42320809Y-98485800D01*
X41879191Y-98485800D01*
X41847973Y-98482725D01*
X41820350Y-98474346D01*
X41794887Y-98460736D01*
X41772575Y-98442425D01*
X41754264Y-98420113D01*
X41740654Y-98394650D01*
X41732275Y-98367027D01*
X41729200Y-98335809D01*
X41729200Y-97944191D01*
X41732275Y-97912973D01*
X41740654Y-97885350D01*
X41754264Y-97859887D01*
X41772575Y-97837575D01*
X41794887Y-97819264D01*
X41820350Y-97805654D01*
X41847973Y-97797275D01*
X41879191Y-97794200D01*
X42320809Y-97794200D01*
X42352027Y-97797275D01*
G37*
G36*
X41402027Y-97797275D02*
G01*
X41429650Y-97805654D01*
X41455113Y-97819264D01*
X41477425Y-97837575D01*
X41495736Y-97859887D01*
X41509346Y-97885350D01*
X41517725Y-97912973D01*
X41520800Y-97944191D01*
X41520800Y-98335809D01*
X41517725Y-98367027D01*
X41509346Y-98394650D01*
X41495736Y-98420113D01*
X41477425Y-98442425D01*
X41455113Y-98460736D01*
X41429650Y-98474346D01*
X41402027Y-98482725D01*
X41370809Y-98485800D01*
X40929191Y-98485800D01*
X40897973Y-98482725D01*
X40870350Y-98474346D01*
X40844887Y-98460736D01*
X40822575Y-98442425D01*
X40804264Y-98420113D01*
X40790654Y-98394650D01*
X40782275Y-98367027D01*
X40779200Y-98335809D01*
X40779200Y-97944191D01*
X40782275Y-97912973D01*
X40790654Y-97885350D01*
X40804264Y-97859887D01*
X40822575Y-97837575D01*
X40844887Y-97819264D01*
X40870350Y-97805654D01*
X40897973Y-97797275D01*
X40929191Y-97794200D01*
X41370809Y-97794200D01*
X41402027Y-97797275D01*
G37*
G36*
X20212754Y-96013817D02*
G01*
X20376689Y-96081721D01*
X20524227Y-96180303D01*
X20649697Y-96305773D01*
X20748279Y-96453311D01*
X20816183Y-96617246D01*
X20850800Y-96791279D01*
X20850800Y-96968721D01*
X20816183Y-97142754D01*
X20748279Y-97306689D01*
X20649697Y-97454227D01*
X20524227Y-97579697D01*
X20376689Y-97678279D01*
X20212754Y-97746183D01*
X20038721Y-97780800D01*
X19861279Y-97780800D01*
X19687246Y-97746183D01*
X19523311Y-97678279D01*
X19375773Y-97579697D01*
X19250303Y-97454227D01*
X19151721Y-97306689D01*
X19083817Y-97142754D01*
X19049200Y-96968721D01*
X19049200Y-96791279D01*
X19083817Y-96617246D01*
X19151721Y-96453311D01*
X19250303Y-96305773D01*
X19375773Y-96180303D01*
X19523311Y-96081721D01*
X19687246Y-96013817D01*
X19861279Y-95979200D01*
X20038721Y-95979200D01*
X20212754Y-96013817D01*
G37*
G36*
X44942027Y-96832275D02*
G01*
X44969650Y-96840654D01*
X44995113Y-96854264D01*
X45017425Y-96872575D01*
X45035736Y-96894887D01*
X45049346Y-96920350D01*
X45057725Y-96947973D01*
X45060800Y-96979191D01*
X45060800Y-97420809D01*
X45057725Y-97452027D01*
X45049346Y-97479650D01*
X45035736Y-97505113D01*
X45017425Y-97527425D01*
X44995113Y-97545736D01*
X44969650Y-97559346D01*
X44942027Y-97567725D01*
X44910809Y-97570800D01*
X44519191Y-97570800D01*
X44487973Y-97567725D01*
X44460350Y-97559346D01*
X44434887Y-97545736D01*
X44412575Y-97527425D01*
X44394264Y-97505113D01*
X44380654Y-97479650D01*
X44372275Y-97452027D01*
X44369200Y-97420809D01*
X44369200Y-96979191D01*
X44372275Y-96947973D01*
X44380654Y-96920350D01*
X44394264Y-96894887D01*
X44412575Y-96872575D01*
X44434887Y-96854264D01*
X44460350Y-96840654D01*
X44487973Y-96832275D01*
X44519191Y-96829200D01*
X44910809Y-96829200D01*
X44942027Y-96832275D01*
G37*
G36*
X45912027Y-96832275D02*
G01*
X45939650Y-96840654D01*
X45965113Y-96854264D01*
X45987425Y-96872575D01*
X46005736Y-96894887D01*
X46019346Y-96920350D01*
X46027725Y-96947973D01*
X46030800Y-96979191D01*
X46030800Y-97420809D01*
X46027725Y-97452027D01*
X46019346Y-97479650D01*
X46005736Y-97505113D01*
X45987425Y-97527425D01*
X45965113Y-97545736D01*
X45939650Y-97559346D01*
X45912027Y-97567725D01*
X45880809Y-97570800D01*
X45489191Y-97570800D01*
X45457973Y-97567725D01*
X45430350Y-97559346D01*
X45404887Y-97545736D01*
X45382575Y-97527425D01*
X45364264Y-97505113D01*
X45350654Y-97479650D01*
X45342275Y-97452027D01*
X45339200Y-97420809D01*
X45339200Y-96979191D01*
X45342275Y-96947973D01*
X45350654Y-96920350D01*
X45364264Y-96894887D01*
X45382575Y-96872575D01*
X45404887Y-96854264D01*
X45430350Y-96840654D01*
X45457973Y-96832275D01*
X45489191Y-96829200D01*
X45880809Y-96829200D01*
X45912027Y-96832275D01*
G37*
G36*
X41402027Y-96792275D02*
G01*
X41429650Y-96800654D01*
X41455113Y-96814264D01*
X41477425Y-96832575D01*
X41495736Y-96854887D01*
X41509346Y-96880350D01*
X41517725Y-96907973D01*
X41520800Y-96939191D01*
X41520800Y-97330809D01*
X41517725Y-97362027D01*
X41509346Y-97389650D01*
X41495736Y-97415113D01*
X41477425Y-97437425D01*
X41455113Y-97455736D01*
X41429650Y-97469346D01*
X41402027Y-97477725D01*
X41370809Y-97480800D01*
X40929191Y-97480800D01*
X40897973Y-97477725D01*
X40870350Y-97469346D01*
X40844887Y-97455736D01*
X40822575Y-97437425D01*
X40804264Y-97415113D01*
X40790654Y-97389650D01*
X40782275Y-97362027D01*
X40779200Y-97330809D01*
X40779200Y-96939191D01*
X40782275Y-96907973D01*
X40790654Y-96880350D01*
X40804264Y-96854887D01*
X40822575Y-96832575D01*
X40844887Y-96814264D01*
X40870350Y-96800654D01*
X40897973Y-96792275D01*
X40929191Y-96789200D01*
X41370809Y-96789200D01*
X41402027Y-96792275D01*
G37*
G36*
X42352027Y-96792275D02*
G01*
X42379650Y-96800654D01*
X42405113Y-96814264D01*
X42427425Y-96832575D01*
X42445736Y-96854887D01*
X42459346Y-96880350D01*
X42467725Y-96907973D01*
X42470800Y-96939191D01*
X42470800Y-97330809D01*
X42467725Y-97362027D01*
X42459346Y-97389650D01*
X42445736Y-97415113D01*
X42427425Y-97437425D01*
X42405113Y-97455736D01*
X42379650Y-97469346D01*
X42352027Y-97477725D01*
X42320809Y-97480800D01*
X41879191Y-97480800D01*
X41847973Y-97477725D01*
X41820350Y-97469346D01*
X41794887Y-97455736D01*
X41772575Y-97437425D01*
X41754264Y-97415113D01*
X41740654Y-97389650D01*
X41732275Y-97362027D01*
X41729200Y-97330809D01*
X41729200Y-96939191D01*
X41732275Y-96907973D01*
X41740654Y-96880350D01*
X41754264Y-96854887D01*
X41772575Y-96832575D01*
X41794887Y-96814264D01*
X41820350Y-96800654D01*
X41847973Y-96792275D01*
X41879191Y-96789200D01*
X42320809Y-96789200D01*
X42352027Y-96792275D01*
G37*
G36*
X34142211Y-96055513D02*
G01*
X34186718Y-96069014D01*
X34227739Y-96090940D01*
X34265634Y-96122040D01*
X34740524Y-96596930D01*
X34771624Y-96634825D01*
X34793550Y-96675846D01*
X34807051Y-96720353D01*
X34811609Y-96766637D01*
X34807051Y-96812921D01*
X34793550Y-96857428D01*
X34771624Y-96898449D01*
X34740524Y-96936344D01*
X34336344Y-97340524D01*
X34298449Y-97371624D01*
X34257428Y-97393550D01*
X34212921Y-97407051D01*
X34166637Y-97411609D01*
X34120353Y-97407051D01*
X34075846Y-97393550D01*
X34034825Y-97371624D01*
X33996930Y-97340524D01*
X33522040Y-96865634D01*
X33490940Y-96827739D01*
X33469014Y-96786718D01*
X33455513Y-96742211D01*
X33450955Y-96695927D01*
X33455513Y-96649643D01*
X33469014Y-96605136D01*
X33490940Y-96564115D01*
X33522040Y-96526220D01*
X33926220Y-96122040D01*
X33964115Y-96090940D01*
X34005136Y-96069014D01*
X34049643Y-96055513D01*
X34095927Y-96050955D01*
X34142211Y-96055513D01*
G37*
G36*
X50410663Y-96120367D02*
G01*
X50510902Y-96161887D01*
X50601116Y-96222166D01*
X50677834Y-96298884D01*
X50738113Y-96389098D01*
X50779633Y-96489337D01*
X50800800Y-96595751D01*
X50800800Y-96704249D01*
X50779633Y-96810663D01*
X50738113Y-96910902D01*
X50677834Y-97001116D01*
X50601116Y-97077834D01*
X50510902Y-97138113D01*
X50410663Y-97179633D01*
X50304249Y-97200800D01*
X50195751Y-97200800D01*
X50089337Y-97179633D01*
X49989098Y-97138113D01*
X49898884Y-97077834D01*
X49822166Y-97001116D01*
X49761887Y-96910902D01*
X49720367Y-96810663D01*
X49699200Y-96704249D01*
X49699200Y-96595751D01*
X49720367Y-96489337D01*
X49761887Y-96389098D01*
X49822166Y-96298884D01*
X49898884Y-96222166D01*
X49989098Y-96161887D01*
X50089337Y-96120367D01*
X50195751Y-96099200D01*
X50304249Y-96099200D01*
X50410663Y-96120367D01*
G37*
G36*
X45912027Y-95782275D02*
G01*
X45939650Y-95790654D01*
X45965113Y-95804264D01*
X45987425Y-95822575D01*
X46005736Y-95844887D01*
X46019346Y-95870350D01*
X46027725Y-95897973D01*
X46030800Y-95929191D01*
X46030800Y-96370809D01*
X46027725Y-96402027D01*
X46019346Y-96429650D01*
X46005736Y-96455113D01*
X45987425Y-96477425D01*
X45965113Y-96495736D01*
X45939650Y-96509346D01*
X45912027Y-96517725D01*
X45880809Y-96520800D01*
X45489191Y-96520800D01*
X45457973Y-96517725D01*
X45430350Y-96509346D01*
X45404887Y-96495736D01*
X45382575Y-96477425D01*
X45364264Y-96455113D01*
X45350654Y-96429650D01*
X45342275Y-96402027D01*
X45339200Y-96370809D01*
X45339200Y-95929191D01*
X45342275Y-95897973D01*
X45350654Y-95870350D01*
X45364264Y-95844887D01*
X45382575Y-95822575D01*
X45404887Y-95804264D01*
X45430350Y-95790654D01*
X45457973Y-95782275D01*
X45489191Y-95779200D01*
X45880809Y-95779200D01*
X45912027Y-95782275D01*
G37*
G36*
X44942027Y-95782275D02*
G01*
X44969650Y-95790654D01*
X44995113Y-95804264D01*
X45017425Y-95822575D01*
X45035736Y-95844887D01*
X45049346Y-95870350D01*
X45057725Y-95897973D01*
X45060800Y-95929191D01*
X45060800Y-96370809D01*
X45057725Y-96402027D01*
X45049346Y-96429650D01*
X45035736Y-96455113D01*
X45017425Y-96477425D01*
X44995113Y-96495736D01*
X44969650Y-96509346D01*
X44942027Y-96517725D01*
X44910809Y-96520800D01*
X44519191Y-96520800D01*
X44487973Y-96517725D01*
X44460350Y-96509346D01*
X44434887Y-96495736D01*
X44412575Y-96477425D01*
X44394264Y-96455113D01*
X44380654Y-96429650D01*
X44372275Y-96402027D01*
X44369200Y-96370809D01*
X44369200Y-95929191D01*
X44372275Y-95897973D01*
X44380654Y-95870350D01*
X44394264Y-95844887D01*
X44412575Y-95822575D01*
X44434887Y-95804264D01*
X44460350Y-95790654D01*
X44487973Y-95782275D01*
X44519191Y-95779200D01*
X44910809Y-95779200D01*
X44942027Y-95782275D01*
G37*
G36*
X41402027Y-95822275D02*
G01*
X41429650Y-95830654D01*
X41455113Y-95844264D01*
X41477425Y-95862575D01*
X41495736Y-95884887D01*
X41509346Y-95910350D01*
X41517725Y-95937973D01*
X41520800Y-95969191D01*
X41520800Y-96360809D01*
X41517725Y-96392027D01*
X41509346Y-96419650D01*
X41495736Y-96445113D01*
X41477425Y-96467425D01*
X41455113Y-96485736D01*
X41429650Y-96499346D01*
X41402027Y-96507725D01*
X41370809Y-96510800D01*
X40929191Y-96510800D01*
X40897973Y-96507725D01*
X40870350Y-96499346D01*
X40844887Y-96485736D01*
X40822575Y-96467425D01*
X40804264Y-96445113D01*
X40790654Y-96419650D01*
X40782275Y-96392027D01*
X40779200Y-96360809D01*
X40779200Y-95969191D01*
X40782275Y-95937973D01*
X40790654Y-95910350D01*
X40804264Y-95884887D01*
X40822575Y-95862575D01*
X40844887Y-95844264D01*
X40870350Y-95830654D01*
X40897973Y-95822275D01*
X40929191Y-95819200D01*
X41370809Y-95819200D01*
X41402027Y-95822275D01*
G37*
G36*
X42352027Y-95822275D02*
G01*
X42379650Y-95830654D01*
X42405113Y-95844264D01*
X42427425Y-95862575D01*
X42445736Y-95884887D01*
X42459346Y-95910350D01*
X42467725Y-95937973D01*
X42470800Y-95969191D01*
X42470800Y-96360809D01*
X42467725Y-96392027D01*
X42459346Y-96419650D01*
X42445736Y-96445113D01*
X42427425Y-96467425D01*
X42405113Y-96485736D01*
X42379650Y-96499346D01*
X42352027Y-96507725D01*
X42320809Y-96510800D01*
X41879191Y-96510800D01*
X41847973Y-96507725D01*
X41820350Y-96499346D01*
X41794887Y-96485736D01*
X41772575Y-96467425D01*
X41754264Y-96445113D01*
X41740654Y-96419650D01*
X41732275Y-96392027D01*
X41729200Y-96360809D01*
X41729200Y-95969191D01*
X41732275Y-95937973D01*
X41740654Y-95910350D01*
X41754264Y-95884887D01*
X41772575Y-95862575D01*
X41794887Y-95844264D01*
X41820350Y-95830654D01*
X41847973Y-95822275D01*
X41879191Y-95819200D01*
X42320809Y-95819200D01*
X42352027Y-95822275D01*
G37*
G36*
X37829647Y-94942949D02*
G01*
X37874154Y-94956450D01*
X37915175Y-94978376D01*
X37953070Y-95009476D01*
X38427960Y-95484366D01*
X38459060Y-95522261D01*
X38480986Y-95563282D01*
X38494487Y-95607789D01*
X38499045Y-95654073D01*
X38494487Y-95700357D01*
X38480986Y-95744864D01*
X38459060Y-95785885D01*
X38427960Y-95823780D01*
X38023780Y-96227960D01*
X37985885Y-96259060D01*
X37944864Y-96280986D01*
X37900357Y-96294487D01*
X37854073Y-96299045D01*
X37807789Y-96294487D01*
X37763282Y-96280986D01*
X37722261Y-96259060D01*
X37684366Y-96227960D01*
X37209476Y-95753070D01*
X37178376Y-95715175D01*
X37156450Y-95674154D01*
X37142949Y-95629647D01*
X37138391Y-95583363D01*
X37142949Y-95537079D01*
X37156450Y-95492572D01*
X37178376Y-95451551D01*
X37209476Y-95413656D01*
X37613656Y-95009476D01*
X37651551Y-94978376D01*
X37692572Y-94956450D01*
X37737079Y-94942949D01*
X37783363Y-94938391D01*
X37829647Y-94942949D01*
G37*
G36*
X41402027Y-94742275D02*
G01*
X41429650Y-94750654D01*
X41455113Y-94764264D01*
X41477425Y-94782575D01*
X41495736Y-94804887D01*
X41509346Y-94830350D01*
X41517725Y-94857973D01*
X41520800Y-94889191D01*
X41520800Y-95280809D01*
X41517725Y-95312027D01*
X41509346Y-95339650D01*
X41495736Y-95365113D01*
X41477425Y-95387425D01*
X41455113Y-95405736D01*
X41429650Y-95419346D01*
X41402027Y-95427725D01*
X41370809Y-95430800D01*
X40929191Y-95430800D01*
X40897973Y-95427725D01*
X40870350Y-95419346D01*
X40844887Y-95405736D01*
X40822575Y-95387425D01*
X40804264Y-95365113D01*
X40790654Y-95339650D01*
X40782275Y-95312027D01*
X40779200Y-95280809D01*
X40779200Y-94889191D01*
X40782275Y-94857973D01*
X40790654Y-94830350D01*
X40804264Y-94804887D01*
X40822575Y-94782575D01*
X40844887Y-94764264D01*
X40870350Y-94750654D01*
X40897973Y-94742275D01*
X40929191Y-94739200D01*
X41370809Y-94739200D01*
X41402027Y-94742275D01*
G37*
G36*
X42352027Y-94742275D02*
G01*
X42379650Y-94750654D01*
X42405113Y-94764264D01*
X42427425Y-94782575D01*
X42445736Y-94804887D01*
X42459346Y-94830350D01*
X42467725Y-94857973D01*
X42470800Y-94889191D01*
X42470800Y-95280809D01*
X42467725Y-95312027D01*
X42459346Y-95339650D01*
X42445736Y-95365113D01*
X42427425Y-95387425D01*
X42405113Y-95405736D01*
X42379650Y-95419346D01*
X42352027Y-95427725D01*
X42320809Y-95430800D01*
X41879191Y-95430800D01*
X41847973Y-95427725D01*
X41820350Y-95419346D01*
X41794887Y-95405736D01*
X41772575Y-95387425D01*
X41754264Y-95365113D01*
X41740654Y-95339650D01*
X41732275Y-95312027D01*
X41729200Y-95280809D01*
X41729200Y-94889191D01*
X41732275Y-94857973D01*
X41740654Y-94830350D01*
X41754264Y-94804887D01*
X41772575Y-94782575D01*
X41794887Y-94764264D01*
X41820350Y-94750654D01*
X41847973Y-94742275D01*
X41879191Y-94739200D01*
X42320809Y-94739200D01*
X42352027Y-94742275D01*
G37*
G36*
X46609584Y-94229004D02*
G01*
X46654091Y-94242505D01*
X46695112Y-94264431D01*
X46731064Y-94293936D01*
X46760569Y-94329888D01*
X46782495Y-94370909D01*
X46795996Y-94415416D01*
X46800800Y-94464193D01*
X46800800Y-95035807D01*
X46795996Y-95084584D01*
X46782495Y-95129091D01*
X46760569Y-95170112D01*
X46731064Y-95206064D01*
X46695112Y-95235569D01*
X46654091Y-95257495D01*
X46609584Y-95270996D01*
X46560807Y-95275800D01*
X45889193Y-95275800D01*
X45840416Y-95270996D01*
X45795909Y-95257495D01*
X45754888Y-95235569D01*
X45718936Y-95206064D01*
X45689431Y-95170112D01*
X45667505Y-95129091D01*
X45654004Y-95084584D01*
X45649200Y-95035807D01*
X45649200Y-94464193D01*
X45654004Y-94415416D01*
X45667505Y-94370909D01*
X45689431Y-94329888D01*
X45718936Y-94293936D01*
X45754888Y-94264431D01*
X45795909Y-94242505D01*
X45840416Y-94229004D01*
X45889193Y-94224200D01*
X46560807Y-94224200D01*
X46609584Y-94229004D01*
G37*
G36*
X44859584Y-94229004D02*
G01*
X44904091Y-94242505D01*
X44945112Y-94264431D01*
X44981064Y-94293936D01*
X45010569Y-94329888D01*
X45032495Y-94370909D01*
X45045996Y-94415416D01*
X45050800Y-94464193D01*
X45050800Y-95035807D01*
X45045996Y-95084584D01*
X45032495Y-95129091D01*
X45010569Y-95170112D01*
X44981064Y-95206064D01*
X44945112Y-95235569D01*
X44904091Y-95257495D01*
X44859584Y-95270996D01*
X44810807Y-95275800D01*
X44139193Y-95275800D01*
X44090416Y-95270996D01*
X44045909Y-95257495D01*
X44004888Y-95235569D01*
X43968936Y-95206064D01*
X43939431Y-95170112D01*
X43917505Y-95129091D01*
X43904004Y-95084584D01*
X43899200Y-95035807D01*
X43899200Y-94464193D01*
X43904004Y-94415416D01*
X43917505Y-94370909D01*
X43939431Y-94329888D01*
X43968936Y-94293936D01*
X44004888Y-94264431D01*
X44045909Y-94242505D01*
X44090416Y-94229004D01*
X44139193Y-94224200D01*
X44810807Y-94224200D01*
X44859584Y-94229004D01*
G37*
G36*
X20212754Y-93473817D02*
G01*
X20376689Y-93541721D01*
X20524227Y-93640303D01*
X20649697Y-93765773D01*
X20748279Y-93913311D01*
X20816183Y-94077246D01*
X20850800Y-94251279D01*
X20850800Y-94428721D01*
X20816183Y-94602754D01*
X20748279Y-94766689D01*
X20649697Y-94914227D01*
X20524227Y-95039697D01*
X20376689Y-95138279D01*
X20212754Y-95206183D01*
X20038721Y-95240800D01*
X19861279Y-95240800D01*
X19687246Y-95206183D01*
X19523311Y-95138279D01*
X19375773Y-95039697D01*
X19250303Y-94914227D01*
X19151721Y-94766689D01*
X19083817Y-94602754D01*
X19049200Y-94428721D01*
X19049200Y-94251279D01*
X19083817Y-94077246D01*
X19151721Y-93913311D01*
X19250303Y-93765773D01*
X19375773Y-93640303D01*
X19523311Y-93541721D01*
X19687246Y-93473817D01*
X19861279Y-93439200D01*
X20038721Y-93439200D01*
X20212754Y-93473817D01*
G37*
G36*
X48709584Y-94079004D02*
G01*
X48754091Y-94092505D01*
X48795112Y-94114431D01*
X48831064Y-94143936D01*
X48860569Y-94179888D01*
X48882495Y-94220909D01*
X48895996Y-94265416D01*
X48900800Y-94314193D01*
X48900800Y-94885807D01*
X48895996Y-94934584D01*
X48882495Y-94979091D01*
X48860569Y-95020112D01*
X48831064Y-95056064D01*
X48795112Y-95085569D01*
X48754091Y-95107495D01*
X48709584Y-95120996D01*
X48660807Y-95125800D01*
X47989193Y-95125800D01*
X47940416Y-95120996D01*
X47895909Y-95107495D01*
X47854888Y-95085569D01*
X47818936Y-95056064D01*
X47789431Y-95020112D01*
X47767505Y-94979091D01*
X47754004Y-94934584D01*
X47749200Y-94885807D01*
X47749200Y-94314193D01*
X47754004Y-94265416D01*
X47767505Y-94220909D01*
X47789431Y-94179888D01*
X47818936Y-94143936D01*
X47854888Y-94114431D01*
X47895909Y-94092505D01*
X47940416Y-94079004D01*
X47989193Y-94074200D01*
X48660807Y-94074200D01*
X48709584Y-94079004D01*
G37*
G36*
X50459584Y-94079004D02*
G01*
X50504091Y-94092505D01*
X50545112Y-94114431D01*
X50581064Y-94143936D01*
X50610569Y-94179888D01*
X50632495Y-94220909D01*
X50645996Y-94265416D01*
X50650800Y-94314193D01*
X50650800Y-94885807D01*
X50645996Y-94934584D01*
X50632495Y-94979091D01*
X50610569Y-95020112D01*
X50581064Y-95056064D01*
X50545112Y-95085569D01*
X50504091Y-95107495D01*
X50459584Y-95120996D01*
X50410807Y-95125800D01*
X49739193Y-95125800D01*
X49690416Y-95120996D01*
X49645909Y-95107495D01*
X49604888Y-95085569D01*
X49568936Y-95056064D01*
X49539431Y-95020112D01*
X49517505Y-94979091D01*
X49504004Y-94934584D01*
X49499200Y-94885807D01*
X49499200Y-94314193D01*
X49504004Y-94265416D01*
X49517505Y-94220909D01*
X49539431Y-94179888D01*
X49568936Y-94143936D01*
X49604888Y-94114431D01*
X49645909Y-94092505D01*
X49690416Y-94079004D01*
X49739193Y-94074200D01*
X50410807Y-94074200D01*
X50459584Y-94079004D01*
G37*
G36*
X36592211Y-93705513D02*
G01*
X36636718Y-93719014D01*
X36677739Y-93740940D01*
X36715634Y-93772040D01*
X37190524Y-94246930D01*
X37221624Y-94284825D01*
X37243550Y-94325846D01*
X37257051Y-94370353D01*
X37261609Y-94416637D01*
X37257051Y-94462921D01*
X37243550Y-94507428D01*
X37221624Y-94548449D01*
X37190524Y-94586344D01*
X36786344Y-94990524D01*
X36748449Y-95021624D01*
X36707428Y-95043550D01*
X36662921Y-95057051D01*
X36616637Y-95061609D01*
X36570353Y-95057051D01*
X36525846Y-95043550D01*
X36484825Y-95021624D01*
X36446930Y-94990524D01*
X35972040Y-94515634D01*
X35940940Y-94477739D01*
X35919014Y-94436718D01*
X35905513Y-94392211D01*
X35900955Y-94345927D01*
X35905513Y-94299643D01*
X35919014Y-94255136D01*
X35940940Y-94214115D01*
X35972040Y-94176220D01*
X36376220Y-93772040D01*
X36414115Y-93740940D01*
X36455136Y-93719014D01*
X36499643Y-93705513D01*
X36545927Y-93700955D01*
X36592211Y-93705513D01*
G37*
G36*
X39079647Y-93692949D02*
G01*
X39124154Y-93706450D01*
X39165175Y-93728376D01*
X39203070Y-93759476D01*
X39677960Y-94234366D01*
X39709060Y-94272261D01*
X39730986Y-94313282D01*
X39744487Y-94357789D01*
X39749045Y-94404073D01*
X39744487Y-94450357D01*
X39730986Y-94494864D01*
X39709060Y-94535885D01*
X39677960Y-94573780D01*
X39273780Y-94977960D01*
X39235885Y-95009060D01*
X39194864Y-95030986D01*
X39150357Y-95044487D01*
X39104073Y-95049045D01*
X39057789Y-95044487D01*
X39013282Y-95030986D01*
X38972261Y-95009060D01*
X38934366Y-94977960D01*
X38459476Y-94503070D01*
X38428376Y-94465175D01*
X38406450Y-94424154D01*
X38392949Y-94379647D01*
X38388391Y-94333363D01*
X38392949Y-94287079D01*
X38406450Y-94242572D01*
X38428376Y-94201551D01*
X38459476Y-94163656D01*
X38863656Y-93759476D01*
X38901551Y-93728376D01*
X38942572Y-93706450D01*
X38987079Y-93692949D01*
X39033363Y-93688391D01*
X39079647Y-93692949D01*
G37*
G36*
X34759584Y-93829004D02*
G01*
X34804091Y-93842505D01*
X34845112Y-93864431D01*
X34881064Y-93893936D01*
X34910569Y-93929888D01*
X34932495Y-93970909D01*
X34945996Y-94015416D01*
X34950800Y-94064193D01*
X34950800Y-94635807D01*
X34945996Y-94684584D01*
X34932495Y-94729091D01*
X34910569Y-94770112D01*
X34881064Y-94806064D01*
X34845112Y-94835569D01*
X34804091Y-94857495D01*
X34759584Y-94870996D01*
X34710807Y-94875800D01*
X34039193Y-94875800D01*
X33990416Y-94870996D01*
X33945909Y-94857495D01*
X33904888Y-94835569D01*
X33868936Y-94806064D01*
X33839431Y-94770112D01*
X33817505Y-94729091D01*
X33804004Y-94684584D01*
X33799200Y-94635807D01*
X33799200Y-94064193D01*
X33804004Y-94015416D01*
X33817505Y-93970909D01*
X33839431Y-93929888D01*
X33868936Y-93893936D01*
X33904888Y-93864431D01*
X33945909Y-93842505D01*
X33990416Y-93829004D01*
X34039193Y-93824200D01*
X34710807Y-93824200D01*
X34759584Y-93829004D01*
G37*
G36*
X33009584Y-93829004D02*
G01*
X33054091Y-93842505D01*
X33095112Y-93864431D01*
X33131064Y-93893936D01*
X33160569Y-93929888D01*
X33182495Y-93970909D01*
X33195996Y-94015416D01*
X33200800Y-94064193D01*
X33200800Y-94635807D01*
X33195996Y-94684584D01*
X33182495Y-94729091D01*
X33160569Y-94770112D01*
X33131064Y-94806064D01*
X33095112Y-94835569D01*
X33054091Y-94857495D01*
X33009584Y-94870996D01*
X32960807Y-94875800D01*
X32289193Y-94875800D01*
X32240416Y-94870996D01*
X32195909Y-94857495D01*
X32154888Y-94835569D01*
X32118936Y-94806064D01*
X32089431Y-94770112D01*
X32067505Y-94729091D01*
X32054004Y-94684584D01*
X32049200Y-94635807D01*
X32049200Y-94064193D01*
X32054004Y-94015416D01*
X32067505Y-93970909D01*
X32089431Y-93929888D01*
X32118936Y-93893936D01*
X32154888Y-93864431D01*
X32195909Y-93842505D01*
X32240416Y-93829004D01*
X32289193Y-93824200D01*
X32960807Y-93824200D01*
X33009584Y-93829004D01*
G37*
G36*
X41402027Y-93772275D02*
G01*
X41429650Y-93780654D01*
X41455113Y-93794264D01*
X41477425Y-93812575D01*
X41495736Y-93834887D01*
X41509346Y-93860350D01*
X41517725Y-93887973D01*
X41520800Y-93919191D01*
X41520800Y-94310809D01*
X41517725Y-94342027D01*
X41509346Y-94369650D01*
X41495736Y-94395113D01*
X41477425Y-94417425D01*
X41455113Y-94435736D01*
X41429650Y-94449346D01*
X41402027Y-94457725D01*
X41370809Y-94460800D01*
X40929191Y-94460800D01*
X40897973Y-94457725D01*
X40870350Y-94449346D01*
X40844887Y-94435736D01*
X40822575Y-94417425D01*
X40804264Y-94395113D01*
X40790654Y-94369650D01*
X40782275Y-94342027D01*
X40779200Y-94310809D01*
X40779200Y-93919191D01*
X40782275Y-93887973D01*
X40790654Y-93860350D01*
X40804264Y-93834887D01*
X40822575Y-93812575D01*
X40844887Y-93794264D01*
X40870350Y-93780654D01*
X40897973Y-93772275D01*
X40929191Y-93769200D01*
X41370809Y-93769200D01*
X41402027Y-93772275D01*
G37*
G36*
X42352027Y-93772275D02*
G01*
X42379650Y-93780654D01*
X42405113Y-93794264D01*
X42427425Y-93812575D01*
X42445736Y-93834887D01*
X42459346Y-93860350D01*
X42467725Y-93887973D01*
X42470800Y-93919191D01*
X42470800Y-94310809D01*
X42467725Y-94342027D01*
X42459346Y-94369650D01*
X42445736Y-94395113D01*
X42427425Y-94417425D01*
X42405113Y-94435736D01*
X42379650Y-94449346D01*
X42352027Y-94457725D01*
X42320809Y-94460800D01*
X41879191Y-94460800D01*
X41847973Y-94457725D01*
X41820350Y-94449346D01*
X41794887Y-94435736D01*
X41772575Y-94417425D01*
X41754264Y-94395113D01*
X41740654Y-94369650D01*
X41732275Y-94342027D01*
X41729200Y-94310809D01*
X41729200Y-93919191D01*
X41732275Y-93887973D01*
X41740654Y-93860350D01*
X41754264Y-93834887D01*
X41772575Y-93812575D01*
X41794887Y-93794264D01*
X41820350Y-93780654D01*
X41847973Y-93772275D01*
X41879191Y-93769200D01*
X42320809Y-93769200D01*
X42352027Y-93772275D01*
G37*
G36*
X31402027Y-93692275D02*
G01*
X31429650Y-93700654D01*
X31455113Y-93714264D01*
X31477425Y-93732575D01*
X31495736Y-93754887D01*
X31509346Y-93780350D01*
X31517725Y-93807973D01*
X31520800Y-93839191D01*
X31520800Y-94230809D01*
X31517725Y-94262027D01*
X31509346Y-94289650D01*
X31495736Y-94315113D01*
X31477425Y-94337425D01*
X31455113Y-94355736D01*
X31429650Y-94369346D01*
X31402027Y-94377725D01*
X31370809Y-94380800D01*
X30929191Y-94380800D01*
X30897973Y-94377725D01*
X30870350Y-94369346D01*
X30844887Y-94355736D01*
X30822575Y-94337425D01*
X30804264Y-94315113D01*
X30790654Y-94289650D01*
X30782275Y-94262027D01*
X30779200Y-94230809D01*
X30779200Y-93839191D01*
X30782275Y-93807973D01*
X30790654Y-93780350D01*
X30804264Y-93754887D01*
X30822575Y-93732575D01*
X30844887Y-93714264D01*
X30870350Y-93700654D01*
X30897973Y-93692275D01*
X30929191Y-93689200D01*
X31370809Y-93689200D01*
X31402027Y-93692275D01*
G37*
G36*
X37842211Y-92455513D02*
G01*
X37886718Y-92469014D01*
X37927739Y-92490940D01*
X37965634Y-92522040D01*
X38440524Y-92996930D01*
X38471624Y-93034825D01*
X38493550Y-93075846D01*
X38507051Y-93120353D01*
X38511609Y-93166637D01*
X38507051Y-93212921D01*
X38493551Y-93257426D01*
X38471624Y-93298449D01*
X38440524Y-93336344D01*
X38036344Y-93740524D01*
X37998449Y-93771624D01*
X37957428Y-93793550D01*
X37912921Y-93807051D01*
X37866637Y-93811609D01*
X37820353Y-93807051D01*
X37775846Y-93793550D01*
X37734825Y-93771624D01*
X37696930Y-93740524D01*
X37222040Y-93265634D01*
X37190940Y-93227739D01*
X37169014Y-93186718D01*
X37155513Y-93142211D01*
X37150955Y-93095927D01*
X37155513Y-93049643D01*
X37169014Y-93005136D01*
X37190940Y-92964115D01*
X37222040Y-92926220D01*
X37626220Y-92522040D01*
X37664115Y-92490940D01*
X37705136Y-92469014D01*
X37749643Y-92455513D01*
X37795927Y-92450955D01*
X37842211Y-92455513D01*
G37*
G36*
X44859584Y-92629004D02*
G01*
X44904091Y-92642505D01*
X44945112Y-92664431D01*
X44981064Y-92693936D01*
X45010569Y-92729888D01*
X45032495Y-92770909D01*
X45045996Y-92815416D01*
X45050800Y-92864193D01*
X45050800Y-93435807D01*
X45045996Y-93484584D01*
X45032495Y-93529091D01*
X45010569Y-93570112D01*
X44981064Y-93606064D01*
X44945112Y-93635569D01*
X44904091Y-93657495D01*
X44859584Y-93670996D01*
X44810807Y-93675800D01*
X44139193Y-93675800D01*
X44090416Y-93670996D01*
X44045909Y-93657495D01*
X44004888Y-93635569D01*
X43968936Y-93606064D01*
X43939431Y-93570112D01*
X43917505Y-93529091D01*
X43904004Y-93484584D01*
X43899200Y-93435807D01*
X43899200Y-92864193D01*
X43904004Y-92815416D01*
X43917505Y-92770909D01*
X43939431Y-92729888D01*
X43968936Y-92693936D01*
X44004888Y-92664431D01*
X44045909Y-92642505D01*
X44090416Y-92629004D01*
X44139193Y-92624200D01*
X44810807Y-92624200D01*
X44859584Y-92629004D01*
G37*
G36*
X46609584Y-92629004D02*
G01*
X46654091Y-92642505D01*
X46695112Y-92664431D01*
X46731064Y-92693936D01*
X46760569Y-92729888D01*
X46782495Y-92770909D01*
X46795996Y-92815416D01*
X46800800Y-92864193D01*
X46800800Y-93435807D01*
X46795996Y-93484584D01*
X46782495Y-93529091D01*
X46760569Y-93570112D01*
X46731064Y-93606064D01*
X46695112Y-93635569D01*
X46654091Y-93657495D01*
X46609584Y-93670996D01*
X46560807Y-93675800D01*
X45889193Y-93675800D01*
X45840416Y-93670996D01*
X45795909Y-93657495D01*
X45754888Y-93635569D01*
X45718936Y-93606064D01*
X45689431Y-93570112D01*
X45667505Y-93529091D01*
X45654004Y-93484584D01*
X45649200Y-93435807D01*
X45649200Y-92864193D01*
X45654004Y-92815416D01*
X45667505Y-92770909D01*
X45689431Y-92729888D01*
X45718936Y-92693936D01*
X45754888Y-92664431D01*
X45795909Y-92642505D01*
X45840416Y-92629004D01*
X45889193Y-92624200D01*
X46560807Y-92624200D01*
X46609584Y-92629004D01*
G37*
G36*
X50604857Y-92004117D02*
G01*
X50650465Y-92017952D01*
X50692504Y-92040422D01*
X50729344Y-92070656D01*
X50759578Y-92107496D01*
X50782048Y-92149535D01*
X50795883Y-92195143D01*
X50800800Y-92245065D01*
X50800800Y-93254935D01*
X50795883Y-93304857D01*
X50782048Y-93350465D01*
X50759578Y-93392504D01*
X50729344Y-93429344D01*
X50692504Y-93459578D01*
X50650465Y-93482048D01*
X50604857Y-93495883D01*
X50554935Y-93500800D01*
X49795065Y-93500800D01*
X49745143Y-93495883D01*
X49699535Y-93482048D01*
X49657496Y-93459578D01*
X49620656Y-93429344D01*
X49590422Y-93392504D01*
X49567952Y-93350465D01*
X49554117Y-93304857D01*
X49549200Y-93254935D01*
X49549200Y-92245065D01*
X49554117Y-92195143D01*
X49567952Y-92149535D01*
X49590422Y-92107496D01*
X49620656Y-92070656D01*
X49657496Y-92040422D01*
X49699535Y-92017952D01*
X49745143Y-92004117D01*
X49795065Y-91999200D01*
X50554935Y-91999200D01*
X50604857Y-92004117D01*
G37*
G36*
X48554857Y-92004117D02*
G01*
X48600465Y-92017952D01*
X48642504Y-92040422D01*
X48679344Y-92070656D01*
X48709578Y-92107496D01*
X48732048Y-92149535D01*
X48745883Y-92195143D01*
X48750800Y-92245065D01*
X48750800Y-93254935D01*
X48745883Y-93304857D01*
X48732048Y-93350465D01*
X48709578Y-93392504D01*
X48679344Y-93429344D01*
X48642504Y-93459578D01*
X48600465Y-93482048D01*
X48554857Y-93495883D01*
X48504935Y-93500800D01*
X47745065Y-93500800D01*
X47695143Y-93495883D01*
X47649535Y-93482048D01*
X47607496Y-93459578D01*
X47570656Y-93429344D01*
X47540422Y-93392504D01*
X47517952Y-93350465D01*
X47504117Y-93304857D01*
X47499200Y-93254935D01*
X47499200Y-92245065D01*
X47504117Y-92195143D01*
X47517952Y-92149535D01*
X47540422Y-92107496D01*
X47570656Y-92070656D01*
X47607496Y-92040422D01*
X47649535Y-92017952D01*
X47695143Y-92004117D01*
X47745065Y-91999200D01*
X48504935Y-91999200D01*
X48554857Y-92004117D01*
G37*
G36*
X31402027Y-92722275D02*
G01*
X31429650Y-92730654D01*
X31455113Y-92744264D01*
X31477425Y-92762575D01*
X31495736Y-92784887D01*
X31509346Y-92810350D01*
X31517725Y-92837973D01*
X31520800Y-92869191D01*
X31520800Y-93260809D01*
X31517725Y-93292027D01*
X31509346Y-93319650D01*
X31495736Y-93345113D01*
X31477425Y-93367425D01*
X31455113Y-93385736D01*
X31429650Y-93399346D01*
X31402027Y-93407725D01*
X31370809Y-93410800D01*
X30929191Y-93410800D01*
X30897973Y-93407725D01*
X30870350Y-93399346D01*
X30844887Y-93385736D01*
X30822575Y-93367425D01*
X30804264Y-93345113D01*
X30790654Y-93319650D01*
X30782275Y-93292027D01*
X30779200Y-93260809D01*
X30779200Y-92869191D01*
X30782275Y-92837973D01*
X30790654Y-92810350D01*
X30804264Y-92784887D01*
X30822575Y-92762575D01*
X30844887Y-92744264D01*
X30870350Y-92730654D01*
X30897973Y-92722275D01*
X30929191Y-92719200D01*
X31370809Y-92719200D01*
X31402027Y-92722275D01*
G37*
G36*
X33009584Y-92179004D02*
G01*
X33054091Y-92192505D01*
X33095112Y-92214431D01*
X33131064Y-92243936D01*
X33160569Y-92279888D01*
X33182495Y-92320909D01*
X33195996Y-92365416D01*
X33200800Y-92414193D01*
X33200800Y-92985807D01*
X33195996Y-93034584D01*
X33182495Y-93079091D01*
X33160569Y-93120112D01*
X33131064Y-93156064D01*
X33095112Y-93185569D01*
X33054091Y-93207495D01*
X33009584Y-93220996D01*
X32960807Y-93225800D01*
X32289193Y-93225800D01*
X32240416Y-93220996D01*
X32195909Y-93207495D01*
X32154888Y-93185569D01*
X32118936Y-93156064D01*
X32089431Y-93120112D01*
X32067505Y-93079091D01*
X32054004Y-93034584D01*
X32049200Y-92985807D01*
X32049200Y-92414193D01*
X32054004Y-92365416D01*
X32067505Y-92320909D01*
X32089431Y-92279888D01*
X32118936Y-92243936D01*
X32154888Y-92214431D01*
X32195909Y-92192505D01*
X32240416Y-92179004D01*
X32289193Y-92174200D01*
X32960807Y-92174200D01*
X33009584Y-92179004D01*
G37*
G36*
X34759584Y-92179004D02*
G01*
X34804091Y-92192505D01*
X34845112Y-92214431D01*
X34881064Y-92243936D01*
X34910569Y-92279888D01*
X34932495Y-92320909D01*
X34945996Y-92365416D01*
X34950800Y-92414193D01*
X34950800Y-92985807D01*
X34945996Y-93034584D01*
X34932495Y-93079091D01*
X34910569Y-93120112D01*
X34881064Y-93156064D01*
X34845112Y-93185569D01*
X34804091Y-93207495D01*
X34759584Y-93220996D01*
X34710807Y-93225800D01*
X34039193Y-93225800D01*
X33990416Y-93220996D01*
X33945909Y-93207495D01*
X33904888Y-93185569D01*
X33868936Y-93156064D01*
X33839431Y-93120112D01*
X33817505Y-93079091D01*
X33804004Y-93034584D01*
X33799200Y-92985807D01*
X33799200Y-92414193D01*
X33804004Y-92365416D01*
X33817505Y-92320909D01*
X33839431Y-92279888D01*
X33868936Y-92243936D01*
X33904888Y-92214431D01*
X33945909Y-92192505D01*
X33990416Y-92179004D01*
X34039193Y-92174200D01*
X34710807Y-92174200D01*
X34759584Y-92179004D01*
G37*
G36*
X20212754Y-90933817D02*
G01*
X20376689Y-91001721D01*
X20524227Y-91100303D01*
X20649697Y-91225773D01*
X20748279Y-91373311D01*
X20816183Y-91537246D01*
X20850800Y-91711279D01*
X20850800Y-91888721D01*
X20816183Y-92062754D01*
X20748279Y-92226689D01*
X20649697Y-92374227D01*
X20524227Y-92499697D01*
X20376689Y-92598279D01*
X20212754Y-92666183D01*
X20038721Y-92700800D01*
X19861279Y-92700800D01*
X19687246Y-92666183D01*
X19523311Y-92598279D01*
X19375773Y-92499697D01*
X19250303Y-92374227D01*
X19151721Y-92226689D01*
X19083817Y-92062754D01*
X19049200Y-91888721D01*
X19049200Y-91711279D01*
X19083817Y-91537246D01*
X19151721Y-91373311D01*
X19250303Y-91225773D01*
X19375773Y-91100303D01*
X19523311Y-91001721D01*
X19687246Y-90933817D01*
X19861279Y-90899200D01*
X20038721Y-90899200D01*
X20212754Y-90933817D01*
G37*
G36*
X42575000Y-88374201D02*
G01*
X42575976Y-88384111D01*
X42578867Y-88393641D01*
X42583561Y-88402423D01*
X42589879Y-88410121D01*
X42597577Y-88416439D01*
X42606359Y-88421133D01*
X42615889Y-88424024D01*
X42625799Y-88425000D01*
X43200000Y-88425000D01*
X43200000Y-91375000D01*
X42625799Y-91375000D01*
X42615889Y-91375976D01*
X42606359Y-91378867D01*
X42597577Y-91383561D01*
X42589879Y-91389879D01*
X42583561Y-91397577D01*
X42578867Y-91406359D01*
X42575976Y-91415889D01*
X42575000Y-91425799D01*
X42575000Y-92000000D01*
X39625000Y-92000000D01*
X39625000Y-91425799D01*
X39624024Y-91415889D01*
X39621133Y-91406359D01*
X39616439Y-91397577D01*
X39610121Y-91389879D01*
X39602423Y-91383561D01*
X39593641Y-91378867D01*
X39584111Y-91375976D01*
X39574201Y-91375000D01*
X39000000Y-91375000D01*
X39000000Y-88450799D01*
X39600000Y-88450799D01*
X39600000Y-91349201D01*
X39600976Y-91359111D01*
X39603867Y-91368641D01*
X39608561Y-91377423D01*
X39614879Y-91385121D01*
X39622577Y-91391439D01*
X39631359Y-91396133D01*
X39640889Y-91399024D01*
X39650799Y-91400000D01*
X42549201Y-91400000D01*
X42559111Y-91399024D01*
X42568641Y-91396133D01*
X42577423Y-91391439D01*
X42585121Y-91385121D01*
X42591439Y-91377423D01*
X42596133Y-91368641D01*
X42599024Y-91359111D01*
X42600000Y-91349201D01*
X42600000Y-88450799D01*
X42599024Y-88440889D01*
X42596133Y-88431359D01*
X42591439Y-88422577D01*
X42585121Y-88414879D01*
X42577423Y-88408561D01*
X42568641Y-88403867D01*
X42559111Y-88400976D01*
X42549201Y-88400000D01*
X39650799Y-88400000D01*
X39640889Y-88400976D01*
X39631359Y-88403867D01*
X39622577Y-88408561D01*
X39614879Y-88414879D01*
X39608561Y-88422577D01*
X39603867Y-88431359D01*
X39600976Y-88440889D01*
X39600000Y-88450799D01*
X39000000Y-88450799D01*
X39000000Y-88425000D01*
X39574201Y-88425000D01*
X39584111Y-88424024D01*
X39593641Y-88421133D01*
X39602423Y-88416439D01*
X39610121Y-88410121D01*
X39616439Y-88402423D01*
X39621133Y-88393641D01*
X39624024Y-88384111D01*
X39625000Y-88374201D01*
X39625000Y-87800000D01*
X42575000Y-87800000D01*
X42575000Y-88374201D01*
G37*
G36*
X42370000Y-91170000D02*
G01*
X39830000Y-91170000D01*
X39830000Y-88630000D01*
X42370000Y-88630000D01*
X42370000Y-91170000D01*
G37*
G36*
X44952027Y-91292275D02*
G01*
X44979650Y-91300654D01*
X45005113Y-91314264D01*
X45027425Y-91332575D01*
X45045736Y-91354887D01*
X45059346Y-91380350D01*
X45067725Y-91407973D01*
X45070800Y-91439191D01*
X45070800Y-91830809D01*
X45067725Y-91862027D01*
X45059346Y-91889650D01*
X45045736Y-91915113D01*
X45027425Y-91937425D01*
X45005113Y-91955736D01*
X44979650Y-91969346D01*
X44952027Y-91977725D01*
X44920809Y-91980800D01*
X44479191Y-91980800D01*
X44447973Y-91977725D01*
X44420350Y-91969346D01*
X44394887Y-91955736D01*
X44372575Y-91937425D01*
X44354264Y-91915113D01*
X44340654Y-91889650D01*
X44332275Y-91862027D01*
X44329200Y-91830809D01*
X44329200Y-91439191D01*
X44332275Y-91407973D01*
X44340654Y-91380350D01*
X44354264Y-91354887D01*
X44372575Y-91332575D01*
X44394887Y-91314264D01*
X44420350Y-91300654D01*
X44447973Y-91292275D01*
X44479191Y-91289200D01*
X44920809Y-91289200D01*
X44952027Y-91292275D01*
G37*
G36*
X45952027Y-91292275D02*
G01*
X45979650Y-91300654D01*
X46005113Y-91314264D01*
X46027425Y-91332575D01*
X46045736Y-91354887D01*
X46059346Y-91380350D01*
X46067725Y-91407973D01*
X46070800Y-91439191D01*
X46070800Y-91830809D01*
X46067725Y-91862027D01*
X46059346Y-91889650D01*
X46045736Y-91915113D01*
X46027425Y-91937425D01*
X46005113Y-91955736D01*
X45979650Y-91969346D01*
X45952027Y-91977725D01*
X45920809Y-91980800D01*
X45479191Y-91980800D01*
X45447973Y-91977725D01*
X45420350Y-91969346D01*
X45394887Y-91955736D01*
X45372575Y-91937425D01*
X45354264Y-91915113D01*
X45340654Y-91889650D01*
X45332275Y-91862027D01*
X45329200Y-91830809D01*
X45329200Y-91439191D01*
X45332275Y-91407973D01*
X45340654Y-91380350D01*
X45354264Y-91354887D01*
X45372575Y-91332575D01*
X45394887Y-91314264D01*
X45420350Y-91300654D01*
X45447973Y-91292275D01*
X45479191Y-91289200D01*
X45920809Y-91289200D01*
X45952027Y-91292275D01*
G37*
G36*
X30260663Y-90820367D02*
G01*
X30360902Y-90861887D01*
X30451116Y-90922166D01*
X30527834Y-90998884D01*
X30588113Y-91089098D01*
X30629633Y-91189337D01*
X30650800Y-91295751D01*
X30650800Y-91404249D01*
X30629633Y-91510663D01*
X30588113Y-91610902D01*
X30527834Y-91701116D01*
X30451116Y-91777834D01*
X30360902Y-91838113D01*
X30260663Y-91879633D01*
X30154249Y-91900800D01*
X30045751Y-91900800D01*
X29939337Y-91879633D01*
X29839098Y-91838113D01*
X29748884Y-91777834D01*
X29672166Y-91701116D01*
X29611887Y-91610902D01*
X29570367Y-91510663D01*
X29549200Y-91404249D01*
X29549200Y-91295751D01*
X29570367Y-91189337D01*
X29611887Y-91089098D01*
X29672166Y-90998884D01*
X29748884Y-90922166D01*
X29839098Y-90861887D01*
X29939337Y-90820367D01*
X30045751Y-90799200D01*
X30154249Y-90799200D01*
X30260663Y-90820367D01*
G37*
G36*
X27512027Y-90632275D02*
G01*
X27539650Y-90640654D01*
X27565113Y-90654264D01*
X27587425Y-90672575D01*
X27605736Y-90694887D01*
X27619346Y-90720350D01*
X27627725Y-90747973D01*
X27630800Y-90779191D01*
X27630800Y-91220809D01*
X27627725Y-91252027D01*
X27619346Y-91279650D01*
X27605736Y-91305113D01*
X27587425Y-91327425D01*
X27565113Y-91345736D01*
X27539650Y-91359346D01*
X27512027Y-91367725D01*
X27480809Y-91370800D01*
X27089191Y-91370800D01*
X27057973Y-91367725D01*
X27030350Y-91359346D01*
X27004887Y-91345736D01*
X26982575Y-91327425D01*
X26964264Y-91305113D01*
X26950654Y-91279650D01*
X26942275Y-91252027D01*
X26939200Y-91220809D01*
X26939200Y-90779191D01*
X26942275Y-90747973D01*
X26950654Y-90720350D01*
X26964264Y-90694887D01*
X26982575Y-90672575D01*
X27004887Y-90654264D01*
X27030350Y-90640654D01*
X27057973Y-90632275D01*
X27089191Y-90629200D01*
X27480809Y-90629200D01*
X27512027Y-90632275D01*
G37*
G36*
X26542027Y-90632275D02*
G01*
X26569650Y-90640654D01*
X26595113Y-90654264D01*
X26617425Y-90672575D01*
X26635736Y-90694887D01*
X26649346Y-90720350D01*
X26657725Y-90747973D01*
X26660800Y-90779191D01*
X26660800Y-91220809D01*
X26657725Y-91252027D01*
X26649346Y-91279650D01*
X26635736Y-91305113D01*
X26617425Y-91327425D01*
X26595113Y-91345736D01*
X26569650Y-91359346D01*
X26542027Y-91367725D01*
X26510809Y-91370800D01*
X26119191Y-91370800D01*
X26087973Y-91367725D01*
X26060350Y-91359346D01*
X26034887Y-91345736D01*
X26012575Y-91327425D01*
X25994264Y-91305113D01*
X25980654Y-91279650D01*
X25972275Y-91252027D01*
X25969200Y-91220809D01*
X25969200Y-90779191D01*
X25972275Y-90747973D01*
X25980654Y-90720350D01*
X25994264Y-90694887D01*
X26012575Y-90672575D01*
X26034887Y-90654264D01*
X26060350Y-90640654D01*
X26087973Y-90632275D01*
X26119191Y-90629200D01*
X26510809Y-90629200D01*
X26542027Y-90632275D01*
G37*
G36*
X44952027Y-90322275D02*
G01*
X44979650Y-90330654D01*
X45005113Y-90344264D01*
X45027425Y-90362575D01*
X45045736Y-90384887D01*
X45059346Y-90410350D01*
X45067725Y-90437973D01*
X45070800Y-90469191D01*
X45070800Y-90860809D01*
X45067725Y-90892027D01*
X45059346Y-90919650D01*
X45045736Y-90945113D01*
X45027425Y-90967425D01*
X45005113Y-90985736D01*
X44979650Y-90999346D01*
X44952027Y-91007725D01*
X44920809Y-91010800D01*
X44479191Y-91010800D01*
X44447973Y-91007725D01*
X44420350Y-90999346D01*
X44394887Y-90985736D01*
X44372575Y-90967425D01*
X44354264Y-90945113D01*
X44340654Y-90919650D01*
X44332275Y-90892027D01*
X44329200Y-90860809D01*
X44329200Y-90469191D01*
X44332275Y-90437973D01*
X44340654Y-90410350D01*
X44354264Y-90384887D01*
X44372575Y-90362575D01*
X44394887Y-90344264D01*
X44420350Y-90330654D01*
X44447973Y-90322275D01*
X44479191Y-90319200D01*
X44920809Y-90319200D01*
X44952027Y-90322275D01*
G37*
G36*
X45952027Y-90322275D02*
G01*
X45979650Y-90330654D01*
X46005113Y-90344264D01*
X46027425Y-90362575D01*
X46045736Y-90384887D01*
X46059346Y-90410350D01*
X46067725Y-90437973D01*
X46070800Y-90469191D01*
X46070800Y-90860809D01*
X46067725Y-90892027D01*
X46059346Y-90919650D01*
X46045736Y-90945113D01*
X46027425Y-90967425D01*
X46005113Y-90985736D01*
X45979650Y-90999346D01*
X45952027Y-91007725D01*
X45920809Y-91010800D01*
X45479191Y-91010800D01*
X45447973Y-91007725D01*
X45420350Y-90999346D01*
X45394887Y-90985736D01*
X45372575Y-90967425D01*
X45354264Y-90945113D01*
X45340654Y-90919650D01*
X45332275Y-90892027D01*
X45329200Y-90860809D01*
X45329200Y-90469191D01*
X45332275Y-90437973D01*
X45340654Y-90410350D01*
X45354264Y-90384887D01*
X45372575Y-90362575D01*
X45394887Y-90344264D01*
X45420350Y-90330654D01*
X45447973Y-90322275D01*
X45479191Y-90319200D01*
X45920809Y-90319200D01*
X45952027Y-90322275D01*
G37*
G36*
X36552027Y-90042275D02*
G01*
X36579650Y-90050654D01*
X36605113Y-90064264D01*
X36627425Y-90082575D01*
X36645736Y-90104887D01*
X36659346Y-90130350D01*
X36667725Y-90157973D01*
X36670800Y-90189191D01*
X36670800Y-90580809D01*
X36667725Y-90612027D01*
X36659346Y-90639650D01*
X36645736Y-90665113D01*
X36627425Y-90687425D01*
X36605113Y-90705736D01*
X36579650Y-90719346D01*
X36552027Y-90727725D01*
X36520809Y-90730800D01*
X36079191Y-90730800D01*
X36047973Y-90727725D01*
X36020350Y-90719346D01*
X35994887Y-90705736D01*
X35972575Y-90687425D01*
X35954264Y-90665113D01*
X35940654Y-90639650D01*
X35932275Y-90612027D01*
X35929200Y-90580809D01*
X35929200Y-90189191D01*
X35932275Y-90157973D01*
X35940654Y-90130350D01*
X35954264Y-90104887D01*
X35972575Y-90082575D01*
X35994887Y-90064264D01*
X36020350Y-90050654D01*
X36047973Y-90042275D01*
X36079191Y-90039200D01*
X36520809Y-90039200D01*
X36552027Y-90042275D01*
G37*
G36*
X37702027Y-89992275D02*
G01*
X37729650Y-90000654D01*
X37755113Y-90014264D01*
X37777425Y-90032575D01*
X37795736Y-90054887D01*
X37809346Y-90080350D01*
X37817725Y-90107973D01*
X37820800Y-90139191D01*
X37820800Y-90530809D01*
X37817725Y-90562027D01*
X37809346Y-90589650D01*
X37795736Y-90615113D01*
X37777425Y-90637425D01*
X37755113Y-90655736D01*
X37729650Y-90669346D01*
X37702027Y-90677725D01*
X37670809Y-90680800D01*
X37229191Y-90680800D01*
X37197973Y-90677725D01*
X37170350Y-90669346D01*
X37144887Y-90655736D01*
X37122575Y-90637425D01*
X37104264Y-90615113D01*
X37090654Y-90589650D01*
X37082275Y-90562027D01*
X37079200Y-90530809D01*
X37079200Y-90139191D01*
X37082275Y-90107973D01*
X37090654Y-90080350D01*
X37104264Y-90054887D01*
X37122575Y-90032575D01*
X37144887Y-90014264D01*
X37170350Y-90000654D01*
X37197973Y-89992275D01*
X37229191Y-89989200D01*
X37670809Y-89989200D01*
X37702027Y-89992275D01*
G37*
G36*
X32110663Y-89520367D02*
G01*
X32210902Y-89561887D01*
X32301116Y-89622166D01*
X32377834Y-89698884D01*
X32438113Y-89789098D01*
X32479633Y-89889337D01*
X32500800Y-89995751D01*
X32500800Y-90104249D01*
X32479633Y-90210663D01*
X32438113Y-90310902D01*
X32377834Y-90401116D01*
X32301116Y-90477834D01*
X32210902Y-90538113D01*
X32110663Y-90579633D01*
X32004249Y-90600800D01*
X31895751Y-90600800D01*
X31789337Y-90579633D01*
X31689098Y-90538113D01*
X31598884Y-90477834D01*
X31522166Y-90401116D01*
X31461887Y-90310902D01*
X31420367Y-90210663D01*
X31399200Y-90104249D01*
X31399200Y-89995751D01*
X31420367Y-89889337D01*
X31461887Y-89789098D01*
X31522166Y-89698884D01*
X31598884Y-89622166D01*
X31689098Y-89561887D01*
X31789337Y-89520367D01*
X31895751Y-89499200D01*
X32004249Y-89499200D01*
X32110663Y-89520367D01*
G37*
G36*
X20212754Y-88393817D02*
G01*
X20376689Y-88461721D01*
X20524227Y-88560303D01*
X20649697Y-88685773D01*
X20748279Y-88833311D01*
X20816183Y-88997246D01*
X20850800Y-89171279D01*
X20850800Y-89348721D01*
X20816183Y-89522754D01*
X20748279Y-89686689D01*
X20649697Y-89834227D01*
X20524227Y-89959697D01*
X20376689Y-90058279D01*
X20212754Y-90126183D01*
X20038721Y-90160800D01*
X19861279Y-90160800D01*
X19687246Y-90126183D01*
X19523311Y-90058279D01*
X19375773Y-89959697D01*
X19250303Y-89834227D01*
X19151721Y-89686689D01*
X19083817Y-89522754D01*
X19049200Y-89348721D01*
X19049200Y-89171279D01*
X19083817Y-88997246D01*
X19151721Y-88833311D01*
X19250303Y-88685773D01*
X19375773Y-88560303D01*
X19523311Y-88461721D01*
X19687246Y-88393817D01*
X19861279Y-88359200D01*
X20038721Y-88359200D01*
X20212754Y-88393817D01*
G37*
G36*
X45642027Y-89332275D02*
G01*
X45669650Y-89340654D01*
X45695113Y-89354264D01*
X45717425Y-89372575D01*
X45735736Y-89394887D01*
X45749346Y-89420350D01*
X45757725Y-89447973D01*
X45760800Y-89479191D01*
X45760800Y-89920809D01*
X45757725Y-89952027D01*
X45749346Y-89979650D01*
X45735736Y-90005113D01*
X45717425Y-90027425D01*
X45695113Y-90045736D01*
X45669650Y-90059346D01*
X45642027Y-90067725D01*
X45610809Y-90070800D01*
X45219191Y-90070800D01*
X45187973Y-90067725D01*
X45160350Y-90059346D01*
X45134887Y-90045736D01*
X45112575Y-90027425D01*
X45094264Y-90005113D01*
X45080654Y-89979650D01*
X45072275Y-89952027D01*
X45069200Y-89920809D01*
X45069200Y-89479191D01*
X45072275Y-89447973D01*
X45080654Y-89420350D01*
X45094264Y-89394887D01*
X45112575Y-89372575D01*
X45134887Y-89354264D01*
X45160350Y-89340654D01*
X45187973Y-89332275D01*
X45219191Y-89329200D01*
X45610809Y-89329200D01*
X45642027Y-89332275D01*
G37*
G36*
X46612027Y-89332275D02*
G01*
X46639650Y-89340654D01*
X46665113Y-89354264D01*
X46687425Y-89372575D01*
X46705736Y-89394887D01*
X46719346Y-89420350D01*
X46727725Y-89447973D01*
X46730800Y-89479191D01*
X46730800Y-89920809D01*
X46727725Y-89952027D01*
X46719346Y-89979650D01*
X46705736Y-90005113D01*
X46687425Y-90027425D01*
X46665113Y-90045736D01*
X46639650Y-90059346D01*
X46612027Y-90067725D01*
X46580809Y-90070800D01*
X46189191Y-90070800D01*
X46157973Y-90067725D01*
X46130350Y-90059346D01*
X46104887Y-90045736D01*
X46082575Y-90027425D01*
X46064264Y-90005113D01*
X46050654Y-89979650D01*
X46042275Y-89952027D01*
X46039200Y-89920809D01*
X46039200Y-89479191D01*
X46042275Y-89447973D01*
X46050654Y-89420350D01*
X46064264Y-89394887D01*
X46082575Y-89372575D01*
X46104887Y-89354264D01*
X46130350Y-89340654D01*
X46157973Y-89332275D01*
X46189191Y-89329200D01*
X46580809Y-89329200D01*
X46612027Y-89332275D01*
G37*
G36*
X27512027Y-89282275D02*
G01*
X27539650Y-89290654D01*
X27565113Y-89304264D01*
X27587425Y-89322575D01*
X27605736Y-89344887D01*
X27619346Y-89370350D01*
X27627725Y-89397973D01*
X27630800Y-89429191D01*
X27630800Y-89870809D01*
X27627725Y-89902027D01*
X27619346Y-89929650D01*
X27605736Y-89955113D01*
X27587425Y-89977425D01*
X27565113Y-89995736D01*
X27539650Y-90009346D01*
X27512027Y-90017725D01*
X27480809Y-90020800D01*
X27089191Y-90020800D01*
X27057973Y-90017725D01*
X27030350Y-90009346D01*
X27004887Y-89995736D01*
X26982575Y-89977425D01*
X26964264Y-89955113D01*
X26950654Y-89929650D01*
X26942275Y-89902027D01*
X26939200Y-89870809D01*
X26939200Y-89429191D01*
X26942275Y-89397973D01*
X26950654Y-89370350D01*
X26964264Y-89344887D01*
X26982575Y-89322575D01*
X27004887Y-89304264D01*
X27030350Y-89290654D01*
X27057973Y-89282275D01*
X27089191Y-89279200D01*
X27480809Y-89279200D01*
X27512027Y-89282275D01*
G37*
G36*
X26542027Y-89282275D02*
G01*
X26569650Y-89290654D01*
X26595113Y-89304264D01*
X26617425Y-89322575D01*
X26635736Y-89344887D01*
X26649346Y-89370350D01*
X26657725Y-89397973D01*
X26660800Y-89429191D01*
X26660800Y-89870809D01*
X26657725Y-89902027D01*
X26649346Y-89929650D01*
X26635736Y-89955113D01*
X26617425Y-89977425D01*
X26595113Y-89995736D01*
X26569650Y-90009346D01*
X26542027Y-90017725D01*
X26510809Y-90020800D01*
X26119191Y-90020800D01*
X26087973Y-90017725D01*
X26060350Y-90009346D01*
X26034887Y-89995736D01*
X26012575Y-89977425D01*
X25994264Y-89955113D01*
X25980654Y-89929650D01*
X25972275Y-89902027D01*
X25969200Y-89870809D01*
X25969200Y-89429191D01*
X25972275Y-89397973D01*
X25980654Y-89370350D01*
X25994264Y-89344887D01*
X26012575Y-89322575D01*
X26034887Y-89304264D01*
X26060350Y-89290654D01*
X26087973Y-89282275D01*
X26119191Y-89279200D01*
X26510809Y-89279200D01*
X26542027Y-89282275D01*
G37*
G36*
X36552027Y-89072275D02*
G01*
X36579650Y-89080654D01*
X36605113Y-89094264D01*
X36627425Y-89112575D01*
X36645736Y-89134887D01*
X36659346Y-89160350D01*
X36667725Y-89187973D01*
X36670800Y-89219191D01*
X36670800Y-89610809D01*
X36667725Y-89642027D01*
X36659346Y-89669650D01*
X36645736Y-89695113D01*
X36627425Y-89717425D01*
X36605113Y-89735736D01*
X36579650Y-89749346D01*
X36552027Y-89757725D01*
X36520809Y-89760800D01*
X36079191Y-89760800D01*
X36047973Y-89757725D01*
X36020350Y-89749346D01*
X35994887Y-89735736D01*
X35972575Y-89717425D01*
X35954264Y-89695113D01*
X35940654Y-89669650D01*
X35932275Y-89642027D01*
X35929200Y-89610809D01*
X35929200Y-89219191D01*
X35932275Y-89187973D01*
X35940654Y-89160350D01*
X35954264Y-89134887D01*
X35972575Y-89112575D01*
X35994887Y-89094264D01*
X36020350Y-89080654D01*
X36047973Y-89072275D01*
X36079191Y-89069200D01*
X36520809Y-89069200D01*
X36552027Y-89072275D01*
G37*
G36*
X37702027Y-89022275D02*
G01*
X37729650Y-89030654D01*
X37755113Y-89044264D01*
X37777425Y-89062575D01*
X37795736Y-89084887D01*
X37809346Y-89110350D01*
X37817725Y-89137973D01*
X37820800Y-89169191D01*
X37820800Y-89560809D01*
X37817725Y-89592027D01*
X37809346Y-89619650D01*
X37795736Y-89645113D01*
X37777425Y-89667425D01*
X37755113Y-89685736D01*
X37729650Y-89699346D01*
X37702027Y-89707725D01*
X37670809Y-89710800D01*
X37229191Y-89710800D01*
X37197973Y-89707725D01*
X37170350Y-89699346D01*
X37144887Y-89685736D01*
X37122575Y-89667425D01*
X37104264Y-89645113D01*
X37090654Y-89619650D01*
X37082275Y-89592027D01*
X37079200Y-89560809D01*
X37079200Y-89169191D01*
X37082275Y-89137973D01*
X37090654Y-89110350D01*
X37104264Y-89084887D01*
X37122575Y-89062575D01*
X37144887Y-89044264D01*
X37170350Y-89030654D01*
X37197973Y-89022275D01*
X37229191Y-89019200D01*
X37670809Y-89019200D01*
X37702027Y-89022275D01*
G37*
G36*
X46612027Y-88382275D02*
G01*
X46639650Y-88390654D01*
X46665113Y-88404264D01*
X46687425Y-88422575D01*
X46705736Y-88444887D01*
X46719346Y-88470350D01*
X46727725Y-88497973D01*
X46730800Y-88529191D01*
X46730800Y-88970809D01*
X46727725Y-89002027D01*
X46719346Y-89029650D01*
X46705736Y-89055113D01*
X46687425Y-89077425D01*
X46665113Y-89095736D01*
X46639650Y-89109346D01*
X46612027Y-89117725D01*
X46580809Y-89120800D01*
X46189191Y-89120800D01*
X46157973Y-89117725D01*
X46130350Y-89109346D01*
X46104887Y-89095736D01*
X46082575Y-89077425D01*
X46064264Y-89055113D01*
X46050654Y-89029650D01*
X46042275Y-89002027D01*
X46039200Y-88970809D01*
X46039200Y-88529191D01*
X46042275Y-88497973D01*
X46050654Y-88470350D01*
X46064264Y-88444887D01*
X46082575Y-88422575D01*
X46104887Y-88404264D01*
X46130350Y-88390654D01*
X46157973Y-88382275D01*
X46189191Y-88379200D01*
X46580809Y-88379200D01*
X46612027Y-88382275D01*
G37*
G36*
X45642027Y-88382275D02*
G01*
X45669650Y-88390654D01*
X45695113Y-88404264D01*
X45717425Y-88422575D01*
X45735736Y-88444887D01*
X45749346Y-88470350D01*
X45757725Y-88497973D01*
X45760800Y-88529191D01*
X45760800Y-88970809D01*
X45757725Y-89002027D01*
X45749346Y-89029650D01*
X45735736Y-89055113D01*
X45717425Y-89077425D01*
X45695113Y-89095736D01*
X45669650Y-89109346D01*
X45642027Y-89117725D01*
X45610809Y-89120800D01*
X45219191Y-89120800D01*
X45187973Y-89117725D01*
X45160350Y-89109346D01*
X45134887Y-89095736D01*
X45112575Y-89077425D01*
X45094264Y-89055113D01*
X45080654Y-89029650D01*
X45072275Y-89002027D01*
X45069200Y-88970809D01*
X45069200Y-88529191D01*
X45072275Y-88497973D01*
X45080654Y-88470350D01*
X45094264Y-88444887D01*
X45112575Y-88422575D01*
X45134887Y-88404264D01*
X45160350Y-88390654D01*
X45187973Y-88382275D01*
X45219191Y-88379200D01*
X45610809Y-88379200D01*
X45642027Y-88382275D01*
G37*
G36*
X30060663Y-87920367D02*
G01*
X30160902Y-87961887D01*
X30251116Y-88022166D01*
X30327834Y-88098884D01*
X30388113Y-88189098D01*
X30429633Y-88289337D01*
X30450800Y-88395751D01*
X30450800Y-88504249D01*
X30429633Y-88610663D01*
X30388113Y-88710902D01*
X30327834Y-88801116D01*
X30251116Y-88877834D01*
X30160902Y-88938113D01*
X30060663Y-88979633D01*
X29954249Y-89000800D01*
X29845751Y-89000800D01*
X29739337Y-88979633D01*
X29639098Y-88938113D01*
X29548884Y-88877834D01*
X29472166Y-88801116D01*
X29411887Y-88710902D01*
X29370367Y-88610663D01*
X29349200Y-88504249D01*
X29349200Y-88395751D01*
X29370367Y-88289337D01*
X29411887Y-88189098D01*
X29472166Y-88098884D01*
X29548884Y-88022166D01*
X29639098Y-87961887D01*
X29739337Y-87920367D01*
X29845751Y-87899200D01*
X29954249Y-87899200D01*
X30060663Y-87920367D01*
G37*
G36*
X27512027Y-88182275D02*
G01*
X27539650Y-88190654D01*
X27565113Y-88204264D01*
X27587425Y-88222575D01*
X27605736Y-88244887D01*
X27619346Y-88270350D01*
X27627725Y-88297973D01*
X27630800Y-88329191D01*
X27630800Y-88770809D01*
X27627725Y-88802027D01*
X27619346Y-88829650D01*
X27605736Y-88855113D01*
X27587425Y-88877425D01*
X27565113Y-88895736D01*
X27539650Y-88909346D01*
X27512027Y-88917725D01*
X27480809Y-88920800D01*
X27089191Y-88920800D01*
X27057973Y-88917725D01*
X27030350Y-88909346D01*
X27004887Y-88895736D01*
X26982575Y-88877425D01*
X26964264Y-88855113D01*
X26950654Y-88829650D01*
X26942275Y-88802027D01*
X26939200Y-88770809D01*
X26939200Y-88329191D01*
X26942275Y-88297973D01*
X26950654Y-88270350D01*
X26964264Y-88244887D01*
X26982575Y-88222575D01*
X27004887Y-88204264D01*
X27030350Y-88190654D01*
X27057973Y-88182275D01*
X27089191Y-88179200D01*
X27480809Y-88179200D01*
X27512027Y-88182275D01*
G37*
G36*
X26542027Y-88182275D02*
G01*
X26569650Y-88190654D01*
X26595113Y-88204264D01*
X26617425Y-88222575D01*
X26635736Y-88244887D01*
X26649346Y-88270350D01*
X26657725Y-88297973D01*
X26660800Y-88329191D01*
X26660800Y-88770809D01*
X26657725Y-88802027D01*
X26649346Y-88829650D01*
X26635736Y-88855113D01*
X26617425Y-88877425D01*
X26595113Y-88895736D01*
X26569650Y-88909346D01*
X26542027Y-88917725D01*
X26510809Y-88920800D01*
X26119191Y-88920800D01*
X26087973Y-88917725D01*
X26060350Y-88909346D01*
X26034887Y-88895736D01*
X26012575Y-88877425D01*
X25994264Y-88855113D01*
X25980654Y-88829650D01*
X25972275Y-88802027D01*
X25969200Y-88770809D01*
X25969200Y-88329191D01*
X25972275Y-88297973D01*
X25980654Y-88270350D01*
X25994264Y-88244887D01*
X26012575Y-88222575D01*
X26034887Y-88204264D01*
X26060350Y-88190654D01*
X26087973Y-88182275D01*
X26119191Y-88179200D01*
X26510809Y-88179200D01*
X26542027Y-88182275D01*
G37*
G36*
X45397027Y-87232275D02*
G01*
X45424650Y-87240654D01*
X45450113Y-87254264D01*
X45472425Y-87272575D01*
X45490736Y-87294887D01*
X45504346Y-87320350D01*
X45512725Y-87347973D01*
X45515800Y-87379191D01*
X45515800Y-87820809D01*
X45512725Y-87852027D01*
X45504346Y-87879650D01*
X45490736Y-87905113D01*
X45472425Y-87927425D01*
X45450113Y-87945736D01*
X45424650Y-87959346D01*
X45397027Y-87967725D01*
X45365809Y-87970800D01*
X44974191Y-87970800D01*
X44942973Y-87967725D01*
X44915350Y-87959346D01*
X44889887Y-87945736D01*
X44867575Y-87927425D01*
X44849264Y-87905113D01*
X44835654Y-87879650D01*
X44827275Y-87852027D01*
X44824200Y-87820809D01*
X44824200Y-87379191D01*
X44827275Y-87347973D01*
X44835654Y-87320350D01*
X44849264Y-87294887D01*
X44867575Y-87272575D01*
X44889887Y-87254264D01*
X44915350Y-87240654D01*
X44942973Y-87232275D01*
X44974191Y-87229200D01*
X45365809Y-87229200D01*
X45397027Y-87232275D01*
G37*
G36*
X44427027Y-87232275D02*
G01*
X44454650Y-87240654D01*
X44480113Y-87254264D01*
X44502425Y-87272575D01*
X44520736Y-87294887D01*
X44534346Y-87320350D01*
X44542725Y-87347973D01*
X44545800Y-87379191D01*
X44545800Y-87820809D01*
X44542725Y-87852027D01*
X44534346Y-87879650D01*
X44520736Y-87905113D01*
X44502425Y-87927425D01*
X44480113Y-87945736D01*
X44454650Y-87959346D01*
X44427027Y-87967725D01*
X44395809Y-87970800D01*
X44004191Y-87970800D01*
X43972973Y-87967725D01*
X43945350Y-87959346D01*
X43919887Y-87945736D01*
X43897575Y-87927425D01*
X43879264Y-87905113D01*
X43865654Y-87879650D01*
X43857275Y-87852027D01*
X43854200Y-87820809D01*
X43854200Y-87379191D01*
X43857275Y-87347973D01*
X43865654Y-87320350D01*
X43879264Y-87294887D01*
X43897575Y-87272575D01*
X43919887Y-87254264D01*
X43945350Y-87240654D01*
X43972973Y-87232275D01*
X44004191Y-87229200D01*
X44395809Y-87229200D01*
X44427027Y-87232275D01*
G37*
G36*
X27512027Y-86932275D02*
G01*
X27539650Y-86940654D01*
X27565113Y-86954264D01*
X27587425Y-86972575D01*
X27605736Y-86994887D01*
X27619346Y-87020350D01*
X27627725Y-87047973D01*
X27630800Y-87079191D01*
X27630800Y-87520809D01*
X27627725Y-87552027D01*
X27619346Y-87579650D01*
X27605736Y-87605113D01*
X27587425Y-87627425D01*
X27565113Y-87645736D01*
X27539650Y-87659346D01*
X27512027Y-87667725D01*
X27480809Y-87670800D01*
X27089191Y-87670800D01*
X27057973Y-87667725D01*
X27030350Y-87659346D01*
X27004887Y-87645736D01*
X26982575Y-87627425D01*
X26964264Y-87605113D01*
X26950654Y-87579650D01*
X26942275Y-87552027D01*
X26939200Y-87520809D01*
X26939200Y-87079191D01*
X26942275Y-87047973D01*
X26950654Y-87020350D01*
X26964264Y-86994887D01*
X26982575Y-86972575D01*
X27004887Y-86954264D01*
X27030350Y-86940654D01*
X27057973Y-86932275D01*
X27089191Y-86929200D01*
X27480809Y-86929200D01*
X27512027Y-86932275D01*
G37*
G36*
X26542027Y-86932275D02*
G01*
X26569650Y-86940654D01*
X26595113Y-86954264D01*
X26617425Y-86972575D01*
X26635736Y-86994887D01*
X26649346Y-87020350D01*
X26657725Y-87047973D01*
X26660800Y-87079191D01*
X26660800Y-87520809D01*
X26657725Y-87552027D01*
X26649346Y-87579650D01*
X26635736Y-87605113D01*
X26617425Y-87627425D01*
X26595113Y-87645736D01*
X26569650Y-87659346D01*
X26542027Y-87667725D01*
X26510809Y-87670800D01*
X26119191Y-87670800D01*
X26087973Y-87667725D01*
X26060350Y-87659346D01*
X26034887Y-87645736D01*
X26012575Y-87627425D01*
X25994264Y-87605113D01*
X25980654Y-87579650D01*
X25972275Y-87552027D01*
X25969200Y-87520809D01*
X25969200Y-87079191D01*
X25972275Y-87047973D01*
X25980654Y-87020350D01*
X25994264Y-86994887D01*
X26012575Y-86972575D01*
X26034887Y-86954264D01*
X26060350Y-86940654D01*
X26087973Y-86932275D01*
X26119191Y-86929200D01*
X26510809Y-86929200D01*
X26542027Y-86932275D01*
G37*
G36*
X20212754Y-85853817D02*
G01*
X20376689Y-85921721D01*
X20524227Y-86020303D01*
X20649697Y-86145773D01*
X20748279Y-86293311D01*
X20816183Y-86457246D01*
X20850800Y-86631279D01*
X20850800Y-86808721D01*
X20816183Y-86982754D01*
X20748279Y-87146689D01*
X20649697Y-87294227D01*
X20524227Y-87419697D01*
X20376689Y-87518279D01*
X20212754Y-87586183D01*
X20038721Y-87620800D01*
X19861279Y-87620800D01*
X19687246Y-87586183D01*
X19523311Y-87518279D01*
X19375773Y-87419697D01*
X19250303Y-87294227D01*
X19151721Y-87146689D01*
X19083817Y-86982754D01*
X19049200Y-86808721D01*
X19049200Y-86631279D01*
X19083817Y-86457246D01*
X19151721Y-86293311D01*
X19250303Y-86145773D01*
X19375773Y-86020303D01*
X19523311Y-85921721D01*
X19687246Y-85853817D01*
X19861279Y-85819200D01*
X20038721Y-85819200D01*
X20212754Y-85853817D01*
G37*
G36*
X32010663Y-86120367D02*
G01*
X32110902Y-86161887D01*
X32201116Y-86222166D01*
X32277834Y-86298884D01*
X32338113Y-86389098D01*
X32379633Y-86489337D01*
X32400800Y-86595751D01*
X32400800Y-86704249D01*
X32379633Y-86810663D01*
X32338113Y-86910902D01*
X32277834Y-87001116D01*
X32201116Y-87077834D01*
X32110902Y-87138113D01*
X32010663Y-87179633D01*
X31904249Y-87200800D01*
X31795751Y-87200800D01*
X31689337Y-87179633D01*
X31589098Y-87138113D01*
X31498884Y-87077834D01*
X31422166Y-87001116D01*
X31361887Y-86910902D01*
X31320367Y-86810663D01*
X31299200Y-86704249D01*
X31299200Y-86595751D01*
X31320367Y-86489337D01*
X31361887Y-86389098D01*
X31422166Y-86298884D01*
X31498884Y-86222166D01*
X31589098Y-86161887D01*
X31689337Y-86120367D01*
X31795751Y-86099200D01*
X31904249Y-86099200D01*
X32010663Y-86120367D01*
G37*
G36*
X27512027Y-85782275D02*
G01*
X27539650Y-85790654D01*
X27565113Y-85804264D01*
X27587425Y-85822575D01*
X27605736Y-85844887D01*
X27619346Y-85870350D01*
X27627725Y-85897973D01*
X27630800Y-85929191D01*
X27630800Y-86370809D01*
X27627725Y-86402027D01*
X27619346Y-86429650D01*
X27605736Y-86455113D01*
X27587425Y-86477425D01*
X27565113Y-86495736D01*
X27539650Y-86509346D01*
X27512027Y-86517725D01*
X27480809Y-86520800D01*
X27089191Y-86520800D01*
X27057973Y-86517725D01*
X27030350Y-86509346D01*
X27004887Y-86495736D01*
X26982575Y-86477425D01*
X26964264Y-86455113D01*
X26950654Y-86429650D01*
X26942275Y-86402027D01*
X26939200Y-86370809D01*
X26939200Y-85929191D01*
X26942275Y-85897973D01*
X26950654Y-85870350D01*
X26964264Y-85844887D01*
X26982575Y-85822575D01*
X27004887Y-85804264D01*
X27030350Y-85790654D01*
X27057973Y-85782275D01*
X27089191Y-85779200D01*
X27480809Y-85779200D01*
X27512027Y-85782275D01*
G37*
G36*
X26542027Y-85782275D02*
G01*
X26569650Y-85790654D01*
X26595113Y-85804264D01*
X26617425Y-85822575D01*
X26635736Y-85844887D01*
X26649346Y-85870350D01*
X26657725Y-85897973D01*
X26660800Y-85929191D01*
X26660800Y-86370809D01*
X26657725Y-86402027D01*
X26649346Y-86429650D01*
X26635736Y-86455113D01*
X26617425Y-86477425D01*
X26595113Y-86495736D01*
X26569650Y-86509346D01*
X26542027Y-86517725D01*
X26510809Y-86520800D01*
X26119191Y-86520800D01*
X26087973Y-86517725D01*
X26060350Y-86509346D01*
X26034887Y-86495736D01*
X26012575Y-86477425D01*
X25994264Y-86455113D01*
X25980654Y-86429650D01*
X25972275Y-86402027D01*
X25969200Y-86370809D01*
X25969200Y-85929191D01*
X25972275Y-85897973D01*
X25980654Y-85870350D01*
X25994264Y-85844887D01*
X26012575Y-85822575D01*
X26034887Y-85804264D01*
X26060350Y-85790654D01*
X26087973Y-85782275D01*
X26119191Y-85779200D01*
X26510809Y-85779200D01*
X26542027Y-85782275D01*
G37*
G36*
X42604857Y-85254117D02*
G01*
X42650465Y-85267952D01*
X42692504Y-85290422D01*
X42729344Y-85320656D01*
X42759578Y-85357496D01*
X42782048Y-85399535D01*
X42795883Y-85445143D01*
X42800800Y-85495065D01*
X42800800Y-86254935D01*
X42795883Y-86304857D01*
X42782048Y-86350465D01*
X42759578Y-86392504D01*
X42729344Y-86429344D01*
X42692504Y-86459578D01*
X42650465Y-86482048D01*
X42604857Y-86495883D01*
X42554935Y-86500800D01*
X41545065Y-86500800D01*
X41495143Y-86495883D01*
X41449535Y-86482048D01*
X41407496Y-86459578D01*
X41370656Y-86429344D01*
X41340422Y-86392504D01*
X41317952Y-86350465D01*
X41304117Y-86304857D01*
X41299200Y-86254935D01*
X41299200Y-85495065D01*
X41304117Y-85445143D01*
X41317952Y-85399535D01*
X41340422Y-85357496D01*
X41370656Y-85320656D01*
X41407496Y-85290422D01*
X41449535Y-85267952D01*
X41495143Y-85254117D01*
X41545065Y-85249200D01*
X42554935Y-85249200D01*
X42604857Y-85254117D01*
G37*
G36*
X40160663Y-85220367D02*
G01*
X40260902Y-85261887D01*
X40351116Y-85322166D01*
X40427834Y-85398884D01*
X40488113Y-85489098D01*
X40529633Y-85589337D01*
X40550800Y-85695751D01*
X40550800Y-85804249D01*
X40529633Y-85910663D01*
X40488113Y-86010902D01*
X40427834Y-86101116D01*
X40351116Y-86177834D01*
X40260902Y-86238113D01*
X40160663Y-86279633D01*
X40054249Y-86300800D01*
X39945751Y-86300800D01*
X39839337Y-86279633D01*
X39739098Y-86238113D01*
X39648884Y-86177834D01*
X39572166Y-86101116D01*
X39511887Y-86010902D01*
X39470367Y-85910663D01*
X39449200Y-85804249D01*
X39449200Y-85695751D01*
X39470367Y-85589337D01*
X39511887Y-85489098D01*
X39572166Y-85398884D01*
X39648884Y-85322166D01*
X39739098Y-85261887D01*
X39839337Y-85220367D01*
X39945751Y-85199200D01*
X40054249Y-85199200D01*
X40160663Y-85220367D01*
G37*
G36*
X43902027Y-85042275D02*
G01*
X43929650Y-85050654D01*
X43955113Y-85064264D01*
X43977425Y-85082575D01*
X43995736Y-85104887D01*
X44009346Y-85130350D01*
X44017725Y-85157973D01*
X44020800Y-85189191D01*
X44020800Y-85580809D01*
X44017725Y-85612027D01*
X44009346Y-85639650D01*
X43995736Y-85665113D01*
X43977425Y-85687425D01*
X43955113Y-85705736D01*
X43929650Y-85719346D01*
X43902027Y-85727725D01*
X43870809Y-85730800D01*
X43429191Y-85730800D01*
X43397973Y-85727725D01*
X43370350Y-85719346D01*
X43344887Y-85705736D01*
X43322575Y-85687425D01*
X43304264Y-85665113D01*
X43290654Y-85639650D01*
X43282275Y-85612027D01*
X43279200Y-85580809D01*
X43279200Y-85189191D01*
X43282275Y-85157973D01*
X43290654Y-85130350D01*
X43304264Y-85104887D01*
X43322575Y-85082575D01*
X43344887Y-85064264D01*
X43370350Y-85050654D01*
X43397973Y-85042275D01*
X43429191Y-85039200D01*
X43870809Y-85039200D01*
X43902027Y-85042275D01*
G37*
G36*
X29910663Y-84420367D02*
G01*
X30010902Y-84461887D01*
X30101116Y-84522166D01*
X30177834Y-84598884D01*
X30238113Y-84689098D01*
X30279633Y-84789337D01*
X30300800Y-84895751D01*
X30300800Y-85004249D01*
X30279633Y-85110663D01*
X30238113Y-85210902D01*
X30177834Y-85301116D01*
X30101116Y-85377834D01*
X30010902Y-85438113D01*
X29910663Y-85479633D01*
X29804249Y-85500800D01*
X29695751Y-85500800D01*
X29589337Y-85479633D01*
X29489098Y-85438113D01*
X29398884Y-85377834D01*
X29322166Y-85301116D01*
X29261887Y-85210902D01*
X29220367Y-85110663D01*
X29199200Y-85004249D01*
X29199200Y-84895751D01*
X29220367Y-84789337D01*
X29261887Y-84689098D01*
X29322166Y-84598884D01*
X29398884Y-84522166D01*
X29489098Y-84461887D01*
X29589337Y-84420367D01*
X29695751Y-84399200D01*
X29804249Y-84399200D01*
X29910663Y-84420367D01*
G37*
G36*
X20212754Y-83313817D02*
G01*
X20376689Y-83381721D01*
X20524227Y-83480303D01*
X20649697Y-83605773D01*
X20748279Y-83753311D01*
X20816183Y-83917246D01*
X20850800Y-84091279D01*
X20850800Y-84268721D01*
X20816183Y-84442754D01*
X20748279Y-84606689D01*
X20649697Y-84754227D01*
X20524227Y-84879697D01*
X20376689Y-84978279D01*
X20212754Y-85046183D01*
X20038721Y-85080800D01*
X19861279Y-85080800D01*
X19687246Y-85046183D01*
X19523311Y-84978279D01*
X19375773Y-84879697D01*
X19250303Y-84754227D01*
X19151721Y-84606689D01*
X19083817Y-84442754D01*
X19049200Y-84268721D01*
X19049200Y-84091279D01*
X19083817Y-83917246D01*
X19151721Y-83753311D01*
X19250303Y-83605773D01*
X19375773Y-83480303D01*
X19523311Y-83381721D01*
X19687246Y-83313817D01*
X19861279Y-83279200D01*
X20038721Y-83279200D01*
X20212754Y-83313817D01*
G37*
G36*
X43902027Y-84072275D02*
G01*
X43929650Y-84080654D01*
X43955113Y-84094264D01*
X43977425Y-84112575D01*
X43995736Y-84134887D01*
X44009346Y-84160350D01*
X44017725Y-84187973D01*
X44020800Y-84219191D01*
X44020800Y-84610809D01*
X44017725Y-84642027D01*
X44009346Y-84669650D01*
X43995736Y-84695113D01*
X43977425Y-84717425D01*
X43955113Y-84735736D01*
X43929650Y-84749346D01*
X43902027Y-84757725D01*
X43870809Y-84760800D01*
X43429191Y-84760800D01*
X43397973Y-84757725D01*
X43370350Y-84749346D01*
X43344887Y-84735736D01*
X43322575Y-84717425D01*
X43304264Y-84695113D01*
X43290654Y-84669650D01*
X43282275Y-84642027D01*
X43279200Y-84610809D01*
X43279200Y-84219191D01*
X43282275Y-84187973D01*
X43290654Y-84160350D01*
X43304264Y-84134887D01*
X43322575Y-84112575D01*
X43344887Y-84094264D01*
X43370350Y-84080654D01*
X43397973Y-84072275D01*
X43429191Y-84069200D01*
X43870809Y-84069200D01*
X43902027Y-84072275D01*
G37*
G36*
X42604857Y-83204117D02*
G01*
X42650465Y-83217952D01*
X42692504Y-83240422D01*
X42729344Y-83270656D01*
X42759578Y-83307496D01*
X42782048Y-83349535D01*
X42795883Y-83395143D01*
X42800800Y-83445065D01*
X42800800Y-84204935D01*
X42795883Y-84254857D01*
X42782048Y-84300465D01*
X42759578Y-84342504D01*
X42729344Y-84379344D01*
X42692504Y-84409578D01*
X42650465Y-84432048D01*
X42604857Y-84445883D01*
X42554935Y-84450800D01*
X41545065Y-84450800D01*
X41495143Y-84445883D01*
X41449535Y-84432048D01*
X41407496Y-84409578D01*
X41370656Y-84379344D01*
X41340422Y-84342504D01*
X41317952Y-84300465D01*
X41304117Y-84254857D01*
X41299200Y-84204935D01*
X41299200Y-83445065D01*
X41304117Y-83395143D01*
X41317952Y-83349535D01*
X41340422Y-83307496D01*
X41370656Y-83270656D01*
X41407496Y-83240422D01*
X41449535Y-83217952D01*
X41495143Y-83204117D01*
X41545065Y-83199200D01*
X42554935Y-83199200D01*
X42604857Y-83204117D01*
G37*
G36*
X37450800Y-84130800D02*
G01*
X35099200Y-84130800D01*
X35099200Y-82269200D01*
X37450800Y-82269200D01*
X37450800Y-84130800D01*
G37*
G36*
X40400800Y-84130800D02*
G01*
X38049200Y-84130800D01*
X38049200Y-82269200D01*
X40400800Y-82269200D01*
X40400800Y-84130800D01*
G37*
G36*
X20212754Y-80773817D02*
G01*
X20376689Y-80841721D01*
X20524227Y-80940303D01*
X20649697Y-81065773D01*
X20748279Y-81213311D01*
X20816183Y-81377246D01*
X20850800Y-81551279D01*
X20850800Y-81728721D01*
X20816183Y-81902754D01*
X20748279Y-82066689D01*
X20649697Y-82214227D01*
X20524227Y-82339697D01*
X20376689Y-82438279D01*
X20212754Y-82506183D01*
X20038721Y-82540800D01*
X19861279Y-82540800D01*
X19687246Y-82506183D01*
X19523311Y-82438279D01*
X19375773Y-82339697D01*
X19250303Y-82214227D01*
X19151721Y-82066689D01*
X19083817Y-81902754D01*
X19049200Y-81728721D01*
X19049200Y-81551279D01*
X19083817Y-81377246D01*
X19151721Y-81213311D01*
X19250303Y-81065773D01*
X19375773Y-80940303D01*
X19523311Y-80841721D01*
X19687246Y-80773817D01*
X19861279Y-80739200D01*
X20038721Y-80739200D01*
X20212754Y-80773817D01*
G37*
G36*
X51481521Y-78412639D02*
G01*
X51781947Y-78537080D01*
X52052324Y-78717740D01*
X52282260Y-78947676D01*
X52462920Y-79218053D01*
X52587361Y-79518479D01*
X52650800Y-79837410D01*
X52650800Y-80162590D01*
X52587361Y-80481521D01*
X52462920Y-80781947D01*
X52282260Y-81052324D01*
X52052324Y-81282260D01*
X51781947Y-81462920D01*
X51481521Y-81587361D01*
X51162590Y-81650800D01*
X50837410Y-81650800D01*
X50518479Y-81587361D01*
X50218053Y-81462920D01*
X49947676Y-81282260D01*
X49717740Y-81052324D01*
X49537080Y-80781947D01*
X49412639Y-80481521D01*
X49349200Y-80162590D01*
X49349200Y-79837410D01*
X49412639Y-79518479D01*
X49537080Y-79218053D01*
X49717740Y-78947676D01*
X49947676Y-78717740D01*
X50218053Y-78537080D01*
X50518479Y-78412639D01*
X50837410Y-78349200D01*
X51162590Y-78349200D01*
X51481521Y-78412639D01*
G37*
G36*
X40400800Y-81430800D02*
G01*
X38049200Y-81430800D01*
X38049200Y-79569200D01*
X40400800Y-79569200D01*
X40400800Y-81430800D01*
G37*
G36*
X37450800Y-81430800D02*
G01*
X35099200Y-81430800D01*
X35099200Y-79569200D01*
X37450800Y-79569200D01*
X37450800Y-81430800D01*
G37*
G36*
X20850800Y-80000800D02*
G01*
X19049200Y-80000800D01*
X19049200Y-78199200D01*
X20850800Y-78199200D01*
X20850800Y-80000800D01*
G37*
G36*
X38312027Y-77982275D02*
G01*
X38339650Y-77990654D01*
X38365113Y-78004264D01*
X38387425Y-78022575D01*
X38405736Y-78044887D01*
X38419346Y-78070350D01*
X38427725Y-78097973D01*
X38430800Y-78129191D01*
X38430800Y-78570809D01*
X38427725Y-78602027D01*
X38419346Y-78629650D01*
X38405736Y-78655113D01*
X38387425Y-78677425D01*
X38365113Y-78695736D01*
X38339650Y-78709346D01*
X38312027Y-78717725D01*
X38280809Y-78720800D01*
X37889191Y-78720800D01*
X37857973Y-78717725D01*
X37830350Y-78709346D01*
X37804887Y-78695736D01*
X37782575Y-78677425D01*
X37764264Y-78655113D01*
X37750654Y-78629650D01*
X37742275Y-78602027D01*
X37739200Y-78570809D01*
X37739200Y-78129191D01*
X37742275Y-78097973D01*
X37750654Y-78070350D01*
X37764264Y-78044887D01*
X37782575Y-78022575D01*
X37804887Y-78004264D01*
X37830350Y-77990654D01*
X37857973Y-77982275D01*
X37889191Y-77979200D01*
X38280809Y-77979200D01*
X38312027Y-77982275D01*
G37*
G36*
X37342027Y-77982275D02*
G01*
X37369650Y-77990654D01*
X37395113Y-78004264D01*
X37417425Y-78022575D01*
X37435736Y-78044887D01*
X37449346Y-78070350D01*
X37457725Y-78097973D01*
X37460800Y-78129191D01*
X37460800Y-78570809D01*
X37457725Y-78602027D01*
X37449346Y-78629650D01*
X37435736Y-78655113D01*
X37417425Y-78677425D01*
X37395113Y-78695736D01*
X37369650Y-78709346D01*
X37342027Y-78717725D01*
X37310809Y-78720800D01*
X36919191Y-78720800D01*
X36887973Y-78717725D01*
X36860350Y-78709346D01*
X36834887Y-78695736D01*
X36812575Y-78677425D01*
X36794264Y-78655113D01*
X36780654Y-78629650D01*
X36772275Y-78602027D01*
X36769200Y-78570809D01*
X36769200Y-78129191D01*
X36772275Y-78097973D01*
X36780654Y-78070350D01*
X36794264Y-78044887D01*
X36812575Y-78022575D01*
X36834887Y-78004264D01*
X36860350Y-77990654D01*
X36887973Y-77982275D01*
X36919191Y-77979200D01*
X37310809Y-77979200D01*
X37342027Y-77982275D01*
G37*
M02*
