%TF.GenerationSoftware,KiCad,Pcbnew,5.1.5-52549c5~84~ubuntu19.10.1*%
%TF.CreationDate,2019-12-20T00:10:48-05:00*%
%TF.ProjectId,test-mixer,74657374-2d6d-4697-9865-722e6b696361,rev?*%
%TF.SameCoordinates,Original*%
%TF.FileFunction,Legend,Top*%
%TF.FilePolarity,Positive*%
%FSLAX46Y46*%
G04 Gerber Fmt 4.6, Leading zero omitted, Abs format (unit mm)*
G04 Created by KiCad (PCBNEW 5.1.5-52549c5~84~ubuntu19.10.1) date 2019-12-20 00:10:48*
%MOMM*%
%LPD*%
G04 APERTURE LIST*
%ADD10C,0.152400*%
%ADD11C,0.120000*%
%ADD12C,0.150000*%
G04 APERTURE END LIST*
D10*
X24615964Y-129496419D02*
X24615964Y-128480419D01*
X24954631Y-129206133D01*
X25293298Y-128480419D01*
X25293298Y-129496419D01*
X25777107Y-129496419D02*
X25777107Y-128819085D01*
X25777107Y-128480419D02*
X25728726Y-128528800D01*
X25777107Y-128577180D01*
X25825488Y-128528800D01*
X25777107Y-128480419D01*
X25777107Y-128577180D01*
X26164155Y-129496419D02*
X26696345Y-128819085D01*
X26164155Y-128819085D02*
X26696345Y-129496419D01*
X27470440Y-129448038D02*
X27373679Y-129496419D01*
X27180155Y-129496419D01*
X27083393Y-129448038D01*
X27035012Y-129351276D01*
X27035012Y-128964228D01*
X27083393Y-128867466D01*
X27180155Y-128819085D01*
X27373679Y-128819085D01*
X27470440Y-128867466D01*
X27518821Y-128964228D01*
X27518821Y-129060990D01*
X27035012Y-129157752D01*
X27954250Y-129496419D02*
X27954250Y-128819085D01*
X27954250Y-129012609D02*
X28002631Y-128915847D01*
X28051012Y-128867466D01*
X28147774Y-128819085D01*
X28244536Y-128819085D01*
X29212155Y-128819085D02*
X29599202Y-128819085D01*
X29357298Y-128480419D02*
X29357298Y-129351276D01*
X29405679Y-129448038D01*
X29502440Y-129496419D01*
X29599202Y-129496419D01*
X30324917Y-129448038D02*
X30228155Y-129496419D01*
X30034631Y-129496419D01*
X29937869Y-129448038D01*
X29889488Y-129351276D01*
X29889488Y-128964228D01*
X29937869Y-128867466D01*
X30034631Y-128819085D01*
X30228155Y-128819085D01*
X30324917Y-128867466D01*
X30373298Y-128964228D01*
X30373298Y-129060990D01*
X29889488Y-129157752D01*
X30760345Y-129448038D02*
X30857107Y-129496419D01*
X31050631Y-129496419D01*
X31147393Y-129448038D01*
X31195774Y-129351276D01*
X31195774Y-129302895D01*
X31147393Y-129206133D01*
X31050631Y-129157752D01*
X30905488Y-129157752D01*
X30808726Y-129109371D01*
X30760345Y-129012609D01*
X30760345Y-128964228D01*
X30808726Y-128867466D01*
X30905488Y-128819085D01*
X31050631Y-128819085D01*
X31147393Y-128867466D01*
X31486060Y-128819085D02*
X31873107Y-128819085D01*
X31631202Y-128480419D02*
X31631202Y-129351276D01*
X31679583Y-129448038D01*
X31776345Y-129496419D01*
X31873107Y-129496419D01*
X33421298Y-129496419D02*
X33421298Y-128480419D01*
X33421298Y-129448038D02*
X33324536Y-129496419D01*
X33131012Y-129496419D01*
X33034250Y-129448038D01*
X32985869Y-129399657D01*
X32937488Y-129302895D01*
X32937488Y-129012609D01*
X32985869Y-128915847D01*
X33034250Y-128867466D01*
X33131012Y-128819085D01*
X33324536Y-128819085D01*
X33421298Y-128867466D01*
X34292155Y-129448038D02*
X34195393Y-129496419D01*
X34001869Y-129496419D01*
X33905107Y-129448038D01*
X33856726Y-129351276D01*
X33856726Y-128964228D01*
X33905107Y-128867466D01*
X34001869Y-128819085D01*
X34195393Y-128819085D01*
X34292155Y-128867466D01*
X34340536Y-128964228D01*
X34340536Y-129060990D01*
X33856726Y-129157752D01*
X34727583Y-129448038D02*
X34824345Y-129496419D01*
X35017869Y-129496419D01*
X35114631Y-129448038D01*
X35163012Y-129351276D01*
X35163012Y-129302895D01*
X35114631Y-129206133D01*
X35017869Y-129157752D01*
X34872726Y-129157752D01*
X34775964Y-129109371D01*
X34727583Y-129012609D01*
X34727583Y-128964228D01*
X34775964Y-128867466D01*
X34872726Y-128819085D01*
X35017869Y-128819085D01*
X35114631Y-128867466D01*
X35598440Y-129496419D02*
X35598440Y-128819085D01*
X35598440Y-128480419D02*
X35550060Y-128528800D01*
X35598440Y-128577180D01*
X35646821Y-128528800D01*
X35598440Y-128480419D01*
X35598440Y-128577180D01*
X36517679Y-128819085D02*
X36517679Y-129641561D01*
X36469298Y-129738323D01*
X36420917Y-129786704D01*
X36324155Y-129835085D01*
X36179012Y-129835085D01*
X36082250Y-129786704D01*
X36517679Y-129448038D02*
X36420917Y-129496419D01*
X36227393Y-129496419D01*
X36130631Y-129448038D01*
X36082250Y-129399657D01*
X36033869Y-129302895D01*
X36033869Y-129012609D01*
X36082250Y-128915847D01*
X36130631Y-128867466D01*
X36227393Y-128819085D01*
X36420917Y-128819085D01*
X36517679Y-128867466D01*
X37001488Y-128819085D02*
X37001488Y-129496419D01*
X37001488Y-128915847D02*
X37049869Y-128867466D01*
X37146631Y-128819085D01*
X37291774Y-128819085D01*
X37388536Y-128867466D01*
X37436917Y-128964228D01*
X37436917Y-129496419D01*
X25196536Y-131172819D02*
X24857869Y-130689009D01*
X24615964Y-131172819D02*
X24615964Y-130156819D01*
X25003012Y-130156819D01*
X25099774Y-130205200D01*
X25148155Y-130253580D01*
X25196536Y-130350342D01*
X25196536Y-130495485D01*
X25148155Y-130592247D01*
X25099774Y-130640628D01*
X25003012Y-130689009D01*
X24615964Y-130689009D01*
X26019012Y-131124438D02*
X25922250Y-131172819D01*
X25728726Y-131172819D01*
X25631964Y-131124438D01*
X25583583Y-131027676D01*
X25583583Y-130640628D01*
X25631964Y-130543866D01*
X25728726Y-130495485D01*
X25922250Y-130495485D01*
X26019012Y-130543866D01*
X26067393Y-130640628D01*
X26067393Y-130737390D01*
X25583583Y-130834152D01*
X26406060Y-130495485D02*
X26647964Y-131172819D01*
X26889869Y-130495485D01*
X28583202Y-131172819D02*
X28002631Y-131172819D01*
X28292917Y-131172819D02*
X28292917Y-130156819D01*
X28196155Y-130301961D01*
X28099393Y-130398723D01*
X28002631Y-130447104D01*
X32975000Y-101125000D02*
X30350000Y-105050000D01*
X31900000Y-103775000D02*
X25900000Y-109625000D01*
X32900000Y-100575000D02*
X31650000Y-101525000D01*
X34075000Y-100700000D02*
X32900000Y-100575000D01*
X39575000Y-95375000D02*
X34075000Y-100700000D01*
X50125000Y-101500000D02*
X47400000Y-96900000D01*
X51000000Y-103375000D02*
X51075000Y-105575000D01*
X50375000Y-102875000D02*
X51000000Y-103375000D01*
X50025000Y-99350000D02*
X50375000Y-102875000D01*
X46925000Y-92850000D02*
X47200000Y-98075000D01*
D11*
X35950000Y-81580000D02*
X34950000Y-81580000D01*
X35950000Y-82120000D02*
X35950000Y-81580000D01*
X39550000Y-79150000D02*
X39550000Y-79420000D01*
X35950000Y-79150000D02*
X39550000Y-79150000D01*
X35950000Y-79420000D02*
X35950000Y-79150000D01*
X34950000Y-79420000D02*
X35950000Y-79420000D01*
X39550000Y-81580000D02*
X39550000Y-82120000D01*
X35950000Y-84550000D02*
X35950000Y-84280000D01*
X39550000Y-84550000D02*
X35950000Y-84550000D01*
X39550000Y-84280000D02*
X39550000Y-84550000D01*
X42700000Y-115200000D02*
X42600000Y-115200000D01*
X39800000Y-115200000D02*
X39700000Y-115200000D01*
X39700000Y-113800000D02*
X39800000Y-113800000D01*
X42700000Y-114000000D02*
X42500000Y-113800000D01*
X42700000Y-115200000D02*
X42700000Y-114000000D01*
X39700000Y-115200000D02*
X39700000Y-113800000D01*
X41300000Y-113800000D02*
X40700000Y-113800000D01*
X41700000Y-115200000D02*
X40700000Y-115200000D01*
D12*
X39050000Y-92100000D02*
G75*
G03X39050000Y-92100000I-150000J0D01*
G01*
X38900000Y-87700000D02*
X38900000Y-88275000D01*
X39475000Y-87700000D02*
X38900000Y-87700000D01*
X43300000Y-87700000D02*
X42725000Y-87700000D01*
X43300000Y-88275000D02*
X43300000Y-87700000D01*
X43300000Y-91525000D02*
X43300000Y-92100000D01*
X43300000Y-92100000D02*
X42725000Y-92100000D01*
X39475000Y-92100000D02*
X38900000Y-91525000D01*
D11*
X46600000Y-106700000D02*
G75*
G03X46600000Y-106700000I-700000J0D01*
G01*
X46500000Y-124350000D02*
G75*
G03X46500000Y-124350000I-700000J0D01*
G01*
X50950000Y-96650000D02*
G75*
G03X50950000Y-96650000I-700000J0D01*
G01*
X32650000Y-90050000D02*
G75*
G03X32650000Y-90050000I-700000J0D01*
G01*
X32550000Y-86650000D02*
G75*
G03X32550000Y-86650000I-700000J0D01*
G01*
X30800000Y-91350000D02*
G75*
G03X30800000Y-91350000I-700000J0D01*
G01*
X30600000Y-88450000D02*
G75*
G03X30600000Y-88450000I-700000J0D01*
G01*
X30450000Y-84950000D02*
G75*
G03X30450000Y-84950000I-700000J0D01*
G01*
X40700000Y-85750000D02*
G75*
G03X40700000Y-85750000I-700000J0D01*
G01*
X41970711Y-128350000D02*
G75*
G03X41970711Y-128350000I-70711J0D01*
G01*
X40950000Y-126600000D02*
X40950000Y-126700000D01*
X41850000Y-126600000D02*
X40950000Y-126600000D01*
X41850000Y-126700000D02*
X41850000Y-126600000D01*
X41750000Y-128300000D02*
X41850000Y-128200000D01*
X40950000Y-128300000D02*
X41750000Y-128300000D01*
X40950000Y-128200000D02*
X40950000Y-128300000D01*
X42120711Y-101600000D02*
G75*
G03X42120711Y-101600000I-70711J0D01*
G01*
X41100000Y-99850000D02*
X41100000Y-99950000D01*
X42000000Y-99850000D02*
X41100000Y-99850000D01*
X42000000Y-99950000D02*
X42000000Y-99850000D01*
X41900000Y-101550000D02*
X42000000Y-101450000D01*
X41100000Y-101550000D02*
X41900000Y-101550000D01*
X41100000Y-101450000D02*
X41100000Y-101550000D01*
X33671267Y-93840000D02*
X33328733Y-93840000D01*
X33671267Y-94860000D02*
X33328733Y-94860000D01*
X49028733Y-95110000D02*
X49371267Y-95110000D01*
X49028733Y-94090000D02*
X49371267Y-94090000D01*
X45371267Y-98140000D02*
X45028733Y-98140000D01*
X45371267Y-99160000D02*
X45028733Y-99160000D01*
X27990000Y-99478733D02*
X27990000Y-99821267D01*
X29010000Y-99478733D02*
X29010000Y-99821267D01*
X50050000Y-117220000D02*
X51380000Y-117220000D01*
X51380000Y-117220000D02*
X51380000Y-118550000D01*
X51380000Y-119760000D02*
X51380000Y-119880000D01*
X48720000Y-119760000D02*
X48720000Y-119880000D01*
X48720000Y-119880000D02*
X51380000Y-119880000D01*
X50100000Y-109420000D02*
X51430000Y-109420000D01*
X51430000Y-109420000D02*
X51430000Y-110750000D01*
X51430000Y-111960000D02*
X51430000Y-112080000D01*
X48770000Y-111960000D02*
X48770000Y-112080000D01*
X48770000Y-112080000D02*
X51430000Y-112080000D01*
X18620000Y-77770000D02*
X19950000Y-77770000D01*
X18620000Y-79100000D02*
X18620000Y-77770000D01*
X18620000Y-80370000D02*
X21280000Y-80370000D01*
X21280000Y-80370000D02*
X21280000Y-98210000D01*
X18620000Y-80370000D02*
X18620000Y-98210000D01*
X18620000Y-98210000D02*
X21280000Y-98210000D01*
X42760000Y-85111252D02*
X42760000Y-84588748D01*
X41340000Y-85111252D02*
X41340000Y-84588748D01*
X48888748Y-93460000D02*
X49411252Y-93460000D01*
X48888748Y-92040000D02*
X49411252Y-92040000D01*
X33671267Y-92190000D02*
X33328733Y-92190000D01*
X33671267Y-93210000D02*
X33328733Y-93210000D01*
X45178733Y-95260000D02*
X45521267Y-95260000D01*
X45178733Y-94240000D02*
X45521267Y-94240000D01*
X45178733Y-93660000D02*
X45521267Y-93660000D01*
X45178733Y-92640000D02*
X45521267Y-92640000D01*
X33881729Y-98210480D02*
X33639520Y-97968271D01*
X33160480Y-98931729D02*
X32918271Y-98689520D01*
X35231729Y-97110480D02*
X34989520Y-96868271D01*
X34510480Y-97831729D02*
X34268271Y-97589520D01*
X37681729Y-94760480D02*
X37439520Y-94518271D01*
X36960480Y-95481729D02*
X36718271Y-95239520D01*
X38931729Y-93510480D02*
X38689520Y-93268271D01*
X38210480Y-94231729D02*
X37968271Y-93989520D01*
D12*
X43289285Y-96335714D02*
X43317857Y-96364285D01*
X43346428Y-96450000D01*
X43346428Y-96507142D01*
X43317857Y-96592857D01*
X43260714Y-96650000D01*
X43203571Y-96678571D01*
X43089285Y-96707142D01*
X43003571Y-96707142D01*
X42889285Y-96678571D01*
X42832142Y-96650000D01*
X42775000Y-96592857D01*
X42746428Y-96507142D01*
X42746428Y-96450000D01*
X42775000Y-96364285D01*
X42803571Y-96335714D01*
X43346428Y-95764285D02*
X43346428Y-96107142D01*
X43346428Y-95935714D02*
X42746428Y-95935714D01*
X42832142Y-95992857D01*
X42889285Y-96050000D01*
X42917857Y-96107142D01*
X42746428Y-95564285D02*
X42746428Y-95164285D01*
X43346428Y-95421428D01*
X20588095Y-102452380D02*
X20588095Y-101452380D01*
X20588095Y-101928571D02*
X21159523Y-101928571D01*
X21159523Y-102452380D02*
X21159523Y-101452380D01*
X22064285Y-101785714D02*
X22064285Y-102452380D01*
X21826190Y-101404761D02*
X21588095Y-102119047D01*
X22207142Y-102119047D01*
X32952380Y-82709523D02*
X33952380Y-82042857D01*
X32952380Y-82042857D02*
X33952380Y-82709523D01*
X33952380Y-81138095D02*
X33952380Y-81709523D01*
X33952380Y-81423809D02*
X32952380Y-81423809D01*
X33095238Y-81519047D01*
X33190476Y-81614285D01*
X33238095Y-81709523D01*
X38327380Y-115211904D02*
X39136904Y-115211904D01*
X39232142Y-115164285D01*
X39279761Y-115116666D01*
X39327380Y-115021428D01*
X39327380Y-114830952D01*
X39279761Y-114735714D01*
X39232142Y-114688095D01*
X39136904Y-114640476D01*
X38327380Y-114640476D01*
X38422619Y-114211904D02*
X38375000Y-114164285D01*
X38327380Y-114069047D01*
X38327380Y-113830952D01*
X38375000Y-113735714D01*
X38422619Y-113688095D01*
X38517857Y-113640476D01*
X38613095Y-113640476D01*
X38755952Y-113688095D01*
X39327380Y-114259523D01*
X39327380Y-113640476D01*
X36974026Y-86526522D02*
X37546446Y-87098942D01*
X37647461Y-87132614D01*
X37714805Y-87132614D01*
X37815820Y-87098942D01*
X37950507Y-86964255D01*
X37984179Y-86863240D01*
X37984179Y-86795896D01*
X37950507Y-86694881D01*
X37378087Y-86122461D01*
X38792301Y-86122461D02*
X38388240Y-86526522D01*
X38590270Y-86324492D02*
X37883164Y-85617385D01*
X37916835Y-85785744D01*
X37916835Y-85920431D01*
X37883164Y-86021446D01*
X44638095Y-104704380D02*
X45209523Y-104704380D01*
X44923809Y-105704380D02*
X44923809Y-104704380D01*
X45542857Y-105704380D02*
X45542857Y-104704380D01*
X45923809Y-104704380D01*
X46019047Y-104752000D01*
X46066666Y-104799619D01*
X46114285Y-104894857D01*
X46114285Y-105037714D01*
X46066666Y-105132952D01*
X46019047Y-105180571D01*
X45923809Y-105228190D01*
X45542857Y-105228190D01*
X46590476Y-105704380D02*
X46780952Y-105704380D01*
X46876190Y-105656761D01*
X46923809Y-105609142D01*
X47019047Y-105466285D01*
X47066666Y-105275809D01*
X47066666Y-104894857D01*
X47019047Y-104799619D01*
X46971428Y-104752000D01*
X46876190Y-104704380D01*
X46685714Y-104704380D01*
X46590476Y-104752000D01*
X46542857Y-104799619D01*
X46495238Y-104894857D01*
X46495238Y-105132952D01*
X46542857Y-105228190D01*
X46590476Y-105275809D01*
X46685714Y-105323428D01*
X46876190Y-105323428D01*
X46971428Y-105275809D01*
X47019047Y-105228190D01*
X47066666Y-105132952D01*
X44538095Y-122354380D02*
X45109523Y-122354380D01*
X44823809Y-123354380D02*
X44823809Y-122354380D01*
X45442857Y-123354380D02*
X45442857Y-122354380D01*
X45823809Y-122354380D01*
X45919047Y-122402000D01*
X45966666Y-122449619D01*
X46014285Y-122544857D01*
X46014285Y-122687714D01*
X45966666Y-122782952D01*
X45919047Y-122830571D01*
X45823809Y-122878190D01*
X45442857Y-122878190D01*
X46585714Y-122782952D02*
X46490476Y-122735333D01*
X46442857Y-122687714D01*
X46395238Y-122592476D01*
X46395238Y-122544857D01*
X46442857Y-122449619D01*
X46490476Y-122402000D01*
X46585714Y-122354380D01*
X46776190Y-122354380D01*
X46871428Y-122402000D01*
X46919047Y-122449619D01*
X46966666Y-122544857D01*
X46966666Y-122592476D01*
X46919047Y-122687714D01*
X46871428Y-122735333D01*
X46776190Y-122782952D01*
X46585714Y-122782952D01*
X46490476Y-122830571D01*
X46442857Y-122878190D01*
X46395238Y-122973428D01*
X46395238Y-123163904D01*
X46442857Y-123259142D01*
X46490476Y-123306761D01*
X46585714Y-123354380D01*
X46776190Y-123354380D01*
X46871428Y-123306761D01*
X46919047Y-123259142D01*
X46966666Y-123163904D01*
X46966666Y-122973428D01*
X46919047Y-122878190D01*
X46871428Y-122830571D01*
X46776190Y-122782952D01*
X51150380Y-97911904D02*
X51150380Y-97340476D01*
X52150380Y-97626190D02*
X51150380Y-97626190D01*
X52150380Y-97007142D02*
X51150380Y-97007142D01*
X51150380Y-96626190D01*
X51198000Y-96530952D01*
X51245619Y-96483333D01*
X51340857Y-96435714D01*
X51483714Y-96435714D01*
X51578952Y-96483333D01*
X51626571Y-96530952D01*
X51674190Y-96626190D01*
X51674190Y-97007142D01*
X51150380Y-96102380D02*
X51150380Y-95435714D01*
X52150380Y-95864285D01*
X33152380Y-90611904D02*
X33152380Y-90040476D01*
X34152380Y-90326190D02*
X33152380Y-90326190D01*
X34152380Y-89707142D02*
X33152380Y-89707142D01*
X33152380Y-89326190D01*
X33200000Y-89230952D01*
X33247619Y-89183333D01*
X33342857Y-89135714D01*
X33485714Y-89135714D01*
X33580952Y-89183333D01*
X33628571Y-89230952D01*
X33676190Y-89326190D01*
X33676190Y-89707142D01*
X33152380Y-88278571D02*
X33152380Y-88469047D01*
X33200000Y-88564285D01*
X33247619Y-88611904D01*
X33390476Y-88707142D01*
X33580952Y-88754761D01*
X33961904Y-88754761D01*
X34057142Y-88707142D01*
X34104761Y-88659523D01*
X34152380Y-88564285D01*
X34152380Y-88373809D01*
X34104761Y-88278571D01*
X34057142Y-88230952D01*
X33961904Y-88183333D01*
X33723809Y-88183333D01*
X33628571Y-88230952D01*
X33580952Y-88278571D01*
X33533333Y-88373809D01*
X33533333Y-88564285D01*
X33580952Y-88659523D01*
X33628571Y-88707142D01*
X33723809Y-88754761D01*
X33202380Y-86986904D02*
X33202380Y-86415476D01*
X34202380Y-86701190D02*
X33202380Y-86701190D01*
X34202380Y-86082142D02*
X33202380Y-86082142D01*
X33202380Y-85701190D01*
X33250000Y-85605952D01*
X33297619Y-85558333D01*
X33392857Y-85510714D01*
X33535714Y-85510714D01*
X33630952Y-85558333D01*
X33678571Y-85605952D01*
X33726190Y-85701190D01*
X33726190Y-86082142D01*
X33202380Y-84605952D02*
X33202380Y-85082142D01*
X33678571Y-85129761D01*
X33630952Y-85082142D01*
X33583333Y-84986904D01*
X33583333Y-84748809D01*
X33630952Y-84653571D01*
X33678571Y-84605952D01*
X33773809Y-84558333D01*
X34011904Y-84558333D01*
X34107142Y-84605952D01*
X34154761Y-84653571D01*
X34202380Y-84748809D01*
X34202380Y-84986904D01*
X34154761Y-85082142D01*
X34107142Y-85129761D01*
X28104380Y-92611904D02*
X28104380Y-92040476D01*
X29104380Y-92326190D02*
X28104380Y-92326190D01*
X29104380Y-91707142D02*
X28104380Y-91707142D01*
X28104380Y-91326190D01*
X28152000Y-91230952D01*
X28199619Y-91183333D01*
X28294857Y-91135714D01*
X28437714Y-91135714D01*
X28532952Y-91183333D01*
X28580571Y-91230952D01*
X28628190Y-91326190D01*
X28628190Y-91707142D01*
X28437714Y-90278571D02*
X29104380Y-90278571D01*
X28056761Y-90516666D02*
X28771047Y-90754761D01*
X28771047Y-90135714D01*
X27904380Y-89711904D02*
X27904380Y-89140476D01*
X28904380Y-89426190D02*
X27904380Y-89426190D01*
X28904380Y-88807142D02*
X27904380Y-88807142D01*
X27904380Y-88426190D01*
X27952000Y-88330952D01*
X27999619Y-88283333D01*
X28094857Y-88235714D01*
X28237714Y-88235714D01*
X28332952Y-88283333D01*
X28380571Y-88330952D01*
X28428190Y-88426190D01*
X28428190Y-88807142D01*
X27904380Y-87902380D02*
X27904380Y-87283333D01*
X28285333Y-87616666D01*
X28285333Y-87473809D01*
X28332952Y-87378571D01*
X28380571Y-87330952D01*
X28475809Y-87283333D01*
X28713904Y-87283333D01*
X28809142Y-87330952D01*
X28856761Y-87378571D01*
X28904380Y-87473809D01*
X28904380Y-87759523D01*
X28856761Y-87854761D01*
X28809142Y-87902380D01*
X27754380Y-86211904D02*
X27754380Y-85640476D01*
X28754380Y-85926190D02*
X27754380Y-85926190D01*
X28754380Y-85307142D02*
X27754380Y-85307142D01*
X27754380Y-84926190D01*
X27802000Y-84830952D01*
X27849619Y-84783333D01*
X27944857Y-84735714D01*
X28087714Y-84735714D01*
X28182952Y-84783333D01*
X28230571Y-84830952D01*
X28278190Y-84926190D01*
X28278190Y-85307142D01*
X27849619Y-84354761D02*
X27802000Y-84307142D01*
X27754380Y-84211904D01*
X27754380Y-83973809D01*
X27802000Y-83878571D01*
X27849619Y-83830952D01*
X27944857Y-83783333D01*
X28040095Y-83783333D01*
X28182952Y-83830952D01*
X28754380Y-84402380D01*
X28754380Y-83783333D01*
X36488095Y-84727380D02*
X37059523Y-84727380D01*
X36773809Y-85727380D02*
X36773809Y-84727380D01*
X37392857Y-85727380D02*
X37392857Y-84727380D01*
X37773809Y-84727380D01*
X37869047Y-84775000D01*
X37916666Y-84822619D01*
X37964285Y-84917857D01*
X37964285Y-85060714D01*
X37916666Y-85155952D01*
X37869047Y-85203571D01*
X37773809Y-85251190D01*
X37392857Y-85251190D01*
X38916666Y-85727380D02*
X38345238Y-85727380D01*
X38630952Y-85727380D02*
X38630952Y-84727380D01*
X38535714Y-84870238D01*
X38440476Y-84965476D01*
X38345238Y-85013095D01*
X42402380Y-128211904D02*
X42402380Y-127640476D01*
X43402380Y-127926190D02*
X42402380Y-127926190D01*
X42497619Y-127354761D02*
X42450000Y-127307142D01*
X42402380Y-127211904D01*
X42402380Y-126973809D01*
X42450000Y-126878571D01*
X42497619Y-126830952D01*
X42592857Y-126783333D01*
X42688095Y-126783333D01*
X42830952Y-126830952D01*
X43402380Y-127402380D01*
X43402380Y-126783333D01*
X39427380Y-101486904D02*
X39427380Y-100915476D01*
X40427380Y-101201190D02*
X39427380Y-101201190D01*
X40427380Y-100058333D02*
X40427380Y-100629761D01*
X40427380Y-100344047D02*
X39427380Y-100344047D01*
X39570238Y-100439285D01*
X39665476Y-100534523D01*
X39713095Y-100629761D01*
X44177380Y-82017857D02*
X43701190Y-82351190D01*
X44177380Y-82589285D02*
X43177380Y-82589285D01*
X43177380Y-82208333D01*
X43225000Y-82113095D01*
X43272619Y-82065476D01*
X43367857Y-82017857D01*
X43510714Y-82017857D01*
X43605952Y-82065476D01*
X43653571Y-82113095D01*
X43701190Y-82208333D01*
X43701190Y-82589285D01*
X44177380Y-81065476D02*
X44177380Y-81636904D01*
X44177380Y-81351190D02*
X43177380Y-81351190D01*
X43320238Y-81446428D01*
X43415476Y-81541666D01*
X43463095Y-81636904D01*
X43605952Y-80494047D02*
X43558333Y-80589285D01*
X43510714Y-80636904D01*
X43415476Y-80684523D01*
X43367857Y-80684523D01*
X43272619Y-80636904D01*
X43225000Y-80589285D01*
X43177380Y-80494047D01*
X43177380Y-80303571D01*
X43225000Y-80208333D01*
X43272619Y-80160714D01*
X43367857Y-80113095D01*
X43415476Y-80113095D01*
X43510714Y-80160714D01*
X43558333Y-80208333D01*
X43605952Y-80303571D01*
X43605952Y-80494047D01*
X43653571Y-80589285D01*
X43701190Y-80636904D01*
X43796428Y-80684523D01*
X43986904Y-80684523D01*
X44082142Y-80636904D01*
X44129761Y-80589285D01*
X44177380Y-80494047D01*
X44177380Y-80303571D01*
X44129761Y-80208333D01*
X44082142Y-80160714D01*
X43986904Y-80113095D01*
X43796428Y-80113095D01*
X43701190Y-80160714D01*
X43653571Y-80208333D01*
X43605952Y-80303571D01*
X48132142Y-89802380D02*
X47798809Y-89326190D01*
X47560714Y-89802380D02*
X47560714Y-88802380D01*
X47941666Y-88802380D01*
X48036904Y-88850000D01*
X48084523Y-88897619D01*
X48132142Y-88992857D01*
X48132142Y-89135714D01*
X48084523Y-89230952D01*
X48036904Y-89278571D01*
X47941666Y-89326190D01*
X47560714Y-89326190D01*
X49084523Y-89802380D02*
X48513095Y-89802380D01*
X48798809Y-89802380D02*
X48798809Y-88802380D01*
X48703571Y-88945238D01*
X48608333Y-89040476D01*
X48513095Y-89088095D01*
X49417857Y-88802380D02*
X50084523Y-88802380D01*
X49655952Y-89802380D01*
X52177380Y-91192857D02*
X51701190Y-91526190D01*
X52177380Y-91764285D02*
X51177380Y-91764285D01*
X51177380Y-91383333D01*
X51225000Y-91288095D01*
X51272619Y-91240476D01*
X51367857Y-91192857D01*
X51510714Y-91192857D01*
X51605952Y-91240476D01*
X51653571Y-91288095D01*
X51701190Y-91383333D01*
X51701190Y-91764285D01*
X52177380Y-90240476D02*
X52177380Y-90811904D01*
X52177380Y-90526190D02*
X51177380Y-90526190D01*
X51320238Y-90621428D01*
X51415476Y-90716666D01*
X51463095Y-90811904D01*
X51177380Y-89383333D02*
X51177380Y-89573809D01*
X51225000Y-89669047D01*
X51272619Y-89716666D01*
X51415476Y-89811904D01*
X51605952Y-89859523D01*
X51986904Y-89859523D01*
X52082142Y-89811904D01*
X52129761Y-89764285D01*
X52177380Y-89669047D01*
X52177380Y-89478571D01*
X52129761Y-89383333D01*
X52082142Y-89335714D01*
X51986904Y-89288095D01*
X51748809Y-89288095D01*
X51653571Y-89335714D01*
X51605952Y-89383333D01*
X51558333Y-89478571D01*
X51558333Y-89669047D01*
X51605952Y-89764285D01*
X51653571Y-89811904D01*
X51748809Y-89859523D01*
X47272380Y-114792857D02*
X46796190Y-115126190D01*
X47272380Y-115364285D02*
X46272380Y-115364285D01*
X46272380Y-114983333D01*
X46320000Y-114888095D01*
X46367619Y-114840476D01*
X46462857Y-114792857D01*
X46605714Y-114792857D01*
X46700952Y-114840476D01*
X46748571Y-114888095D01*
X46796190Y-114983333D01*
X46796190Y-115364285D01*
X47272380Y-113840476D02*
X47272380Y-114411904D01*
X47272380Y-114126190D02*
X46272380Y-114126190D01*
X46415238Y-114221428D01*
X46510476Y-114316666D01*
X46558095Y-114411904D01*
X46272380Y-112935714D02*
X46272380Y-113411904D01*
X46748571Y-113459523D01*
X46700952Y-113411904D01*
X46653333Y-113316666D01*
X46653333Y-113078571D01*
X46700952Y-112983333D01*
X46748571Y-112935714D01*
X46843809Y-112888095D01*
X47081904Y-112888095D01*
X47177142Y-112935714D01*
X47224761Y-112983333D01*
X47272380Y-113078571D01*
X47272380Y-113316666D01*
X47224761Y-113411904D01*
X47177142Y-113459523D01*
X32857142Y-96232380D02*
X32523809Y-95756190D01*
X32285714Y-96232380D02*
X32285714Y-95232380D01*
X32666666Y-95232380D01*
X32761904Y-95280000D01*
X32809523Y-95327619D01*
X32857142Y-95422857D01*
X32857142Y-95565714D01*
X32809523Y-95660952D01*
X32761904Y-95708571D01*
X32666666Y-95756190D01*
X32285714Y-95756190D01*
X33809523Y-96232380D02*
X33238095Y-96232380D01*
X33523809Y-96232380D02*
X33523809Y-95232380D01*
X33428571Y-95375238D01*
X33333333Y-95470476D01*
X33238095Y-95518095D01*
X34666666Y-95565714D02*
X34666666Y-96232380D01*
X34428571Y-95184761D02*
X34190476Y-95899047D01*
X34809523Y-95899047D01*
X51657142Y-94927380D02*
X51323809Y-94451190D01*
X51085714Y-94927380D02*
X51085714Y-93927380D01*
X51466666Y-93927380D01*
X51561904Y-93975000D01*
X51609523Y-94022619D01*
X51657142Y-94117857D01*
X51657142Y-94260714D01*
X51609523Y-94355952D01*
X51561904Y-94403571D01*
X51466666Y-94451190D01*
X51085714Y-94451190D01*
X52609523Y-94927380D02*
X52038095Y-94927380D01*
X52323809Y-94927380D02*
X52323809Y-93927380D01*
X52228571Y-94070238D01*
X52133333Y-94165476D01*
X52038095Y-94213095D01*
X52942857Y-93927380D02*
X53561904Y-93927380D01*
X53228571Y-94308333D01*
X53371428Y-94308333D01*
X53466666Y-94355952D01*
X53514285Y-94403571D01*
X53561904Y-94498809D01*
X53561904Y-94736904D01*
X53514285Y-94832142D01*
X53466666Y-94879761D01*
X53371428Y-94927380D01*
X53085714Y-94927380D01*
X52990476Y-94879761D01*
X52942857Y-94832142D01*
X47472380Y-117742857D02*
X46996190Y-118076190D01*
X47472380Y-118314285D02*
X46472380Y-118314285D01*
X46472380Y-117933333D01*
X46520000Y-117838095D01*
X46567619Y-117790476D01*
X46662857Y-117742857D01*
X46805714Y-117742857D01*
X46900952Y-117790476D01*
X46948571Y-117838095D01*
X46996190Y-117933333D01*
X46996190Y-118314285D01*
X47472380Y-116790476D02*
X47472380Y-117361904D01*
X47472380Y-117076190D02*
X46472380Y-117076190D01*
X46615238Y-117171428D01*
X46710476Y-117266666D01*
X46758095Y-117361904D01*
X46567619Y-116409523D02*
X46520000Y-116361904D01*
X46472380Y-116266666D01*
X46472380Y-116028571D01*
X46520000Y-115933333D01*
X46567619Y-115885714D01*
X46662857Y-115838095D01*
X46758095Y-115838095D01*
X46900952Y-115885714D01*
X47472380Y-116457142D01*
X47472380Y-115838095D01*
X47422380Y-111992857D02*
X46946190Y-112326190D01*
X47422380Y-112564285D02*
X46422380Y-112564285D01*
X46422380Y-112183333D01*
X46470000Y-112088095D01*
X46517619Y-112040476D01*
X46612857Y-111992857D01*
X46755714Y-111992857D01*
X46850952Y-112040476D01*
X46898571Y-112088095D01*
X46946190Y-112183333D01*
X46946190Y-112564285D01*
X47422380Y-111040476D02*
X47422380Y-111611904D01*
X47422380Y-111326190D02*
X46422380Y-111326190D01*
X46565238Y-111421428D01*
X46660476Y-111516666D01*
X46708095Y-111611904D01*
X47422380Y-110088095D02*
X47422380Y-110659523D01*
X47422380Y-110373809D02*
X46422380Y-110373809D01*
X46565238Y-110469047D01*
X46660476Y-110564285D01*
X46708095Y-110659523D01*
X23782142Y-91602380D02*
X23448809Y-91126190D01*
X23210714Y-91602380D02*
X23210714Y-90602380D01*
X23591666Y-90602380D01*
X23686904Y-90650000D01*
X23734523Y-90697619D01*
X23782142Y-90792857D01*
X23782142Y-90935714D01*
X23734523Y-91030952D01*
X23686904Y-91078571D01*
X23591666Y-91126190D01*
X23210714Y-91126190D01*
X24734523Y-91602380D02*
X24163095Y-91602380D01*
X24448809Y-91602380D02*
X24448809Y-90602380D01*
X24353571Y-90745238D01*
X24258333Y-90840476D01*
X24163095Y-90888095D01*
X25353571Y-90602380D02*
X25448809Y-90602380D01*
X25544047Y-90650000D01*
X25591666Y-90697619D01*
X25639285Y-90792857D01*
X25686904Y-90983333D01*
X25686904Y-91221428D01*
X25639285Y-91411904D01*
X25591666Y-91507142D01*
X25544047Y-91554761D01*
X25448809Y-91602380D01*
X25353571Y-91602380D01*
X25258333Y-91554761D01*
X25210714Y-91507142D01*
X25163095Y-91411904D01*
X25115476Y-91221428D01*
X25115476Y-90983333D01*
X25163095Y-90792857D01*
X25210714Y-90697619D01*
X25258333Y-90650000D01*
X25353571Y-90602380D01*
X24683333Y-90227380D02*
X24350000Y-89751190D01*
X24111904Y-90227380D02*
X24111904Y-89227380D01*
X24492857Y-89227380D01*
X24588095Y-89275000D01*
X24635714Y-89322619D01*
X24683333Y-89417857D01*
X24683333Y-89560714D01*
X24635714Y-89655952D01*
X24588095Y-89703571D01*
X24492857Y-89751190D01*
X24111904Y-89751190D01*
X25159523Y-90227380D02*
X25350000Y-90227380D01*
X25445238Y-90179761D01*
X25492857Y-90132142D01*
X25588095Y-89989285D01*
X25635714Y-89798809D01*
X25635714Y-89417857D01*
X25588095Y-89322619D01*
X25540476Y-89275000D01*
X25445238Y-89227380D01*
X25254761Y-89227380D01*
X25159523Y-89275000D01*
X25111904Y-89322619D01*
X25064285Y-89417857D01*
X25064285Y-89655952D01*
X25111904Y-89751190D01*
X25159523Y-89798809D01*
X25254761Y-89846428D01*
X25445238Y-89846428D01*
X25540476Y-89798809D01*
X25588095Y-89751190D01*
X25635714Y-89655952D01*
X24733333Y-89077380D02*
X24400000Y-88601190D01*
X24161904Y-89077380D02*
X24161904Y-88077380D01*
X24542857Y-88077380D01*
X24638095Y-88125000D01*
X24685714Y-88172619D01*
X24733333Y-88267857D01*
X24733333Y-88410714D01*
X24685714Y-88505952D01*
X24638095Y-88553571D01*
X24542857Y-88601190D01*
X24161904Y-88601190D01*
X25304761Y-88505952D02*
X25209523Y-88458333D01*
X25161904Y-88410714D01*
X25114285Y-88315476D01*
X25114285Y-88267857D01*
X25161904Y-88172619D01*
X25209523Y-88125000D01*
X25304761Y-88077380D01*
X25495238Y-88077380D01*
X25590476Y-88125000D01*
X25638095Y-88172619D01*
X25685714Y-88267857D01*
X25685714Y-88315476D01*
X25638095Y-88410714D01*
X25590476Y-88458333D01*
X25495238Y-88505952D01*
X25304761Y-88505952D01*
X25209523Y-88553571D01*
X25161904Y-88601190D01*
X25114285Y-88696428D01*
X25114285Y-88886904D01*
X25161904Y-88982142D01*
X25209523Y-89029761D01*
X25304761Y-89077380D01*
X25495238Y-89077380D01*
X25590476Y-89029761D01*
X25638095Y-88982142D01*
X25685714Y-88886904D01*
X25685714Y-88696428D01*
X25638095Y-88601190D01*
X25590476Y-88553571D01*
X25495238Y-88505952D01*
X45102380Y-102841666D02*
X44626190Y-103175000D01*
X45102380Y-103413095D02*
X44102380Y-103413095D01*
X44102380Y-103032142D01*
X44150000Y-102936904D01*
X44197619Y-102889285D01*
X44292857Y-102841666D01*
X44435714Y-102841666D01*
X44530952Y-102889285D01*
X44578571Y-102936904D01*
X44626190Y-103032142D01*
X44626190Y-103413095D01*
X44102380Y-102508333D02*
X44102380Y-101841666D01*
X45102380Y-102270238D01*
X24583333Y-87927380D02*
X24250000Y-87451190D01*
X24011904Y-87927380D02*
X24011904Y-86927380D01*
X24392857Y-86927380D01*
X24488095Y-86975000D01*
X24535714Y-87022619D01*
X24583333Y-87117857D01*
X24583333Y-87260714D01*
X24535714Y-87355952D01*
X24488095Y-87403571D01*
X24392857Y-87451190D01*
X24011904Y-87451190D01*
X25440476Y-86927380D02*
X25250000Y-86927380D01*
X25154761Y-86975000D01*
X25107142Y-87022619D01*
X25011904Y-87165476D01*
X24964285Y-87355952D01*
X24964285Y-87736904D01*
X25011904Y-87832142D01*
X25059523Y-87879761D01*
X25154761Y-87927380D01*
X25345238Y-87927380D01*
X25440476Y-87879761D01*
X25488095Y-87832142D01*
X25535714Y-87736904D01*
X25535714Y-87498809D01*
X25488095Y-87403571D01*
X25440476Y-87355952D01*
X25345238Y-87308333D01*
X25154761Y-87308333D01*
X25059523Y-87355952D01*
X25011904Y-87403571D01*
X24964285Y-87498809D01*
X38858333Y-122127380D02*
X38525000Y-121651190D01*
X38286904Y-122127380D02*
X38286904Y-121127380D01*
X38667857Y-121127380D01*
X38763095Y-121175000D01*
X38810714Y-121222619D01*
X38858333Y-121317857D01*
X38858333Y-121460714D01*
X38810714Y-121555952D01*
X38763095Y-121603571D01*
X38667857Y-121651190D01*
X38286904Y-121651190D01*
X39763095Y-121127380D02*
X39286904Y-121127380D01*
X39239285Y-121603571D01*
X39286904Y-121555952D01*
X39382142Y-121508333D01*
X39620238Y-121508333D01*
X39715476Y-121555952D01*
X39763095Y-121603571D01*
X39810714Y-121698809D01*
X39810714Y-121936904D01*
X39763095Y-122032142D01*
X39715476Y-122079761D01*
X39620238Y-122127380D01*
X39382142Y-122127380D01*
X39286904Y-122079761D01*
X39239285Y-122032142D01*
X24683333Y-86627380D02*
X24350000Y-86151190D01*
X24111904Y-86627380D02*
X24111904Y-85627380D01*
X24492857Y-85627380D01*
X24588095Y-85675000D01*
X24635714Y-85722619D01*
X24683333Y-85817857D01*
X24683333Y-85960714D01*
X24635714Y-86055952D01*
X24588095Y-86103571D01*
X24492857Y-86151190D01*
X24111904Y-86151190D01*
X25540476Y-85960714D02*
X25540476Y-86627380D01*
X25302380Y-85579761D02*
X25064285Y-86294047D01*
X25683333Y-86294047D01*
X37852380Y-102916666D02*
X37376190Y-103250000D01*
X37852380Y-103488095D02*
X36852380Y-103488095D01*
X36852380Y-103107142D01*
X36900000Y-103011904D01*
X36947619Y-102964285D01*
X37042857Y-102916666D01*
X37185714Y-102916666D01*
X37280952Y-102964285D01*
X37328571Y-103011904D01*
X37376190Y-103107142D01*
X37376190Y-103488095D01*
X36852380Y-102583333D02*
X36852380Y-101964285D01*
X37233333Y-102297619D01*
X37233333Y-102154761D01*
X37280952Y-102059523D01*
X37328571Y-102011904D01*
X37423809Y-101964285D01*
X37661904Y-101964285D01*
X37757142Y-102011904D01*
X37804761Y-102059523D01*
X37852380Y-102154761D01*
X37852380Y-102440476D01*
X37804761Y-102535714D01*
X37757142Y-102583333D01*
X45033333Y-100532380D02*
X44700000Y-100056190D01*
X44461904Y-100532380D02*
X44461904Y-99532380D01*
X44842857Y-99532380D01*
X44938095Y-99580000D01*
X44985714Y-99627619D01*
X45033333Y-99722857D01*
X45033333Y-99865714D01*
X44985714Y-99960952D01*
X44938095Y-100008571D01*
X44842857Y-100056190D01*
X44461904Y-100056190D01*
X45414285Y-99627619D02*
X45461904Y-99580000D01*
X45557142Y-99532380D01*
X45795238Y-99532380D01*
X45890476Y-99580000D01*
X45938095Y-99627619D01*
X45985714Y-99722857D01*
X45985714Y-99818095D01*
X45938095Y-99960952D01*
X45366666Y-100532380D01*
X45985714Y-100532380D01*
X27727380Y-99716666D02*
X27251190Y-100050000D01*
X27727380Y-100288095D02*
X26727380Y-100288095D01*
X26727380Y-99907142D01*
X26775000Y-99811904D01*
X26822619Y-99764285D01*
X26917857Y-99716666D01*
X27060714Y-99716666D01*
X27155952Y-99764285D01*
X27203571Y-99811904D01*
X27251190Y-99907142D01*
X27251190Y-100288095D01*
X27727380Y-98764285D02*
X27727380Y-99335714D01*
X27727380Y-99050000D02*
X26727380Y-99050000D01*
X26870238Y-99145238D01*
X26965476Y-99240476D01*
X27013095Y-99335714D01*
X47707142Y-88352380D02*
X47230952Y-88352380D01*
X47230952Y-87352380D01*
X48564285Y-88352380D02*
X47992857Y-88352380D01*
X48278571Y-88352380D02*
X48278571Y-87352380D01*
X48183333Y-87495238D01*
X48088095Y-87590476D01*
X47992857Y-87638095D01*
X48897619Y-87352380D02*
X49564285Y-87352380D01*
X49135714Y-88352380D01*
X50927380Y-91092857D02*
X50927380Y-91569047D01*
X49927380Y-91569047D01*
X50927380Y-90235714D02*
X50927380Y-90807142D01*
X50927380Y-90521428D02*
X49927380Y-90521428D01*
X50070238Y-90616666D01*
X50165476Y-90711904D01*
X50213095Y-90807142D01*
X49927380Y-89378571D02*
X49927380Y-89569047D01*
X49975000Y-89664285D01*
X50022619Y-89711904D01*
X50165476Y-89807142D01*
X50355952Y-89854761D01*
X50736904Y-89854761D01*
X50832142Y-89807142D01*
X50879761Y-89759523D01*
X50927380Y-89664285D01*
X50927380Y-89473809D01*
X50879761Y-89378571D01*
X50832142Y-89330952D01*
X50736904Y-89283333D01*
X50498809Y-89283333D01*
X50403571Y-89330952D01*
X50355952Y-89378571D01*
X50308333Y-89473809D01*
X50308333Y-89664285D01*
X50355952Y-89759523D01*
X50403571Y-89807142D01*
X50498809Y-89854761D01*
X46652380Y-103367857D02*
X46652380Y-103844047D01*
X45652380Y-103844047D01*
X46652380Y-102510714D02*
X46652380Y-103082142D01*
X46652380Y-102796428D02*
X45652380Y-102796428D01*
X45795238Y-102891666D01*
X45890476Y-102986904D01*
X45938095Y-103082142D01*
X45652380Y-101605952D02*
X45652380Y-102082142D01*
X46128571Y-102129761D01*
X46080952Y-102082142D01*
X46033333Y-101986904D01*
X46033333Y-101748809D01*
X46080952Y-101653571D01*
X46128571Y-101605952D01*
X46223809Y-101558333D01*
X46461904Y-101558333D01*
X46557142Y-101605952D01*
X46604761Y-101653571D01*
X46652380Y-101748809D01*
X46652380Y-101986904D01*
X46604761Y-102082142D01*
X46557142Y-102129761D01*
X36502380Y-103417857D02*
X36502380Y-103894047D01*
X35502380Y-103894047D01*
X36502380Y-102560714D02*
X36502380Y-103132142D01*
X36502380Y-102846428D02*
X35502380Y-102846428D01*
X35645238Y-102941666D01*
X35740476Y-103036904D01*
X35788095Y-103132142D01*
X35835714Y-101703571D02*
X36502380Y-101703571D01*
X35454761Y-101941666D02*
X36169047Y-102179761D01*
X36169047Y-101560714D01*
X44407142Y-126732380D02*
X43930952Y-126732380D01*
X43930952Y-125732380D01*
X45264285Y-126732380D02*
X44692857Y-126732380D01*
X44978571Y-126732380D02*
X44978571Y-125732380D01*
X44883333Y-125875238D01*
X44788095Y-125970476D01*
X44692857Y-126018095D01*
X45597619Y-125732380D02*
X46216666Y-125732380D01*
X45883333Y-126113333D01*
X46026190Y-126113333D01*
X46121428Y-126160952D01*
X46169047Y-126208571D01*
X46216666Y-126303809D01*
X46216666Y-126541904D01*
X46169047Y-126637142D01*
X46121428Y-126684761D01*
X46026190Y-126732380D01*
X45740476Y-126732380D01*
X45645238Y-126684761D01*
X45597619Y-126637142D01*
X43322380Y-120817857D02*
X43322380Y-121294047D01*
X42322380Y-121294047D01*
X43322380Y-119960714D02*
X43322380Y-120532142D01*
X43322380Y-120246428D02*
X42322380Y-120246428D01*
X42465238Y-120341666D01*
X42560476Y-120436904D01*
X42608095Y-120532142D01*
X42417619Y-119579761D02*
X42370000Y-119532142D01*
X42322380Y-119436904D01*
X42322380Y-119198809D01*
X42370000Y-119103571D01*
X42417619Y-119055952D01*
X42512857Y-119008333D01*
X42608095Y-119008333D01*
X42750952Y-119055952D01*
X43322380Y-119627380D01*
X43322380Y-119008333D01*
X43347380Y-117792857D02*
X43347380Y-118269047D01*
X42347380Y-118269047D01*
X43347380Y-116935714D02*
X43347380Y-117507142D01*
X43347380Y-117221428D02*
X42347380Y-117221428D01*
X42490238Y-117316666D01*
X42585476Y-117411904D01*
X42633095Y-117507142D01*
X43347380Y-115983333D02*
X43347380Y-116554761D01*
X43347380Y-116269047D02*
X42347380Y-116269047D01*
X42490238Y-116364285D01*
X42585476Y-116459523D01*
X42633095Y-116554761D01*
X43297380Y-112392857D02*
X43297380Y-112869047D01*
X42297380Y-112869047D01*
X43297380Y-111535714D02*
X43297380Y-112107142D01*
X43297380Y-111821428D02*
X42297380Y-111821428D01*
X42440238Y-111916666D01*
X42535476Y-112011904D01*
X42583095Y-112107142D01*
X42297380Y-110916666D02*
X42297380Y-110821428D01*
X42345000Y-110726190D01*
X42392619Y-110678571D01*
X42487857Y-110630952D01*
X42678333Y-110583333D01*
X42916428Y-110583333D01*
X43106904Y-110630952D01*
X43202142Y-110678571D01*
X43249761Y-110726190D01*
X43297380Y-110821428D01*
X43297380Y-110916666D01*
X43249761Y-111011904D01*
X43202142Y-111059523D01*
X43106904Y-111107142D01*
X42916428Y-111154761D01*
X42678333Y-111154761D01*
X42487857Y-111107142D01*
X42392619Y-111059523D01*
X42345000Y-111011904D01*
X42297380Y-110916666D01*
X43297380Y-108841666D02*
X43297380Y-109317857D01*
X42297380Y-109317857D01*
X43297380Y-108460714D02*
X43297380Y-108270238D01*
X43249761Y-108175000D01*
X43202142Y-108127380D01*
X43059285Y-108032142D01*
X42868809Y-107984523D01*
X42487857Y-107984523D01*
X42392619Y-108032142D01*
X42345000Y-108079761D01*
X42297380Y-108175000D01*
X42297380Y-108365476D01*
X42345000Y-108460714D01*
X42392619Y-108508333D01*
X42487857Y-108555952D01*
X42725952Y-108555952D01*
X42821190Y-108508333D01*
X42868809Y-108460714D01*
X42916428Y-108365476D01*
X42916428Y-108175000D01*
X42868809Y-108079761D01*
X42821190Y-108032142D01*
X42725952Y-107984523D01*
X43371428Y-98700000D02*
X43371428Y-98985714D01*
X42771428Y-98985714D01*
X43028571Y-98414285D02*
X43000000Y-98471428D01*
X42971428Y-98500000D01*
X42914285Y-98528571D01*
X42885714Y-98528571D01*
X42828571Y-98500000D01*
X42800000Y-98471428D01*
X42771428Y-98414285D01*
X42771428Y-98300000D01*
X42800000Y-98242857D01*
X42828571Y-98214285D01*
X42885714Y-98185714D01*
X42914285Y-98185714D01*
X42971428Y-98214285D01*
X43000000Y-98242857D01*
X43028571Y-98300000D01*
X43028571Y-98414285D01*
X43057142Y-98471428D01*
X43085714Y-98500000D01*
X43142857Y-98528571D01*
X43257142Y-98528571D01*
X43314285Y-98500000D01*
X43342857Y-98471428D01*
X43371428Y-98414285D01*
X43371428Y-98300000D01*
X43342857Y-98242857D01*
X43314285Y-98214285D01*
X43257142Y-98185714D01*
X43142857Y-98185714D01*
X43085714Y-98214285D01*
X43057142Y-98242857D01*
X43028571Y-98300000D01*
X40002380Y-120241666D02*
X40002380Y-120717857D01*
X39002380Y-120717857D01*
X39002380Y-120003571D02*
X39002380Y-119336904D01*
X40002380Y-119765476D01*
X40227380Y-117316666D02*
X40227380Y-117792857D01*
X39227380Y-117792857D01*
X39227380Y-116554761D02*
X39227380Y-116745238D01*
X39275000Y-116840476D01*
X39322619Y-116888095D01*
X39465476Y-116983333D01*
X39655952Y-117030952D01*
X40036904Y-117030952D01*
X40132142Y-116983333D01*
X40179761Y-116935714D01*
X40227380Y-116840476D01*
X40227380Y-116650000D01*
X40179761Y-116554761D01*
X40132142Y-116507142D01*
X40036904Y-116459523D01*
X39798809Y-116459523D01*
X39703571Y-116507142D01*
X39655952Y-116554761D01*
X39608333Y-116650000D01*
X39608333Y-116840476D01*
X39655952Y-116935714D01*
X39703571Y-116983333D01*
X39798809Y-117030952D01*
X39902380Y-111916666D02*
X39902380Y-112392857D01*
X38902380Y-112392857D01*
X38902380Y-111107142D02*
X38902380Y-111583333D01*
X39378571Y-111630952D01*
X39330952Y-111583333D01*
X39283333Y-111488095D01*
X39283333Y-111250000D01*
X39330952Y-111154761D01*
X39378571Y-111107142D01*
X39473809Y-111059523D01*
X39711904Y-111059523D01*
X39807142Y-111107142D01*
X39854761Y-111154761D01*
X39902380Y-111250000D01*
X39902380Y-111488095D01*
X39854761Y-111583333D01*
X39807142Y-111630952D01*
X39927380Y-108866666D02*
X39927380Y-109342857D01*
X38927380Y-109342857D01*
X39260714Y-108104761D02*
X39927380Y-108104761D01*
X38879761Y-108342857D02*
X39594047Y-108580952D01*
X39594047Y-107961904D01*
X40496428Y-98375000D02*
X40496428Y-98660714D01*
X39896428Y-98660714D01*
X39896428Y-98232142D02*
X39896428Y-97860714D01*
X40125000Y-98060714D01*
X40125000Y-97975000D01*
X40153571Y-97917857D01*
X40182142Y-97889285D01*
X40239285Y-97860714D01*
X40382142Y-97860714D01*
X40439285Y-97889285D01*
X40467857Y-97917857D01*
X40496428Y-97975000D01*
X40496428Y-98146428D01*
X40467857Y-98203571D01*
X40439285Y-98232142D01*
X43446428Y-94650000D02*
X43446428Y-94935714D01*
X42846428Y-94935714D01*
X42903571Y-94478571D02*
X42875000Y-94450000D01*
X42846428Y-94392857D01*
X42846428Y-94250000D01*
X42875000Y-94192857D01*
X42903571Y-94164285D01*
X42960714Y-94135714D01*
X43017857Y-94135714D01*
X43103571Y-94164285D01*
X43446428Y-94507142D01*
X43446428Y-94135714D01*
X40471428Y-94825000D02*
X40471428Y-95110714D01*
X39871428Y-95110714D01*
X40471428Y-94310714D02*
X40471428Y-94653571D01*
X40471428Y-94482142D02*
X39871428Y-94482142D01*
X39957142Y-94539285D01*
X40014285Y-94596428D01*
X40042857Y-94653571D01*
X49716666Y-115232380D02*
X49716666Y-115946666D01*
X49669047Y-116089523D01*
X49573809Y-116184761D01*
X49430952Y-116232380D01*
X49335714Y-116232380D01*
X50621428Y-115232380D02*
X50430952Y-115232380D01*
X50335714Y-115280000D01*
X50288095Y-115327619D01*
X50192857Y-115470476D01*
X50145238Y-115660952D01*
X50145238Y-116041904D01*
X50192857Y-116137142D01*
X50240476Y-116184761D01*
X50335714Y-116232380D01*
X50526190Y-116232380D01*
X50621428Y-116184761D01*
X50669047Y-116137142D01*
X50716666Y-116041904D01*
X50716666Y-115803809D01*
X50669047Y-115708571D01*
X50621428Y-115660952D01*
X50526190Y-115613333D01*
X50335714Y-115613333D01*
X50240476Y-115660952D01*
X50192857Y-115708571D01*
X50145238Y-115803809D01*
X49766666Y-107432380D02*
X49766666Y-108146666D01*
X49719047Y-108289523D01*
X49623809Y-108384761D01*
X49480952Y-108432380D01*
X49385714Y-108432380D01*
X50719047Y-107432380D02*
X50242857Y-107432380D01*
X50195238Y-107908571D01*
X50242857Y-107860952D01*
X50338095Y-107813333D01*
X50576190Y-107813333D01*
X50671428Y-107860952D01*
X50719047Y-107908571D01*
X50766666Y-108003809D01*
X50766666Y-108241904D01*
X50719047Y-108337142D01*
X50671428Y-108384761D01*
X50576190Y-108432380D01*
X50338095Y-108432380D01*
X50242857Y-108384761D01*
X50195238Y-108337142D01*
X19466666Y-98727380D02*
X19466666Y-99441666D01*
X19419047Y-99584523D01*
X19323809Y-99679761D01*
X19180952Y-99727380D01*
X19085714Y-99727380D01*
X20371428Y-99060714D02*
X20371428Y-99727380D01*
X20133333Y-98679761D02*
X19895238Y-99394047D01*
X20514285Y-99394047D01*
X34932380Y-139073333D02*
X35646666Y-139073333D01*
X35789523Y-139120952D01*
X35884761Y-139216190D01*
X35932380Y-139359047D01*
X35932380Y-139454285D01*
X34932380Y-138692380D02*
X34932380Y-138073333D01*
X35313333Y-138406666D01*
X35313333Y-138263809D01*
X35360952Y-138168571D01*
X35408571Y-138120952D01*
X35503809Y-138073333D01*
X35741904Y-138073333D01*
X35837142Y-138120952D01*
X35884761Y-138168571D01*
X35932380Y-138263809D01*
X35932380Y-138549523D01*
X35884761Y-138644761D01*
X35837142Y-138692380D01*
X36966666Y-124002380D02*
X36966666Y-124716666D01*
X36919047Y-124859523D01*
X36823809Y-124954761D01*
X36680952Y-125002380D01*
X36585714Y-125002380D01*
X37395238Y-124097619D02*
X37442857Y-124050000D01*
X37538095Y-124002380D01*
X37776190Y-124002380D01*
X37871428Y-124050000D01*
X37919047Y-124097619D01*
X37966666Y-124192857D01*
X37966666Y-124288095D01*
X37919047Y-124430952D01*
X37347619Y-125002380D01*
X37966666Y-125002380D01*
X37002380Y-105658333D02*
X37716666Y-105658333D01*
X37859523Y-105705952D01*
X37954761Y-105801190D01*
X38002380Y-105944047D01*
X38002380Y-106039285D01*
X38002380Y-104658333D02*
X38002380Y-105229761D01*
X38002380Y-104944047D02*
X37002380Y-104944047D01*
X37145238Y-105039285D01*
X37240476Y-105134523D01*
X37288095Y-105229761D01*
X42507142Y-82217857D02*
X42554761Y-82265476D01*
X42602380Y-82408333D01*
X42602380Y-82503571D01*
X42554761Y-82646428D01*
X42459523Y-82741666D01*
X42364285Y-82789285D01*
X42173809Y-82836904D01*
X42030952Y-82836904D01*
X41840476Y-82789285D01*
X41745238Y-82741666D01*
X41650000Y-82646428D01*
X41602380Y-82503571D01*
X41602380Y-82408333D01*
X41650000Y-82265476D01*
X41697619Y-82217857D01*
X41697619Y-81836904D02*
X41650000Y-81789285D01*
X41602380Y-81694047D01*
X41602380Y-81455952D01*
X41650000Y-81360714D01*
X41697619Y-81313095D01*
X41792857Y-81265476D01*
X41888095Y-81265476D01*
X42030952Y-81313095D01*
X42602380Y-81884523D01*
X42602380Y-81265476D01*
X41697619Y-80884523D02*
X41650000Y-80836904D01*
X41602380Y-80741666D01*
X41602380Y-80503571D01*
X41650000Y-80408333D01*
X41697619Y-80360714D01*
X41792857Y-80313095D01*
X41888095Y-80313095D01*
X42030952Y-80360714D01*
X42602380Y-80932142D01*
X42602380Y-80313095D01*
X44042142Y-86787142D02*
X43994523Y-86834761D01*
X43851666Y-86882380D01*
X43756428Y-86882380D01*
X43613571Y-86834761D01*
X43518333Y-86739523D01*
X43470714Y-86644285D01*
X43423095Y-86453809D01*
X43423095Y-86310952D01*
X43470714Y-86120476D01*
X43518333Y-86025238D01*
X43613571Y-85930000D01*
X43756428Y-85882380D01*
X43851666Y-85882380D01*
X43994523Y-85930000D01*
X44042142Y-85977619D01*
X44423095Y-85977619D02*
X44470714Y-85930000D01*
X44565952Y-85882380D01*
X44804047Y-85882380D01*
X44899285Y-85930000D01*
X44946904Y-85977619D01*
X44994523Y-86072857D01*
X44994523Y-86168095D01*
X44946904Y-86310952D01*
X44375476Y-86882380D01*
X44994523Y-86882380D01*
X45946904Y-86882380D02*
X45375476Y-86882380D01*
X45661190Y-86882380D02*
X45661190Y-85882380D01*
X45565952Y-86025238D01*
X45470714Y-86120476D01*
X45375476Y-86168095D01*
X30337142Y-94192857D02*
X30384761Y-94240476D01*
X30432380Y-94383333D01*
X30432380Y-94478571D01*
X30384761Y-94621428D01*
X30289523Y-94716666D01*
X30194285Y-94764285D01*
X30003809Y-94811904D01*
X29860952Y-94811904D01*
X29670476Y-94764285D01*
X29575238Y-94716666D01*
X29480000Y-94621428D01*
X29432380Y-94478571D01*
X29432380Y-94383333D01*
X29480000Y-94240476D01*
X29527619Y-94192857D01*
X29527619Y-93811904D02*
X29480000Y-93764285D01*
X29432380Y-93669047D01*
X29432380Y-93430952D01*
X29480000Y-93335714D01*
X29527619Y-93288095D01*
X29622857Y-93240476D01*
X29718095Y-93240476D01*
X29860952Y-93288095D01*
X30432380Y-93859523D01*
X30432380Y-93240476D01*
X29432380Y-92621428D02*
X29432380Y-92526190D01*
X29480000Y-92430952D01*
X29527619Y-92383333D01*
X29622857Y-92335714D01*
X29813333Y-92288095D01*
X30051428Y-92288095D01*
X30241904Y-92335714D01*
X30337142Y-92383333D01*
X30384761Y-92430952D01*
X30432380Y-92526190D01*
X30432380Y-92621428D01*
X30384761Y-92716666D01*
X30337142Y-92764285D01*
X30241904Y-92811904D01*
X30051428Y-92859523D01*
X29813333Y-92859523D01*
X29622857Y-92811904D01*
X29527619Y-92764285D01*
X29480000Y-92716666D01*
X29432380Y-92621428D01*
X51557142Y-93257142D02*
X51509523Y-93304761D01*
X51366666Y-93352380D01*
X51271428Y-93352380D01*
X51128571Y-93304761D01*
X51033333Y-93209523D01*
X50985714Y-93114285D01*
X50938095Y-92923809D01*
X50938095Y-92780952D01*
X50985714Y-92590476D01*
X51033333Y-92495238D01*
X51128571Y-92400000D01*
X51271428Y-92352380D01*
X51366666Y-92352380D01*
X51509523Y-92400000D01*
X51557142Y-92447619D01*
X52509523Y-93352380D02*
X51938095Y-93352380D01*
X52223809Y-93352380D02*
X52223809Y-92352380D01*
X52128571Y-92495238D01*
X52033333Y-92590476D01*
X51938095Y-92638095D01*
X52985714Y-93352380D02*
X53176190Y-93352380D01*
X53271428Y-93304761D01*
X53319047Y-93257142D01*
X53414285Y-93114285D01*
X53461904Y-92923809D01*
X53461904Y-92542857D01*
X53414285Y-92447619D01*
X53366666Y-92400000D01*
X53271428Y-92352380D01*
X53080952Y-92352380D01*
X52985714Y-92400000D01*
X52938095Y-92447619D01*
X52890476Y-92542857D01*
X52890476Y-92780952D01*
X52938095Y-92876190D01*
X52985714Y-92923809D01*
X53080952Y-92971428D01*
X53271428Y-92971428D01*
X53366666Y-92923809D01*
X53414285Y-92876190D01*
X53461904Y-92780952D01*
X32832142Y-91757142D02*
X32784523Y-91804761D01*
X32641666Y-91852380D01*
X32546428Y-91852380D01*
X32403571Y-91804761D01*
X32308333Y-91709523D01*
X32260714Y-91614285D01*
X32213095Y-91423809D01*
X32213095Y-91280952D01*
X32260714Y-91090476D01*
X32308333Y-90995238D01*
X32403571Y-90900000D01*
X32546428Y-90852380D01*
X32641666Y-90852380D01*
X32784523Y-90900000D01*
X32832142Y-90947619D01*
X33784523Y-91852380D02*
X33213095Y-91852380D01*
X33498809Y-91852380D02*
X33498809Y-90852380D01*
X33403571Y-90995238D01*
X33308333Y-91090476D01*
X33213095Y-91138095D01*
X34355952Y-91280952D02*
X34260714Y-91233333D01*
X34213095Y-91185714D01*
X34165476Y-91090476D01*
X34165476Y-91042857D01*
X34213095Y-90947619D01*
X34260714Y-90900000D01*
X34355952Y-90852380D01*
X34546428Y-90852380D01*
X34641666Y-90900000D01*
X34689285Y-90947619D01*
X34736904Y-91042857D01*
X34736904Y-91090476D01*
X34689285Y-91185714D01*
X34641666Y-91233333D01*
X34546428Y-91280952D01*
X34355952Y-91280952D01*
X34260714Y-91328571D01*
X34213095Y-91376190D01*
X34165476Y-91471428D01*
X34165476Y-91661904D01*
X34213095Y-91757142D01*
X34260714Y-91804761D01*
X34355952Y-91852380D01*
X34546428Y-91852380D01*
X34641666Y-91804761D01*
X34689285Y-91757142D01*
X34736904Y-91661904D01*
X34736904Y-91471428D01*
X34689285Y-91376190D01*
X34641666Y-91328571D01*
X34546428Y-91280952D01*
X38107142Y-118957142D02*
X38059523Y-119004761D01*
X37916666Y-119052380D01*
X37821428Y-119052380D01*
X37678571Y-119004761D01*
X37583333Y-118909523D01*
X37535714Y-118814285D01*
X37488095Y-118623809D01*
X37488095Y-118480952D01*
X37535714Y-118290476D01*
X37583333Y-118195238D01*
X37678571Y-118100000D01*
X37821428Y-118052380D01*
X37916666Y-118052380D01*
X38059523Y-118100000D01*
X38107142Y-118147619D01*
X39059523Y-119052380D02*
X38488095Y-119052380D01*
X38773809Y-119052380D02*
X38773809Y-118052380D01*
X38678571Y-118195238D01*
X38583333Y-118290476D01*
X38488095Y-118338095D01*
X39916666Y-118052380D02*
X39726190Y-118052380D01*
X39630952Y-118100000D01*
X39583333Y-118147619D01*
X39488095Y-118290476D01*
X39440476Y-118480952D01*
X39440476Y-118861904D01*
X39488095Y-118957142D01*
X39535714Y-119004761D01*
X39630952Y-119052380D01*
X39821428Y-119052380D01*
X39916666Y-119004761D01*
X39964285Y-118957142D01*
X40011904Y-118861904D01*
X40011904Y-118623809D01*
X39964285Y-118528571D01*
X39916666Y-118480952D01*
X39821428Y-118433333D01*
X39630952Y-118433333D01*
X39535714Y-118480952D01*
X39488095Y-118528571D01*
X39440476Y-118623809D01*
X37907142Y-110457142D02*
X37859523Y-110504761D01*
X37716666Y-110552380D01*
X37621428Y-110552380D01*
X37478571Y-110504761D01*
X37383333Y-110409523D01*
X37335714Y-110314285D01*
X37288095Y-110123809D01*
X37288095Y-109980952D01*
X37335714Y-109790476D01*
X37383333Y-109695238D01*
X37478571Y-109600000D01*
X37621428Y-109552380D01*
X37716666Y-109552380D01*
X37859523Y-109600000D01*
X37907142Y-109647619D01*
X38859523Y-110552380D02*
X38288095Y-110552380D01*
X38573809Y-110552380D02*
X38573809Y-109552380D01*
X38478571Y-109695238D01*
X38383333Y-109790476D01*
X38288095Y-109838095D01*
X39764285Y-109552380D02*
X39288095Y-109552380D01*
X39240476Y-110028571D01*
X39288095Y-109980952D01*
X39383333Y-109933333D01*
X39621428Y-109933333D01*
X39716666Y-109980952D01*
X39764285Y-110028571D01*
X39811904Y-110123809D01*
X39811904Y-110361904D01*
X39764285Y-110457142D01*
X39716666Y-110504761D01*
X39621428Y-110552380D01*
X39383333Y-110552380D01*
X39288095Y-110504761D01*
X39240476Y-110457142D01*
X40439285Y-97085714D02*
X40467857Y-97114285D01*
X40496428Y-97200000D01*
X40496428Y-97257142D01*
X40467857Y-97342857D01*
X40410714Y-97400000D01*
X40353571Y-97428571D01*
X40239285Y-97457142D01*
X40153571Y-97457142D01*
X40039285Y-97428571D01*
X39982142Y-97400000D01*
X39925000Y-97342857D01*
X39896428Y-97257142D01*
X39896428Y-97200000D01*
X39925000Y-97114285D01*
X39953571Y-97085714D01*
X40496428Y-96514285D02*
X40496428Y-96857142D01*
X40496428Y-96685714D02*
X39896428Y-96685714D01*
X39982142Y-96742857D01*
X40039285Y-96800000D01*
X40067857Y-96857142D01*
X40096428Y-96000000D02*
X40496428Y-96000000D01*
X39867857Y-96142857D02*
X40296428Y-96285714D01*
X40296428Y-95914285D01*
X51782142Y-104082142D02*
X51734523Y-104129761D01*
X51591666Y-104177380D01*
X51496428Y-104177380D01*
X51353571Y-104129761D01*
X51258333Y-104034523D01*
X51210714Y-103939285D01*
X51163095Y-103748809D01*
X51163095Y-103605952D01*
X51210714Y-103415476D01*
X51258333Y-103320238D01*
X51353571Y-103225000D01*
X51496428Y-103177380D01*
X51591666Y-103177380D01*
X51734523Y-103225000D01*
X51782142Y-103272619D01*
X52734523Y-104177380D02*
X52163095Y-104177380D01*
X52448809Y-104177380D02*
X52448809Y-103177380D01*
X52353571Y-103320238D01*
X52258333Y-103415476D01*
X52163095Y-103463095D01*
X53067857Y-103177380D02*
X53686904Y-103177380D01*
X53353571Y-103558333D01*
X53496428Y-103558333D01*
X53591666Y-103605952D01*
X53639285Y-103653571D01*
X53686904Y-103748809D01*
X53686904Y-103986904D01*
X53639285Y-104082142D01*
X53591666Y-104129761D01*
X53496428Y-104177380D01*
X53210714Y-104177380D01*
X53115476Y-104129761D01*
X53067857Y-104082142D01*
X51207142Y-102557142D02*
X51159523Y-102604761D01*
X51016666Y-102652380D01*
X50921428Y-102652380D01*
X50778571Y-102604761D01*
X50683333Y-102509523D01*
X50635714Y-102414285D01*
X50588095Y-102223809D01*
X50588095Y-102080952D01*
X50635714Y-101890476D01*
X50683333Y-101795238D01*
X50778571Y-101700000D01*
X50921428Y-101652380D01*
X51016666Y-101652380D01*
X51159523Y-101700000D01*
X51207142Y-101747619D01*
X52159523Y-102652380D02*
X51588095Y-102652380D01*
X51873809Y-102652380D02*
X51873809Y-101652380D01*
X51778571Y-101795238D01*
X51683333Y-101890476D01*
X51588095Y-101938095D01*
X52540476Y-101747619D02*
X52588095Y-101700000D01*
X52683333Y-101652380D01*
X52921428Y-101652380D01*
X53016666Y-101700000D01*
X53064285Y-101747619D01*
X53111904Y-101842857D01*
X53111904Y-101938095D01*
X53064285Y-102080952D01*
X52492857Y-102652380D01*
X53111904Y-102652380D01*
X51107142Y-101332142D02*
X51059523Y-101379761D01*
X50916666Y-101427380D01*
X50821428Y-101427380D01*
X50678571Y-101379761D01*
X50583333Y-101284523D01*
X50535714Y-101189285D01*
X50488095Y-100998809D01*
X50488095Y-100855952D01*
X50535714Y-100665476D01*
X50583333Y-100570238D01*
X50678571Y-100475000D01*
X50821428Y-100427380D01*
X50916666Y-100427380D01*
X51059523Y-100475000D01*
X51107142Y-100522619D01*
X52059523Y-101427380D02*
X51488095Y-101427380D01*
X51773809Y-101427380D02*
X51773809Y-100427380D01*
X51678571Y-100570238D01*
X51583333Y-100665476D01*
X51488095Y-100713095D01*
X53011904Y-101427380D02*
X52440476Y-101427380D01*
X52726190Y-101427380D02*
X52726190Y-100427380D01*
X52630952Y-100570238D01*
X52535714Y-100665476D01*
X52440476Y-100713095D01*
X50957142Y-99907142D02*
X50909523Y-99954761D01*
X50766666Y-100002380D01*
X50671428Y-100002380D01*
X50528571Y-99954761D01*
X50433333Y-99859523D01*
X50385714Y-99764285D01*
X50338095Y-99573809D01*
X50338095Y-99430952D01*
X50385714Y-99240476D01*
X50433333Y-99145238D01*
X50528571Y-99050000D01*
X50671428Y-99002380D01*
X50766666Y-99002380D01*
X50909523Y-99050000D01*
X50957142Y-99097619D01*
X51909523Y-100002380D02*
X51338095Y-100002380D01*
X51623809Y-100002380D02*
X51623809Y-99002380D01*
X51528571Y-99145238D01*
X51433333Y-99240476D01*
X51338095Y-99288095D01*
X52528571Y-99002380D02*
X52623809Y-99002380D01*
X52719047Y-99050000D01*
X52766666Y-99097619D01*
X52814285Y-99192857D01*
X52861904Y-99383333D01*
X52861904Y-99621428D01*
X52814285Y-99811904D01*
X52766666Y-99907142D01*
X52719047Y-99954761D01*
X52623809Y-100002380D01*
X52528571Y-100002380D01*
X52433333Y-99954761D01*
X52385714Y-99907142D01*
X52338095Y-99811904D01*
X52290476Y-99621428D01*
X52290476Y-99383333D01*
X52338095Y-99192857D01*
X52385714Y-99097619D01*
X52433333Y-99050000D01*
X52528571Y-99002380D01*
X36382142Y-88191666D02*
X36429761Y-88239285D01*
X36477380Y-88382142D01*
X36477380Y-88477380D01*
X36429761Y-88620238D01*
X36334523Y-88715476D01*
X36239285Y-88763095D01*
X36048809Y-88810714D01*
X35905952Y-88810714D01*
X35715476Y-88763095D01*
X35620238Y-88715476D01*
X35525000Y-88620238D01*
X35477380Y-88477380D01*
X35477380Y-88382142D01*
X35525000Y-88239285D01*
X35572619Y-88191666D01*
X36477380Y-87715476D02*
X36477380Y-87525000D01*
X36429761Y-87429761D01*
X36382142Y-87382142D01*
X36239285Y-87286904D01*
X36048809Y-87239285D01*
X35667857Y-87239285D01*
X35572619Y-87286904D01*
X35525000Y-87334523D01*
X35477380Y-87429761D01*
X35477380Y-87620238D01*
X35525000Y-87715476D01*
X35572619Y-87763095D01*
X35667857Y-87810714D01*
X35905952Y-87810714D01*
X36001190Y-87763095D01*
X36048809Y-87715476D01*
X36096428Y-87620238D01*
X36096428Y-87429761D01*
X36048809Y-87334523D01*
X36001190Y-87286904D01*
X35905952Y-87239285D01*
X37632142Y-88191666D02*
X37679761Y-88239285D01*
X37727380Y-88382142D01*
X37727380Y-88477380D01*
X37679761Y-88620238D01*
X37584523Y-88715476D01*
X37489285Y-88763095D01*
X37298809Y-88810714D01*
X37155952Y-88810714D01*
X36965476Y-88763095D01*
X36870238Y-88715476D01*
X36775000Y-88620238D01*
X36727380Y-88477380D01*
X36727380Y-88382142D01*
X36775000Y-88239285D01*
X36822619Y-88191666D01*
X37155952Y-87620238D02*
X37108333Y-87715476D01*
X37060714Y-87763095D01*
X36965476Y-87810714D01*
X36917857Y-87810714D01*
X36822619Y-87763095D01*
X36775000Y-87715476D01*
X36727380Y-87620238D01*
X36727380Y-87429761D01*
X36775000Y-87334523D01*
X36822619Y-87286904D01*
X36917857Y-87239285D01*
X36965476Y-87239285D01*
X37060714Y-87286904D01*
X37108333Y-87334523D01*
X37155952Y-87429761D01*
X37155952Y-87620238D01*
X37203571Y-87715476D01*
X37251190Y-87763095D01*
X37346428Y-87810714D01*
X37536904Y-87810714D01*
X37632142Y-87763095D01*
X37679761Y-87715476D01*
X37727380Y-87620238D01*
X37727380Y-87429761D01*
X37679761Y-87334523D01*
X37632142Y-87286904D01*
X37536904Y-87239285D01*
X37346428Y-87239285D01*
X37251190Y-87286904D01*
X37203571Y-87334523D01*
X37155952Y-87429761D01*
X37433333Y-77582142D02*
X37385714Y-77629761D01*
X37242857Y-77677380D01*
X37147619Y-77677380D01*
X37004761Y-77629761D01*
X36909523Y-77534523D01*
X36861904Y-77439285D01*
X36814285Y-77248809D01*
X36814285Y-77105952D01*
X36861904Y-76915476D01*
X36909523Y-76820238D01*
X37004761Y-76725000D01*
X37147619Y-76677380D01*
X37242857Y-76677380D01*
X37385714Y-76725000D01*
X37433333Y-76772619D01*
X37766666Y-76677380D02*
X38433333Y-76677380D01*
X38004761Y-77677380D01*
X28004610Y-109109687D02*
X27937267Y-109109687D01*
X27802580Y-109042343D01*
X27735236Y-108975000D01*
X27667893Y-108840312D01*
X27667893Y-108705625D01*
X27701564Y-108604610D01*
X27802580Y-108436251D01*
X27903595Y-108335236D01*
X28071954Y-108234221D01*
X28172969Y-108200549D01*
X28307656Y-108200549D01*
X28442343Y-108267893D01*
X28509687Y-108335236D01*
X28577030Y-108469923D01*
X28577030Y-108537267D01*
X29250465Y-109076015D02*
X29115778Y-108941328D01*
X29014763Y-108907656D01*
X28947419Y-108907656D01*
X28779061Y-108941328D01*
X28610702Y-109042343D01*
X28341328Y-109311717D01*
X28307656Y-109412732D01*
X28307656Y-109480076D01*
X28341328Y-109581091D01*
X28476015Y-109715778D01*
X28577030Y-109749450D01*
X28644374Y-109749450D01*
X28745389Y-109715778D01*
X28913748Y-109547419D01*
X28947419Y-109446404D01*
X28947419Y-109379061D01*
X28913748Y-109278045D01*
X28779061Y-109143358D01*
X28678045Y-109109687D01*
X28610702Y-109109687D01*
X28509687Y-109143358D01*
X26979610Y-109909687D02*
X26912267Y-109909687D01*
X26777580Y-109842343D01*
X26710236Y-109775000D01*
X26642893Y-109640312D01*
X26642893Y-109505625D01*
X26676564Y-109404610D01*
X26777580Y-109236251D01*
X26878595Y-109135236D01*
X27046954Y-109034221D01*
X27147969Y-109000549D01*
X27282656Y-109000549D01*
X27417343Y-109067893D01*
X27484687Y-109135236D01*
X27552030Y-109269923D01*
X27552030Y-109337267D01*
X28259137Y-109909687D02*
X27922419Y-109572969D01*
X27552030Y-109876015D01*
X27619374Y-109876015D01*
X27720389Y-109909687D01*
X27888748Y-110078045D01*
X27922419Y-110179061D01*
X27922419Y-110246404D01*
X27888748Y-110347419D01*
X27720389Y-110515778D01*
X27619374Y-110549450D01*
X27552030Y-110549450D01*
X27451015Y-110515778D01*
X27282656Y-110347419D01*
X27248984Y-110246404D01*
X27248984Y-110179061D01*
X29004610Y-108259687D02*
X28937267Y-108259687D01*
X28802580Y-108192343D01*
X28735236Y-108125000D01*
X28667893Y-107990312D01*
X28667893Y-107855625D01*
X28701564Y-107754610D01*
X28802580Y-107586251D01*
X28903595Y-107485236D01*
X29071954Y-107384221D01*
X29172969Y-107350549D01*
X29307656Y-107350549D01*
X29442343Y-107417893D01*
X29509687Y-107485236D01*
X29577030Y-107619923D01*
X29577030Y-107687267D01*
X30014763Y-108461717D02*
X29543358Y-108933122D01*
X30115778Y-108023984D02*
X29442343Y-108360702D01*
X29880076Y-108798435D01*
X30254610Y-106984687D02*
X30187267Y-106984687D01*
X30052580Y-106917343D01*
X29985236Y-106850000D01*
X29917893Y-106715312D01*
X29917893Y-106580625D01*
X29951564Y-106479610D01*
X30052580Y-106311251D01*
X30153595Y-106210236D01*
X30321954Y-106109221D01*
X30422969Y-106075549D01*
X30557656Y-106075549D01*
X30692343Y-106142893D01*
X30759687Y-106210236D01*
X30827030Y-106344923D01*
X30827030Y-106412267D01*
X31130076Y-106580625D02*
X31567809Y-107018358D01*
X31062732Y-107052030D01*
X31163748Y-107153045D01*
X31197419Y-107254061D01*
X31197419Y-107321404D01*
X31163748Y-107422419D01*
X30995389Y-107590778D01*
X30894374Y-107624450D01*
X30827030Y-107624450D01*
X30726015Y-107590778D01*
X30523984Y-107388748D01*
X30490312Y-107287732D01*
X30490312Y-107220389D01*
X31254610Y-105984687D02*
X31187267Y-105984687D01*
X31052580Y-105917343D01*
X30985236Y-105850000D01*
X30917893Y-105715312D01*
X30917893Y-105580625D01*
X30951564Y-105479610D01*
X31052580Y-105311251D01*
X31153595Y-105210236D01*
X31321954Y-105109221D01*
X31422969Y-105075549D01*
X31557656Y-105075549D01*
X31692343Y-105142893D01*
X31759687Y-105210236D01*
X31827030Y-105344923D01*
X31827030Y-105412267D01*
X32096404Y-105681641D02*
X32163748Y-105681641D01*
X32264763Y-105715312D01*
X32433122Y-105883671D01*
X32466793Y-105984687D01*
X32466793Y-106052030D01*
X32433122Y-106153045D01*
X32365778Y-106220389D01*
X32231091Y-106287732D01*
X31422969Y-106287732D01*
X31860702Y-106725465D01*
X32254610Y-105084687D02*
X32187267Y-105084687D01*
X32052580Y-105017343D01*
X31985236Y-104950000D01*
X31917893Y-104815312D01*
X31917893Y-104680625D01*
X31951564Y-104579610D01*
X32052580Y-104411251D01*
X32153595Y-104310236D01*
X32321954Y-104209221D01*
X32422969Y-104175549D01*
X32557656Y-104175549D01*
X32692343Y-104242893D01*
X32759687Y-104310236D01*
X32827030Y-104444923D01*
X32827030Y-104512267D01*
X32860702Y-105825465D02*
X32456641Y-105421404D01*
X32658671Y-105623435D02*
X33365778Y-104916328D01*
X33197419Y-104950000D01*
X33062732Y-104950000D01*
X32961717Y-104916328D01*
M02*
